<?xml version="1.0" encoding="UTF-8"?>
<svg xmlns="http://www.w3.org/2000/svg" version="1.1" viewBox="0 0 595.28 347.11">
  <!-- Generator: Adobe Illustrator 29.7.1, SVG Export Plug-In . SVG Version: 2.1.1 Build 8)  -->
  <defs>
    <style>
      .st0 {
        fill: #ddd;
      }

      .st1 {
        opacity: .16;
      }

      .st1, .st2 {
        mix-blend-mode: multiply;
      }

      .st3 {
        fill: #b1afb0;
      }

      .st4, .st5 {
        fill: #42beed;
      }

      .st6 {
        fill: #e4e3e3;
      }

      .st7 {
        fill: #525762;
      }

      .st8 {
        fill: #ccc;
      }

      .st9 {
        isolation: isolate;
      }

      .st10 {
        fill: #fafafb;
      }

      .st11 {
        opacity: .7;
      }

      .st12 {
        opacity: .46;
      }

      .st13 {
        opacity: .38;
      }

      .st14 {
        opacity: .2;
      }

      .st15 {
        fill: #0d5580;
      }

      .st16 {
        fill: #4e4d4d;
      }

      .st5 {
        opacity: .5;
      }
    </style>
  </defs>
  <g class="st9">
    <g id="_レイヤー_1" data-name="レイヤー_1">
      <g class="st12">
        <g class="st1">
          <g class="st2">
            <path class="st10" d="M286.79,192.09h10.8v10.8h-10.8v-10.8ZM297.07,192.62h-9.75v9.75h9.75v-9.75Z"/>
          </g>
          <g class="st2">
            <path class="st10" d="M255.43,192.09h10.8v10.8h-10.8v-10.8ZM265.71,192.62h-9.75v9.75h9.75v-9.75Z"/>
          </g>
          <g class="st2">
            <path class="st10" d="M239.75,192.09h10.8v10.8h-10.8v-10.8ZM250.03,192.62h-9.75v9.75h9.75v-9.75Z"/>
          </g>
          <g class="st2">
            <path class="st10" d="M208.39,192.09h10.8v10.8h-10.8v-10.8ZM218.67,192.62h-9.75v9.75h9.75v-9.75Z"/>
          </g>
          <g class="st2">
            <path class="st10" d="M192.71,192.09h10.8v10.8h-10.8v-10.8ZM202.99,192.62h-9.75v9.75h9.75v-9.75Z"/>
          </g>
          <g class="st2">
            <path class="st10" d="M161.36,192.09h10.8v10.8h-10.8v-10.8ZM171.63,192.62h-9.75v9.75h9.75v-9.75Z"/>
          </g>
          <g class="st2">
            <path class="st10" d="M145.68,192.09h10.8v10.8h-10.8v-10.8ZM155.95,192.62h-9.75v9.75h9.75v-9.75Z"/>
          </g>
          <g class="st2">
            <path class="st10" d="M130,192.09h10.8v10.8h-10.8v-10.8ZM140.27,192.62h-9.75v9.75h9.75v-9.75Z"/>
          </g>
          <g class="st2">
            <path class="st10" d="M286.79,206.94h10.8v10.8h-10.8v-10.8ZM297.07,207.46h-9.75v9.75h9.75v-9.75Z"/>
          </g>
          <g class="st2">
            <path class="st10" d="M271.11,206.94h10.8v10.8h-10.8v-10.8ZM281.39,207.46h-9.75v9.75h9.75v-9.75Z"/>
          </g>
          <g class="st2">
            <path class="st10" d="M255.43,206.94h10.8v10.8h-10.8v-10.8ZM265.71,207.46h-9.75v9.75h9.75v-9.75Z"/>
          </g>
          <g class="st2">
            <path class="st10" d="M239.75,206.94h10.8v10.8h-10.8v-10.8ZM250.03,207.46h-9.75v9.75h9.75v-9.75Z"/>
          </g>
          <g class="st2">
            <path class="st10" d="M224.07,206.94h10.8v10.8h-10.8v-10.8ZM234.35,207.46h-9.75v9.75h9.75v-9.75Z"/>
          </g>
          <g class="st2">
            <path class="st10" d="M208.39,206.94h10.8v10.8h-10.8v-10.8ZM218.67,207.46h-9.75v9.75h9.75v-9.75Z"/>
          </g>
          <g class="st2">
            <path class="st10" d="M192.71,206.94h10.8v10.8h-10.8v-10.8ZM202.99,207.46h-9.75v9.75h9.75v-9.75Z"/>
          </g>
          <g class="st2">
            <path class="st10" d="M177.04,206.94h10.8v10.8h-10.8v-10.8ZM187.31,207.46h-9.75v9.75h9.75v-9.75Z"/>
          </g>
          <g class="st2">
            <path class="st10" d="M161.36,206.94h10.8v10.8h-10.8v-10.8ZM171.63,207.46h-9.75v9.75h9.75v-9.75Z"/>
          </g>
          <g class="st2">
            <path class="st10" d="M145.68,206.94h10.8v10.8h-10.8v-10.8ZM155.95,207.46h-9.75v9.75h9.75v-9.75Z"/>
          </g>
          <g class="st2">
            <path class="st10" d="M286.79,221.79h10.8v10.8h-10.8v-10.8ZM297.07,222.31h-9.75v9.75h9.75v-9.75Z"/>
          </g>
          <g class="st2">
            <path class="st10" d="M271.11,221.79h10.8v10.8h-10.8v-10.8ZM281.39,222.31h-9.75v9.75h9.75v-9.75Z"/>
          </g>
          <g class="st2">
            <path class="st10" d="M239.75,221.79h10.8v10.8h-10.8v-10.8ZM250.03,222.31h-9.75v9.75h9.75v-9.75Z"/>
          </g>
          <g class="st2">
            <path class="st10" d="M224.07,221.79h10.8v10.8h-10.8v-10.8ZM234.35,222.31h-9.75v9.75h9.75v-9.75Z"/>
          </g>
          <g class="st2">
            <path class="st10" d="M208.39,221.79h10.8v10.8h-10.8v-10.8ZM218.67,222.31h-9.75v9.75h9.75v-9.75Z"/>
          </g>
          <g class="st2">
            <path class="st10" d="M192.71,221.79h10.8v10.8h-10.8v-10.8ZM202.99,222.31h-9.75v9.75h9.75v-9.75Z"/>
          </g>
          <g class="st2">
            <path class="st10" d="M161.36,221.79h10.8v10.8h-10.8v-10.8ZM171.63,222.31h-9.75v9.75h9.75v-9.75Z"/>
          </g>
          <g class="st2">
            <path class="st10" d="M145.68,221.79h10.8v10.8h-10.8v-10.8ZM155.95,222.31h-9.75v9.75h9.75v-9.75Z"/>
          </g>
          <g class="st2">
            <path class="st10" d="M130,221.79h10.8v10.8h-10.8v-10.8ZM140.27,222.31h-9.75v9.75h9.75v-9.75Z"/>
          </g>
          <g class="st2">
            <path class="st10" d="M114.32,221.79h10.8v10.8h-10.8v-10.8ZM124.6,222.31h-9.75v9.75h9.75v-9.75Z"/>
          </g>
          <g class="st2">
            <path class="st10" d="M271.11,236.63h10.8v10.8h-10.8v-10.8ZM281.39,237.16h-9.75v9.75h9.75v-9.75Z"/>
          </g>
          <g class="st2">
            <path class="st10" d="M255.43,236.63h10.8v10.8h-10.8v-10.8ZM265.71,237.16h-9.75v9.75h9.75v-9.75Z"/>
          </g>
          <g class="st2">
            <path class="st10" d="M239.75,236.63h10.8v10.8h-10.8v-10.8ZM250.03,237.16h-9.75v9.75h9.75v-9.75Z"/>
          </g>
          <g class="st2">
            <path class="st10" d="M224.07,236.63h10.8v10.8h-10.8v-10.8ZM234.35,237.16h-9.75v9.75h9.75v-9.75Z"/>
          </g>
          <g class="st2">
            <path class="st10" d="M208.39,236.63h10.8v10.8h-10.8v-10.8ZM218.67,237.16h-9.75v9.75h9.75v-9.75Z"/>
          </g>
          <g class="st2">
            <path class="st10" d="M177.04,236.63h10.8v10.8h-10.8v-10.8ZM187.31,237.16h-9.75v9.75h9.75v-9.75Z"/>
          </g>
          <g class="st2">
            <path class="st10" d="M161.36,236.63h10.8v10.8h-10.8v-10.8ZM171.63,237.16h-9.75v9.75h9.75v-9.75Z"/>
          </g>
          <g class="st2">
            <path class="st10" d="M130,236.63h10.8v10.8h-10.8v-10.8ZM140.27,237.16h-9.75v9.75h9.75v-9.75Z"/>
          </g>
          <g class="st2">
            <path class="st10" d="M271.11,251.48h10.8v10.8h-10.8v-10.8ZM281.39,252.01h-9.75v9.75h9.75v-9.75Z"/>
          </g>
          <g class="st2">
            <path class="st10" d="M224.07,251.48h10.8v10.8h-10.8v-10.8ZM234.35,252.01h-9.75v9.75h9.75v-9.75Z"/>
          </g>
          <g class="st2">
            <path class="st10" d="M208.39,251.48h10.8v10.8h-10.8v-10.8ZM218.67,252.01h-9.75v9.75h9.75v-9.75Z"/>
          </g>
          <g class="st2">
            <path class="st10" d="M192.71,251.48h10.8v10.8h-10.8v-10.8ZM202.99,252.01h-9.75v9.75h9.75v-9.75Z"/>
          </g>
          <g class="st2">
            <path class="st10" d="M177.04,251.48h10.8v10.8h-10.8v-10.8ZM187.31,252.01h-9.75v9.75h9.75v-9.75Z"/>
          </g>
          <g class="st2">
            <path class="st10" d="M161.36,251.48h10.8v10.8h-10.8v-10.8ZM171.63,252.01h-9.75v9.75h9.75v-9.75Z"/>
          </g>
          <g class="st2">
            <path class="st10" d="M145.68,251.48h10.8v10.8h-10.8v-10.8ZM155.95,252.01h-9.75v9.75h9.75v-9.75Z"/>
          </g>
          <g class="st2">
            <path class="st10" d="M130,251.48h10.8v10.8h-10.8v-10.8ZM140.27,252.01h-9.75v9.75h9.75v-9.75Z"/>
          </g>
          <g class="st2">
            <path class="st10" d="M271.11,266.33h10.8v10.8h-10.8v-10.8ZM281.39,266.85h-9.75v9.75h9.75v-9.75Z"/>
          </g>
          <g class="st2">
            <path class="st10" d="M255.43,266.33h10.8v10.8h-10.8v-10.8ZM265.71,266.85h-9.75v9.75h9.75v-9.75Z"/>
          </g>
          <g class="st2">
            <path class="st10" d="M239.75,266.33h10.8v10.8h-10.8v-10.8ZM250.03,266.85h-9.75v9.75h9.75v-9.75Z"/>
          </g>
          <g class="st2">
            <path class="st10" d="M224.07,266.33h10.8v10.8h-10.8v-10.8ZM234.35,266.85h-9.75v9.75h9.75v-9.75Z"/>
          </g>
          <g class="st2">
            <path class="st10" d="M208.39,266.33h10.8v10.8h-10.8v-10.8ZM218.67,266.85h-9.75v9.75h9.75v-9.75Z"/>
          </g>
          <g class="st2">
            <path class="st10" d="M192.71,266.33h10.8v10.8h-10.8v-10.8ZM202.99,266.85h-9.75v9.75h9.75v-9.75Z"/>
          </g>
          <g class="st2">
            <path class="st10" d="M161.36,266.33h10.8v10.8h-10.8v-10.8ZM171.63,266.85h-9.75v9.75h9.75v-9.75Z"/>
          </g>
          <g class="st2">
            <path class="st10" d="M145.68,266.33h10.8v10.8h-10.8v-10.8ZM155.95,266.85h-9.75v9.75h9.75v-9.75Z"/>
          </g>
          <g class="st2">
            <path class="st10" d="M130,266.33h10.8v10.8h-10.8v-10.8ZM140.27,266.85h-9.75v9.75h9.75v-9.75Z"/>
          </g>
          <g class="st2">
            <path class="st10" d="M98.64,266.33h10.8v10.8h-10.8v-10.8ZM108.92,266.85h-9.75v9.75h9.75v-9.75Z"/>
          </g>
          <g class="st2">
            <path class="st10" d="M286.79,281.18h10.8v10.8h-10.8v-10.8ZM297.07,281.7h-9.75v9.75h9.75v-9.75Z"/>
          </g>
          <g class="st2">
            <path class="st10" d="M271.11,281.18h10.8v10.8h-10.8v-10.8ZM281.39,281.7h-9.75v9.75h9.75v-9.75Z"/>
          </g>
          <g class="st2">
            <path class="st10" d="M255.43,281.18h10.8v10.8h-10.8v-10.8ZM265.71,281.7h-9.75v9.75h9.75v-9.75Z"/>
          </g>
          <g class="st2">
            <path class="st10" d="M224.07,281.18h10.8v10.8h-10.8v-10.8ZM234.35,281.7h-9.75v9.75h9.75v-9.75Z"/>
          </g>
          <g class="st2">
            <path class="st10" d="M208.39,281.18h10.8v10.8h-10.8v-10.8ZM218.67,281.7h-9.75v9.75h9.75v-9.75Z"/>
          </g>
          <g class="st2">
            <path class="st10" d="M192.71,281.18h10.8v10.8h-10.8v-10.8ZM202.99,281.7h-9.75v9.75h9.75v-9.75Z"/>
          </g>
          <g class="st2">
            <path class="st10" d="M177.04,281.18h10.8v10.8h-10.8v-10.8ZM187.31,281.7h-9.75v9.75h9.75v-9.75Z"/>
          </g>
          <g class="st2">
            <path class="st10" d="M161.36,281.18h10.8v10.8h-10.8v-10.8ZM171.63,281.7h-9.75v9.75h9.75v-9.75Z"/>
          </g>
          <g class="st2">
            <path class="st10" d="M145.68,281.18h10.8v10.8h-10.8v-10.8ZM155.95,281.7h-9.75v9.75h9.75v-9.75Z"/>
          </g>
          <g class="st2">
            <path class="st10" d="M130,281.18h10.8v10.8h-10.8v-10.8ZM140.27,281.7h-9.75v9.75h9.75v-9.75Z"/>
          </g>
          <g class="st2">
            <path class="st10" d="M114.32,281.18h10.8v10.8h-10.8v-10.8ZM124.6,281.7h-9.75v9.75h9.75v-9.75Z"/>
          </g>
          <g class="st2">
            <path class="st10" d="M98.64,281.18h10.8v10.8h-10.8v-10.8ZM108.92,281.7h-9.75v9.75h9.75v-9.75Z"/>
          </g>
          <g class="st2">
            <path class="st10" d="M286.79,296.02h10.8v10.8h-10.8v-10.8ZM297.07,296.55h-9.75v9.75h9.75v-9.75Z"/>
          </g>
          <g class="st2">
            <path class="st10" d="M271.11,296.02h10.8v10.8h-10.8v-10.8ZM281.39,296.55h-9.75v9.75h9.75v-9.75Z"/>
          </g>
          <g class="st2">
            <path class="st10" d="M239.75,296.02h10.8v10.8h-10.8v-10.8ZM250.03,296.55h-9.75v9.75h9.75v-9.75Z"/>
          </g>
          <g class="st2">
            <path class="st10" d="M224.07,296.02h10.8v10.8h-10.8v-10.8ZM234.35,296.55h-9.75v9.75h9.75v-9.75Z"/>
          </g>
          <g class="st2">
            <path class="st10" d="M177.04,296.02h10.8v10.8h-10.8v-10.8ZM187.31,296.55h-9.75v9.75h9.75v-9.75Z"/>
          </g>
          <g class="st2">
            <path class="st10" d="M145.68,296.02h10.8v10.8h-10.8v-10.8ZM155.95,296.55h-9.75v9.75h9.75v-9.75Z"/>
          </g>
          <g class="st2">
            <path class="st10" d="M130,296.02h10.8v10.8h-10.8v-10.8ZM140.27,296.55h-9.75v9.75h9.75v-9.75Z"/>
          </g>
          <g class="st2">
            <path class="st10" d="M114.32,296.02h10.8v10.8h-10.8v-10.8ZM124.6,296.55h-9.75v9.75h9.75v-9.75Z"/>
          </g>
          <g class="st2">
            <path class="st10" d="M98.64,296.02h10.8v10.8h-10.8v-10.8ZM108.92,296.55h-9.75v9.75h9.75v-9.75Z"/>
          </g>
        </g>
        <g class="st13">
          <g>
            <g>
              <path class="st7" d="M308.39,156.33c0-.27-.22-.49-.49-.49s-.49.22-.49.49.22.49.49.49.49-.22.49-.49Z"/>
              <path class="st7" d="M323.53,163.02c.27,0,.49-.22.49-.49s-.22-.49-.49-.49-.49.22-.49.49.22.49.49.49Z"/>
              <path class="st7" d="M334.57,161.58c.27,0,.49-.22.49-.49s-.22-.49-.49-.49-.49.22-.49.49.22.49.49.49Z"/>
              <path class="st7" d="M323.53,160.14c.27,0,.49-.22.49-.49s-.22-.49-.49-.49-.49.22-.49.49.22.49.49.49Z"/>
              <circle class="st7" cx="320.65" cy="163.87" r=".49"/>
              <path class="st7" d="M320.65,165.71c.27,0,.49-.22.49-.49s-.22-.49-.49-.49-.49.22-.49.49.22.49.49.49Z"/>
              <path class="st7" d="M328.81,167.06c.27,0,.49-.22.49-.49s-.22-.49-.49-.49-.49.22-.49.49.22.49.49.49Z"/>
              <path class="st7" d="M320.65,168.41c.27,0,.49-.22.49-.49s-.22-.49-.49-.49-.49.22-.49.49.22.49.49.49Z"/>
              <path class="st7" d="M320.65,169.76c.27,0,.49-.22.49-.49s-.22-.49-.49-.49-.49.22-.49.49.22.49.49.49Z"/>
              <path class="st7" d="M325.45,171.1c.27,0,.49-.22.49-.49s-.22-.49-.49-.49-.49.22-.49.49.22.49.49.49Z"/>
              <path class="st7" d="M325.45,172.45c.27,0,.49-.22.49-.49s-.22-.49-.49-.49-.49.22-.49.49.22.49.49.49Z"/>
              <path class="st7" d="M325.45,173.8c.27,0,.49-.22.49-.49s-.22-.49-.49-.49-.49.22-.49.49.22.49.49.49Z"/>
              <path class="st7" d="M320.65,175.15c.27,0,.49-.22.49-.49s-.22-.49-.49-.49-.49.22-.49.49.22.49.49.49Z"/>
              <path class="st7" d="M323.53,176.49c.27,0,.49-.22.49-.49s-.22-.49-.49-.49-.49.22-.49.49.22.49.49.49Z"/>
              <path class="st7" d="M330.25,177.84c.27,0,.49-.22.49-.49s-.22-.49-.49-.49-.49.22-.49.49.22.49.49.49Z"/>
              <path class="st7" d="M320.65,179.19c.27,0,.49-.22.49-.49s-.22-.49-.49-.49-.49.22-.49.49.22.49.49.49Z"/>
              <path class="st7" d="M320.65,180.54c.27,0,.49-.22.49-.49s-.22-.49-.49-.49-.49.22-.49.49.22.49.49.49Z"/>
              <path class="st7" d="M323.53,181.89c.27,0,.49-.22.49-.49s-.22-.49-.49-.49-.49.22-.49.49.22.49.49.49Z"/>
              <path class="st7" d="M320.65,183.23c.27,0,.49-.22.49-.49s-.22-.49-.49-.49-.49.22-.49.49.22.49.49.49Z"/>
              <path class="st7" d="M320.65,184.58c.27,0,.49-.22.49-.49s-.22-.49-.49-.49-.49.22-.49.49.22.49.49.49Z"/>
              <path class="st7" d="M336.97,185.93c.27,0,.49-.22.49-.49s-.22-.49-.49-.49-.49.22-.49.49.22.49.49.49Z"/>
              <circle class="st7" cx="323.53" cy="186.79" r=".49"/>
              <path class="st7" d="M320.65,188.62c.27,0,.49-.22.49-.49s-.22-.49-.49-.49-.49.22-.49.49.22.49.49.49Z"/>
              <path class="st7" d="M324.97,189.97c.27,0,.49-.22.49-.49s-.22-.49-.49-.49-.49.22-.49.49.22.49.49.49Z"/>
              <polygon class="st7" points="471.3 100.49 444.82 100.49 427.41 117.9 422.87 117.9 412.98 127.79 412.98 132.14 398.14 146.98 370.86 146.98 348.71 169.13 320.65 169.13 320.65 169.37 348.81 169.37 370.96 147.22 398.24 147.22 413.22 132.24 413.22 127.89 422.97 118.14 427.51 118.14 444.92 100.73 471.3 100.73 471.3 100.49"/>
              <polygon class="st7" points="471.3 101.61 445.53 101.61 427.6 119.54 423.62 119.54 414.22 128.94 414.22 132.97 398.81 148.39 371.85 148.39 349.86 170.37 325.45 170.37 325.45 170.85 350.06 170.85 372.05 148.87 399.01 148.87 414.7 133.17 414.7 129.14 423.82 120.02 427.8 120.02 445.73 102.09 471.3 102.09 471.3 101.61"/>
              <polygon class="st4" points="428.72 89.89 411.75 106.86 411.75 131.46 397.85 145.36 370.26 145.36 347.94 167.68 320.16 167.68 320.16 168.16 348.14 168.16 370.46 145.84 398.05 145.84 412.23 131.66 412.23 107.06 428.72 90.57 428.72 89.89"/>
              <polygon class="st7" points="428.72 87.8 410.57 105.95 410.57 130.69 396.94 144.32 369.15 144.32 347.51 166.44 328.81 166.44 328.81 166.68 347.61 166.68 369.25 144.56 397.04 144.56 410.81 130.79 410.81 106.05 428.72 88.14 428.72 87.8"/>
              <polygon class="st7" points="412.39 90.72 409.16 93.96 409.16 130.24 396.46 142.93 368.25 142.93 346.07 165.1 320.65 165.1 320.65 165.34 346.17 165.34 368.34 143.17 396.56 143.17 409.4 130.33 409.4 94.06 412.73 90.72 412.39 90.72"/>
              <polygon class="st7" points="410.09 90.72 407.81 93 407.81 100.58 344.63 163.75 320.65 163.75 320.65 163.99 344.73 163.99 408.05 100.68 408.05 93.1 410.43 90.72 410.09 90.72"/>
              <polygon class="st7" points="408.31 90.72 406.51 92.52 406.51 100.24 391.66 115.1 386.96 115.1 365.39 136.67 365.39 140.69 343.67 162.41 323.53 162.41 323.53 162.65 343.77 162.65 365.63 140.79 365.63 136.76 387.06 115.34 391.76 115.34 406.75 100.34 406.75 92.62 408.65 90.72 408.31 90.72"/>
              <polygon class="st7" points="405.93 90.72 404.66 91.99 404.66 99.89 391.13 113.42 386.31 113.42 363.59 136.14 363.59 140.41 343.15 160.85 334.57 160.85 334.57 161.33 343.35 161.33 364.07 140.61 364.07 136.33 386.51 113.9 391.33 113.9 405.14 100.09 405.14 92.19 406.6 90.72 405.93 90.72"/>
              <polygon class="st7" points="404.05 90.72 403.69 91.08 403.69 99.33 390.7 112.32 385.14 112.32 362.23 135.23 362.23 139.94 342.65 159.53 323.53 159.53 323.53 159.77 342.75 159.77 362.47 140.04 362.47 135.33 385.24 112.56 390.8 112.56 403.93 99.43 403.93 91.18 404.39 90.72 404.05 90.72"/>
              <polygon class="st7" points="489.34 157.36 484.41 157.36 479 162.78 459.64 162.78 450.79 153.92 431.07 153.92 403.66 181.33 364.78 181.33 355.29 171.84 325.45 171.84 325.45 172.08 355.19 172.08 364.68 181.57 403.76 181.57 431.16 154.16 450.69 154.16 459.54 163.01 479.1 163.01 484.51 157.6 489.34 157.6 489.34 157.36"/>
              <polygon class="st7" points="489.34 164.56 459.29 164.56 449.83 155.1 432.24 155.1 404.62 182.72 363.87 182.72 354.33 173.19 325.45 173.19 325.45 173.43 354.23 173.43 363.77 182.96 404.72 182.96 432.34 155.34 449.73 155.34 459.19 164.8 489.34 164.8 489.34 164.56"/>
              <polygon class="st7" points="320.65 174.78 320.65 174.54 353.85 174.54 363.91 184.6 428.61 184.6 439.42 173.79 471.42 173.79 490.25 192.62 515.52 192.62 515.52 192.86 490.15 192.86 471.32 174.03 439.52 174.03 428.71 184.84 363.81 184.84 353.75 174.78 320.65 174.78"/>
              <polygon class="st7" points="515.67 194.11 489.65 194.11 470.51 174.97 440.66 174.97 429.04 186.59 363.77 186.59 352.94 175.76 323.53 175.76 323.53 176.24 352.74 176.24 363.57 187.07 429.24 187.07 440.86 175.45 470.31 175.45 489.45 194.59 515.67 194.59 515.67 194.11"/>
              <polygon class="st4" points="512.64 200.39 512.98 200.39 508.37 195.78 496.44 195.78 494.36 197.86 438.95 197.86 429.67 188.59 363.76 188.59 352.41 177.23 330.25 177.23 330.25 177.47 352.31 177.47 363.66 188.83 429.57 188.83 438.85 198.1 494.45 198.1 496.54 196.02 508.27 196.02 512.64 200.39"/>
              <polygon class="st7" points="510.92 200.39 511.26 200.39 507.89 197.02 497.68 197.02 495.32 199.38 488.52 199.38 482.84 205.07 466.29 205.07 461.34 200.12 438.61 200.12 429.19 190.7 363.57 190.7 351.45 178.58 320.65 178.58 320.65 178.82 351.35 178.82 363.47 190.94 429.09 190.94 438.51 200.36 461.24 200.36 466.19 205.31 482.94 205.31 488.62 199.62 495.41 199.62 497.78 197.26 507.79 197.26 510.92 200.39"/>
              <polygon class="st7" points="493.91 223.99 494.15 223.99 494.15 217.66 483.42 206.93 465.39 206.93 460.38 201.93 438.72 201.93 428.71 191.92 418.19 191.92 415.18 194.93 410.21 194.93 407.12 191.84 389 191.84 386.38 194.46 373.73 194.46 371.61 192.33 362.9 192.33 350.49 179.93 320.65 179.93 320.65 180.17 350.39 180.17 362.8 192.57 371.51 192.57 373.63 194.7 386.48 194.7 389.1 192.08 407.02 192.08 410.11 195.17 415.27 195.17 418.29 192.16 428.61 192.16 438.62 202.17 460.28 202.17 465.29 207.17 483.32 207.17 493.91 217.76 493.91 223.99"/>
              <polygon class="st7" points="492.59 223.99 493.07 223.99 493.07 218.33 482.99 208.24 465.45 208.24 460.43 203.22 438.79 203.22 428.76 193.19 419.54 193.19 416.09 196.64 410.34 196.64 406.69 192.99 390.06 192.99 386.81 196.23 373.32 196.23 370.7 193.61 362.51 193.61 350.06 181.16 323.53 181.16 323.53 181.64 349.86 181.64 362.31 194.09 370.5 194.09 373.12 196.71 387.01 196.71 390.26 193.47 406.49 193.47 410.14 197.12 416.28 197.12 419.74 193.67 428.56 193.67 438.59 203.7 460.23 203.7 465.25 208.72 482.79 208.72 492.59 218.52 492.59 223.99"/>
              <polygon class="st4" points="491.04 223.99 491.28 223.99 491.28 219.09 482.46 210.26 464.46 210.26 459.42 205.22 438.3 205.22 427.75 194.67 420.47 194.67 416.62 198.53 409.97 198.53 405.68 194.24 390.76 194.24 386.86 198.13 373.42 198.13 370.17 194.88 361.79 194.88 349.53 182.62 320.65 182.62 320.65 182.86 349.43 182.86 361.69 195.12 370.07 195.12 373.32 198.37 386.96 198.37 390.86 194.48 405.58 194.48 409.87 198.77 416.71 198.77 420.57 194.91 427.65 194.91 438.2 205.46 459.32 205.46 464.36 210.5 482.36 210.5 491.04 219.18 491.04 223.99"/>
              <polygon class="st4" points="413.13 262.4 413.61 262.4 413.61 248.36 349.1 183.85 320.65 183.85 320.65 184.33 348.9 184.33 413.13 248.56 413.13 262.4"/>
              <polygon class="st7" points="412.37 262.4 412.61 262.4 412.61 249.29 408.08 244.75 398.78 244.75 372.27 218.24 372.27 209.01 348.57 185.32 336.97 185.32 336.97 185.56 348.47 185.56 372.03 209.11 372.03 218.34 398.68 244.99 407.98 244.99 412.37 249.39 412.37 262.4"/>
              <polygon class="st7" points="398.39 246.58 398.39 275.35 398.63 275.35 398.63 246.48 370.87 218.72 370.87 209.45 348.09 186.67 323.53 186.67 323.53 186.91 347.99 186.91 370.63 209.55 370.63 218.82 398.39 246.58"/>
              <polygon class="st7" points="396.97 247.44 396.97 275.35 397.45 275.35 397.45 247.25 369.84 219.63 369.84 210.07 347.66 187.89 320.65 187.89 320.65 188.37 347.46 188.37 369.36 210.27 369.36 219.83 396.97 247.44"/>
              <polygon class="st7" points="395.92 248.09 395.92 275.35 396.16 275.35 396.16 247.99 368.33 220.16 368.33 210.56 347.13 189.36 324.97 189.36 324.97 189.6 347.03 189.6 368.09 210.66 368.09 220.26 395.92 248.09"/>
              <g>
                <path class="st7" d="M428.69,227.72c.27,0,.49-.22.49-.49s-.22-.49-.49-.49-.49.22-.49.49.22.49.49.49Z"/>
                <path class="st7" d="M428.69,229.07c.27,0,.49-.22.49-.49s-.22-.49-.49-.49-.49.22-.49.49.22.49.49.49Z"/>
                <path class="st7" d="M428.69,230.42c.27,0,.49-.22.49-.49s-.22-.49-.49-.49-.49.22-.49.49.22.49.49.49Z"/>
                <path class="st7" d="M428.69,231.77c.27,0,.49-.22.49-.49s-.22-.49-.49-.49-.49.22-.49.49.22.49.49.49Z"/>
                <path class="st7" d="M428.69,233.11c.27,0,.49-.22.49-.49s-.22-.49-.49-.49-.49.22-.49.49.22.49.49.49Z"/>
                <path class="st7" d="M428.69,234.46c.27,0,.49-.22.49-.49s-.22-.49-.49-.49-.49.22-.49.49.22.49.49.49Z"/>
              </g>
              <polygon class="st7" points="469.3 235.17 469.3 241.11 469.54 241.11 469.54 235.07 461.58 227.11 428.69 227.11 428.69 227.35 461.48 227.35 469.3 235.17"/>
              <polygon class="st7" points="468.27 236.2 468.27 241.11 468.51 241.11 468.51 236.1 460.86 228.46 428.69 228.46 428.69 228.7 460.76 228.7 468.27 236.2"/>
              <polygon class="st4" points="467.11 236.88 467.11 241.11 467.35 241.11 467.35 236.78 460.38 229.81 428.69 229.81 428.69 230.05 460.28 230.05 467.11 236.88"/>
              <polygon class="st7" points="465.72 237.31 465.72 241.11 465.96 241.11 465.96 237.21 459.9 231.16 428.69 231.16 428.69 231.4 459.8 231.4 465.72 237.31"/>
              <polygon class="st7" points="464.81 238.23 464.81 241.11 465.05 241.11 465.05 238.13 459.42 232.5 428.69 232.5 428.69 232.74 459.32 232.74 464.81 238.23"/>
              <polygon class="st7" points="463.65 238.9 463.65 241.11 463.89 241.11 463.89 238.8 458.94 233.85 429.18 233.85 429.18 234.09 458.84 234.09 463.65 238.9"/>
              <path class="st15" d="M477.77,107.18h-32.24l-15.13,15.13h-4.23l-7.2,7.2v5.24l-17.1,17.1h-24.46l-17.42,17.42c-.33.33-.49.76-.49,1.19s.16.86.49,1.19c.66.66,1.72.66,2.38,0l16.44-16.44h24.46l19.07-19.07v-5.24l5.23-5.23h4.23l15.13-15.13h30.85v-3.36ZM361.42,171.2c-.53,0-.96-.43-.96-.96s.43-.96.96-.96.96.43.96.96-.43.96-.96.96Z"/>
              <path class="st7" d="M378.19,292.88v-38.19l-19.48-19.48v-18.01l-23.65-23.65c-.66-.66-1.72-.66-2.38,0-.33.33-.49.76-.49,1.19s.16.86.49,1.19l22.66,22.66v18.01l19.48,19.48v36.8c0,.93.75,1.68,1.68,1.68s1.68-.75,1.68-1.68ZM333.28,195.07c0-.53.43-.96.96-.96s.96.43.96.96-.43.96-.96.96-.96-.43-.96-.96ZM375.55,292.84c0-.53.43-.96.96-.96s.96.43.96.96-.43.96-.96.96-.96-.43-.96-.96Z"/>
            </g>
            <g>
              <path class="st15" d="M480.55,108.77c0-1.7-1.38-3.08-3.08-3.08s-3.09,1.38-3.09,3.08,1.38,3.09,3.09,3.09,3.08-1.38,3.08-3.09Z"/>
              <path class="st7" d="M404.25,90.12c-.27,0-.49.22-.49.49s.22.49.49.49.49-.22.49-.49-.22-.49-.49-.49Z"/>
              <path class="st7" d="M406.31,90.12c-.27,0-.49.22-.49.49s.22.49.49.49.49-.22.49-.49-.22-.49-.49-.49Z"/>
              <path class="st7" d="M408.41,90.12c-.27,0-.49.22-.49.49s.22.49.49.49.49-.22.49-.49-.22-.49-.49-.49Z"/>
              <path class="st7" d="M410.16,90.12c-.27,0-.49.22-.49.49s.22.49.49.49.49-.22.49-.49-.22-.49-.49-.49Z"/>
              <path class="st7" d="M412.58,90.12c-.27,0-.49.22-.49.49s.22.49.49.49.49-.22.49-.49-.22-.49-.49-.49Z"/>
              <path class="st7" d="M428.83,87.35c-.27,0-.49.22-.49.49s.22.49.49.49.49-.22.49-.49-.22-.49-.49-.49Z"/>
              <path class="st7" d="M428.83,89.77c-.27,0-.49.22-.49.49s.22.49.49.49.49-.22.49-.49-.22-.49-.49-.49Z"/>
              <path class="st7" d="M471.24,100c-.27,0-.49.22-.49.49s.22.49.49.49.49-.22.49-.49-.22-.49-.49-.49Z"/>
              <path class="st7" d="M471.24,101.39c-.27,0-.49.22-.49.49s.22.49.49.49.49-.22.49-.49-.22-.49-.49-.49Z"/>
              <path class="st7" d="M489.29,156.91c-.27,0-.49.22-.49.49s.22.49.49.49.49-.22.49-.49-.22-.49-.49-.49Z"/>
              <path class="st7" d="M489.29,164.16c-.27,0-.49.22-.49.49s.22.49.49.49.49-.22.49-.49-.22-.49-.49-.49Z"/>
              <path class="st7" d="M515.46,192.08c-.27,0-.49.22-.49.49s.22.49.49.49.49-.22.49-.49-.22-.49-.49-.49Z"/>
              <path class="st7" d="M515.46,193.93c-.27,0-.49.22-.49.49s.22.49.49.49.49-.22.49-.49-.22-.49-.49-.49Z"/>
              <path class="st7" d="M512.84,199.85c-.27,0-.49.22-.49.49s.22.49.49.49.49-.22.49-.49-.22-.49-.49-.49Z"/>
              <path class="st7" d="M511.19,199.85c-.27,0-.49.22-.49.49s.22.49.49.49.49-.22.49-.49-.22-.49-.49-.49Z"/>
              <path class="st7" d="M494.07,223.4c-.27,0-.49.22-.49.49s.22.49.49.49.49-.22.49-.49-.22-.49-.49-.49Z"/>
              <path class="st7" d="M492.89,223.4c-.27,0-.49.22-.49.49s.22.49.49.49.49-.22.49-.49-.22-.49-.49-.49Z"/>
              <path class="st7" d="M491.14,223.4c-.27,0-.49.22-.49.49s.22.49.49.49.49-.22.49-.49-.22-.49-.49-.49Z"/>
              <path class="st7" d="M469.5,240.72c-.27,0-.49.22-.49.49s.22.49.49.49.49-.22.49-.49-.22-.49-.49-.49Z"/>
              <circle class="st7" cx="468.36" cy="241.21" r=".49"/>
              <path class="st7" d="M467.18,240.72c-.27,0-.49.22-.49.49s.22.49.49.49.49-.22.49-.49-.22-.49-.49-.49Z"/>
              <path class="st7" d="M465.95,240.72c-.27,0-.49.22-.49.49s.22.49.49.49.49-.22.49-.49-.22-.49-.49-.49Z"/>
              <path class="st7" d="M464.97,240.72c-.27,0-.49.22-.49.49s.22.49.49.49.49-.22.49-.49-.22-.49-.49-.49Z"/>
              <path class="st7" d="M463.79,240.72c-.27,0-.49.22-.49.49s.22.49.49.49.49-.22.49-.49-.22-.49-.49-.49Z"/>
              <path class="st7" d="M413.4,261.91c-.27,0-.49.22-.49.49s.22.49.49.49.49-.22.49-.49-.22-.49-.49-.49Z"/>
              <circle class="st7" cx="412.37" cy="262.4" r=".49"/>
              <circle class="st7" cx="398.44" cy="275.35" r=".49"/>
              <path class="st7" d="M397.26,274.86c-.27,0-.49.22-.49.49s.22.49.49.49.49-.22.49-.49-.22-.49-.49-.49Z"/>
              <path class="st7" d="M396.02,274.86c-.27,0-.49.22-.49.49s.22.49.49.49.49-.22.49-.49-.22-.49-.49-.49Z"/>
            </g>
          </g>
          <g>
            <g>
              <rect class="st4" x="444.48" y="255.04" width=".09" height="5.8"/>
              <rect class="st4" x="444.48" y="255.04" width=".09" height="5.8" transform="translate(702.46 -186.58) rotate(90)"/>
            </g>
            <g>
              <rect class="st7" x="457.25" y="255.04" width=".09" height="5.8"/>
              <rect class="st7" x="457.25" y="255.04" width=".09" height="5.8" transform="translate(715.23 -199.36) rotate(90)"/>
            </g>
            <g>
              <rect class="st4" x="470.03" y="255.04" width=".09" height="5.8"/>
              <rect class="st4" x="470.03" y="255.04" width=".09" height="5.8" transform="translate(728.01 -212.13) rotate(90)"/>
            </g>
            <g>
              <rect class="st15" x="482.81" y="255.04" width=".09" height="5.8"/>
              <rect class="st15" x="482.81" y="255.04" width=".09" height="5.8" transform="translate(740.79 -224.91) rotate(90)"/>
            </g>
            <g>
              <rect class="st4" x="444.48" y="242.78" width=".09" height="5.8"/>
              <rect class="st4" x="444.48" y="242.78" width=".09" height="5.8" transform="translate(690.2 -198.84) rotate(90)"/>
            </g>
            <g>
              <rect class="st15" x="457.25" y="242.78" width=".09" height="5.8"/>
              <rect class="st15" x="457.25" y="242.78" width=".09" height="5.8" transform="translate(702.98 -211.61) rotate(90)"/>
            </g>
            <g>
              <rect class="st4" x="470.03" y="242.78" width=".09" height="5.8"/>
              <rect class="st4" x="470.03" y="242.78" width=".09" height="5.8" transform="translate(715.75 -224.39) rotate(90)"/>
            </g>
            <g>
              <rect class="st7" x="482.81" y="242.78" width=".09" height="5.8"/>
              <rect class="st7" x="482.81" y="242.78" width=".09" height="5.8" transform="translate(728.53 -237.17) rotate(90)"/>
            </g>
            <g>
              <rect class="st7" x="444.48" y="230.52" width=".09" height="5.8"/>
              <rect class="st7" x="444.48" y="230.52" width=".09" height="5.8" transform="translate(677.94 -211.1) rotate(90)"/>
            </g>
            <g>
              <rect class="st7" x="457.25" y="230.52" width=".09" height="5.8"/>
              <rect class="st7" x="457.25" y="230.52" width=".09" height="5.8" transform="translate(690.72 -223.87) rotate(90)"/>
            </g>
            <g>
              <rect class="st15" x="470.03" y="230.52" width=".09" height="5.8"/>
              <rect class="st15" x="470.03" y="230.52" width=".09" height="5.8" transform="translate(703.5 -236.65) rotate(90)"/>
            </g>
            <g>
              <rect class="st4" x="482.81" y="230.52" width=".09" height="5.8"/>
              <rect class="st4" x="482.81" y="230.52" width=".09" height="5.8" transform="translate(716.27 -249.43) rotate(90)"/>
            </g>
            <g>
              <rect class="st7" x="444.48" y="218.26" width=".09" height="5.8"/>
              <rect class="st7" x="444.48" y="218.26" width=".09" height="5.8" transform="translate(665.69 -223.35) rotate(90)"/>
            </g>
            <g>
              <rect class="st4" x="457.25" y="218.26" width=".09" height="5.8"/>
              <rect class="st4" x="457.25" y="218.26" width=".09" height="5.8" transform="translate(678.46 -236.13) rotate(90)"/>
            </g>
            <g>
              <rect class="st7" x="470.03" y="218.26" width=".09" height="5.8"/>
              <rect class="st7" x="470.03" y="218.26" width=".09" height="5.8" transform="translate(691.24 -248.91) rotate(90)"/>
            </g>
            <g>
              <rect class="st4" x="482.81" y="218.26" width=".09" height="5.8"/>
              <rect class="st4" x="482.81" y="218.26" width=".09" height="5.8" transform="translate(704.02 -261.68) rotate(90)"/>
            </g>
          </g>
          <g>
            <path class="st5" d="M400.17,216.2c0-1.18-.96-2.14-2.14-2.14s-2.14.96-2.14,2.14.96,2.14,2.14,2.14,2.14-.96,2.14-2.14Z"/>
            <path class="st4" d="M399.68,209.11c0-.91-.74-1.65-1.65-1.65s-1.65.74-1.65,1.65.74,1.65,1.65,1.65,1.65-.74,1.65-1.65Z"/>
            <path class="st4" d="M406.75,223.29c0-.9-.73-1.63-1.63-1.63s-1.63.73-1.63,1.63.73,1.63,1.63,1.63,1.63-.73,1.63-1.63Z"/>
            <path class="st4" d="M406.86,216.2c0-.97-.78-1.75-1.75-1.75s-1.75.78-1.75,1.75.78,1.75,1.75,1.75,1.75-.78,1.75-1.75Z"/>
            <path class="st4" d="M406.43,209.11c0-.73-.59-1.32-1.32-1.32s-1.32.59-1.32,1.32.59,1.32,1.32,1.32,1.32-.59,1.32-1.32Z"/>
            <path class="st5" d="M406.55,202.03c0-.79-.65-1.43-1.44-1.43s-1.43.64-1.43,1.43.64,1.44,1.43,1.44,1.44-.64,1.44-1.44Z"/>
            <path class="st5" d="M414.32,223.29c0-1.17-.95-2.12-2.12-2.12s-2.12.95-2.12,2.12.95,2.12,2.12,2.12,2.12-.95,2.12-2.12Z"/>
            <path class="st5" d="M414.44,216.2c0-1.24-1-2.24-2.24-2.24s-2.24,1-2.24,2.24,1,2.24,2.24,2.24,2.24-1,2.24-2.24Z"/>
            <path class="st5" d="M413.55,209.11c0-.75-.6-1.35-1.35-1.35s-1.35.61-1.35,1.35.6,1.36,1.35,1.36,1.35-.61,1.35-1.36Z"/>
            <path class="st4" d="M413.64,202.03c0-.79-.65-1.43-1.44-1.43s-1.44.64-1.44,1.43.64,1.44,1.44,1.44,1.44-.64,1.44-1.44Z"/>
            <path class="st4" d="M420.11,223.29c0-.46-.37-.83-.82-.83s-.83.37-.83.83.37.83.83.83.82-.37.82-.83Z"/>
            <path class="st4" d="M420.82,216.2c0-.85-.69-1.53-1.53-1.53s-1.53.69-1.53,1.53.69,1.53,1.53,1.53,1.53-.69,1.53-1.53Z"/>
            <path class="st5" d="M421.11,209.11c0-1.01-.82-1.83-1.83-1.83s-1.83.82-1.83,1.83.82,1.83,1.83,1.83,1.83-.82,1.83-1.83Z"/>
            <path class="st5" d="M421.19,202.03c0-1.05-.85-1.9-1.91-1.9s-1.91.85-1.91,1.9.85,1.91,1.91,1.91,1.91-.85,1.91-1.91Z"/>
            <path class="st5" d="M427.9,216.2c0-.85-.69-1.53-1.53-1.53s-1.53.69-1.53,1.53.69,1.53,1.53,1.53,1.53-.69,1.53-1.53Z"/>
            <path class="st4" d="M428.2,209.11c0-1.01-.82-1.83-1.83-1.83s-1.83.82-1.83,1.83.82,1.83,1.83,1.83,1.83-.82,1.83-1.83Z"/>
          </g>
          <g class="st2">
            <path class="st6" d="M392.43,73.16c.07-.18.1-.37.1-.6,0-.27-.05-.5-.16-.72-.1-.21-.26-.38-.46-.49-.2-.12-.42-.18-.67-.18s-.47.06-.66.17c-.2.11-.35.28-.46.5-.11.22-.16.46-.16.72s.05.5.16.72c.11.21.26.38.46.49.2.12.42.18.66.18s.46-.06.66-.17c.19.15.38.26.58.33l.1-.25c-.14-.05-.29-.14-.46-.25.14-.13.24-.28.3-.46ZM391.85,73.43c-.13-.11-.3-.2-.51-.26l-.09.26c.12.03.24.08.35.15-.11.05-.23.07-.36.07-.27,0-.49-.09-.66-.28-.17-.19-.26-.45-.26-.8s.09-.63.26-.81c.17-.18.39-.27.66-.27.18,0,.34.04.48.13.14.09.25.22.32.38.07.16.11.35.11.57,0,.38-.1.67-.31.86Z"/>
            <path class="st6" d="M397.28,71.85h-.21l-.29.38c-.04.06-.08.11-.11.16-.02-.04-.06-.1-.12-.18l-.26-.37h-.23l.49.69-.55.74h.23l.36-.5s.04-.05.07-.1c.02.03.04.06.06.09l.36.51h.23l-.54-.75.5-.68Z"/>
            <polygon class="st4" points="418.57 72.44 417.83 72.44 417.83 71.85 417.64 71.85 417.64 73.29 417.83 73.29 417.83 72.61 418.57 72.61 418.57 73.29 418.76 73.29 418.76 71.85 418.57 71.85 418.57 72.44"/>
            <path class="st4" d="M386.4,78.64c0,.21-.02.36-.05.45-.03.1-.09.17-.18.22-.09.05-.19.08-.31.08-.16,0-.29-.05-.38-.15-.09-.1-.14-.29-.16-.56l-.43.06c0,.36.07.63.24.81.17.18.41.27.73.27.21,0,.4-.04.56-.13.16-.09.27-.21.35-.38.07-.17.11-.4.11-.7v-2.46h-.48v2.49Z"/>
            <path class="st6" d="M418.27,78.28c-.03.08-.06.16-.08.23-.02-.07-.05-.15-.08-.23l-.37-1.04h-.21l.56,1.44h.2l.56-1.44h-.19l-.39,1.04Z"/>
            <path class="st6" d="M418.36,83.04c-.06.09-.11.18-.16.26-.05-.08-.09-.16-.15-.24l-.28-.43h-.23l.55.83v.61h.19v-.61l.57-.83h-.22l-.28.42Z"/>
            <path class="st7" d="M359.79,90.1c-.21.17-.46.26-.76.26-.25,0-.48-.06-.69-.19-.21-.13-.37-.32-.47-.58-.1-.26-.15-.56-.15-.9,0-.27.04-.53.13-.78.08-.25.23-.45.44-.6.21-.15.47-.22.78-.22.27,0,.49.07.67.2.18.13.31.35.41.64l.53-.13c-.11-.37-.3-.67-.58-.87-.28-.21-.62-.31-1.02-.31-.36,0-.68.08-.98.25-.3.16-.53.4-.69.72-.16.31-.24.68-.24,1.1,0,.39.07.75.21,1.09.14.34.35.6.62.77.27.18.63.27,1.07.27s.78-.11,1.07-.35c.29-.23.49-.57.61-1.01l-.54-.14c-.07.34-.21.6-.42.77Z"/>
            <path class="st6" d="M407.66,88.29c-.09.14-.17.27-.24.38-.07-.12-.14-.24-.22-.36l-.42-.65h-.34l.82,1.23v.9h.28v-.9l.85-1.23h-.33l-.41.63Z"/>
            <path class="st6" d="M412.55,87.18l-1.18,3.08h.43l.34-.93h1.29l.36.93h.47l-1.26-3.08h-.44ZM412.26,89l.34-.9c.07-.19.13-.39.17-.59.05.17.12.38.22.64l.32.85h-1.04Z"/>
            <polygon class="st4" points="419.02 89.6 417.4 87.18 416.98 87.18 416.98 90.27 417.38 90.27 417.38 87.84 418.99 90.27 419.41 90.27 419.41 87.18 419.02 87.18 419.02 89.6"/>
            <path class="st6" d="M423.68,89.15c-.04.1-.07.21-.1.31-.03-.1-.06-.2-.1-.31l-.49-1.37h-.27l.73,1.88h.26l.73-1.88h-.26l-.51,1.37Z"/>
            <path class="st7" d="M359.98,92.28c-.3-.18-.64-.27-1.01-.27-.57,0-1.04.19-1.4.57-.36.38-.54.91-.54,1.58,0,.36.08.69.23,1.01.16.32.38.57.68.75.3.18.64.28,1.02.28.35,0,.68-.08.98-.25.3-.17.54-.41.71-.74.17-.32.25-.69.25-1.1s-.08-.77-.24-1.09c-.16-.32-.39-.57-.69-.75ZM359.96,95.32c-.26.28-.59.43-1,.43s-.73-.14-.99-.42c-.26-.28-.39-.67-.39-1.16,0-.61.14-1.05.41-1.31.27-.26.6-.39.98-.39.27,0,.51.07.72.2.21.13.38.33.49.57.11.25.17.53.17.86,0,.52-.13.92-.39,1.21Z"/>
            <path class="st7" d="M393.33,91.72h-.69l-.96,1.27c-.14.19-.27.37-.37.54-.08-.14-.21-.33-.38-.58l-.87-1.22h-.75l1.63,2.3-1.85,2.47h.76l1.21-1.65c.05-.06.12-.18.23-.34.06.1.13.2.2.29l1.21,1.7h.78l-1.79-2.5,1.66-2.27Z"/>
            <polygon class="st7" points="403.09 93.75 401 93.75 401 92.08 400.46 92.08 400.46 96.14 401 96.14 401 94.23 403.09 94.23 403.09 96.14 403.63 96.14 403.63 92.08 403.09 92.08 403.09 93.75"/>
            <path class="st7" d="M408.04,94.92c0,.24-.02.42-.06.54-.04.11-.11.2-.21.27-.1.07-.23.1-.37.1-.19,0-.34-.06-.45-.18-.11-.12-.17-.34-.18-.67l-.51.07c0,.43.09.75.29.96.2.22.49.32.87.32.25,0,.47-.05.66-.15.19-.1.33-.25.41-.45.09-.2.13-.47.13-.83v-2.92h-.57v2.95Z"/>
            <path class="st7" d="M411.97,95.54l2.58-3.19v-.54h-3.29v.54h2.57c-.15.16-.31.34-.48.55l-2.36,2.95v.57h3.64v-.54h-2.94l.28-.32Z"/>
            <rect class="st7" x="417.89" y="91.81" width=".61" height="4.6"/>
            <path class="st7" d="M424.27,93.99c.17-.08.29-.19.38-.33.08-.14.12-.28.12-.44,0-.16-.05-.32-.14-.48-.09-.15-.22-.26-.39-.34-.17-.07-.39-.11-.66-.11h-1.35v3.61h1.38c.23,0,.42-.02.58-.06.16-.04.29-.1.4-.18.1-.08.19-.19.26-.34.07-.14.11-.3.11-.47,0-.21-.06-.39-.17-.55-.12-.15-.28-.26-.5-.33ZM422.7,92.73h.72c.26,0,.44.02.55.05.11.03.19.1.25.19.06.09.09.2.09.32,0,.13-.03.23-.09.32-.06.08-.15.14-.27.18-.09.03-.24.04-.46.04h-.78v-1.09ZM424.38,95.17c-.05.09-.11.15-.18.2-.07.05-.16.08-.28.1-.06.01-.17.02-.32.02h-.9v-1.24h.84c.23,0,.41.02.53.06.12.04.22.11.29.21.07.1.1.22.1.35,0,.12-.02.22-.07.3Z"/>
            <polygon class="st4" points="360.13 98.01 359.6 98.01 358.14 99.48 358.14 98.01 357.74 98.01 357.74 100.97 358.14 100.97 358.14 99.95 358.62 99.48 359.67 100.97 360.19 100.97 358.89 99.22 360.13 98.01"/>
            <path class="st7" d="M374.63,161.24c0,.2-.02.34-.05.43-.03.09-.09.16-.17.21-.08.05-.18.08-.29.08-.15,0-.27-.05-.36-.14-.09-.1-.14-.27-.15-.53l-.41.06c0,.34.07.6.23.77.16.17.39.26.69.26.2,0,.38-.04.53-.12.15-.08.26-.2.33-.36.07-.16.1-.38.1-.67v-2.33h-.45v2.36Z"/>
            <polygon class="st4" points="428.18 77.97 426.04 77.97 426.04 76.27 425.49 76.27 425.49 80.41 426.04 80.41 426.04 78.46 428.18 78.46 428.18 80.41 428.73 80.41 428.73 76.27 428.18 76.27 428.18 77.97"/>
            <path class="st4" d="M434.62,85.46h1.26v.8c-.12.11-.3.21-.53.3-.23.09-.47.14-.72.14-.28,0-.55-.06-.8-.19-.25-.12-.44-.32-.58-.57-.13-.26-.2-.58-.2-.96,0-.31.06-.6.16-.86.06-.15.15-.3.27-.42.11-.13.27-.23.46-.31.19-.08.41-.12.67-.12.22,0,.41.04.59.11.18.07.31.17.41.3.1.12.18.3.24.51l.51-.14c-.07-.29-.18-.52-.32-.7-.14-.18-.34-.32-.59-.42-.25-.1-.53-.15-.84-.15-.43,0-.8.09-1.13.26-.33.17-.58.44-.75.81-.17.36-.26.75-.26,1.17s.09.8.26,1.14c.18.34.43.6.78.78.35.18.73.27,1.15.27.31,0,.61-.06.91-.17.3-.11.58-.28.86-.5v-1.59h-1.82v.51Z"/>
            <path class="st4" d="M414.06,97.45c-.15-.11-.34-.18-.57-.21-.16-.03-.39-.04-.7-.04h-1.74v4.6h.61v-1.87h1.18c.65,0,1.1-.14,1.35-.41.25-.27.37-.6.37-.99,0-.23-.05-.44-.14-.63-.09-.19-.22-.34-.37-.44ZM413.69,99.16c-.17.15-.44.22-.84.22h-1.19v-1.64h1.18c.28,0,.46.01.57.04.16.04.29.13.38.27.1.14.15.3.15.5,0,.27-.08.47-.25.62Z"/>
            <path class="st7" d="M424.1,100.18c0,.21-.02.36-.05.45-.03.09-.09.17-.18.22-.09.06-.19.08-.31.08-.16,0-.29-.05-.38-.15-.09-.1-.14-.29-.16-.56l-.43.06c0,.36.07.63.24.81.17.18.41.27.73.27.21,0,.4-.04.56-.13.16-.09.27-.21.35-.38.07-.17.11-.4.11-.7v-2.46h-.48v2.49Z"/>
            <polygon class="st4" points="347.08 106.54 347.52 106.54 347.52 105.03 349.07 105.03 349.07 104.64 347.52 104.64 347.52 103.61 349.31 103.61 349.31 103.22 347.08 103.22 347.08 106.54"/>
            <path class="st7" d="M353.98,104.14c-.15.24-.29.45-.4.64-.11-.21-.24-.41-.37-.61l-.71-1.09h-.58l1.39,2.08v1.53h.48v-1.53l1.44-2.08h-.56l-.7,1.06Z"/>
            <polygon class="st7" points="357.75 106.68 358.23 106.68 358.23 105.04 359.92 105.04 359.92 104.62 358.23 104.62 358.23 103.5 360.18 103.5 360.18 103.07 357.75 103.07 357.75 106.68"/>
            <path class="st7" d="M402.63,105.66c0,.24-.02.41-.06.52-.04.11-.11.19-.21.26-.1.06-.22.09-.36.09-.19,0-.33-.06-.44-.17-.11-.12-.16-.33-.18-.65l-.49.07c0,.41.08.72.28.93.19.21.47.31.83.31.24,0,.46-.05.64-.15.18-.1.32-.25.4-.44.08-.19.13-.46.13-.8v-2.82h-.55v2.85Z"/>
            <polygon class="st6" points="408.49 103.54 408.01 103.54 406.68 104.87 406.68 103.54 406.32 103.54 406.32 106.22 406.68 106.22 406.68 105.29 407.11 104.87 408.07 106.22 408.54 106.22 407.36 104.63 408.49 103.54"/>
            <polygon class="st7" points="411.46 103.57 412.58 103.57 412.58 106.59 413.04 106.59 413.04 103.57 414.17 103.57 414.17 103.17 411.46 103.17 411.46 103.57"/>
            <path class="st7" d="M419.4,105.37c-.07.28-.12.53-.17.74-.06-.38-.15-.78-.27-1.21l-.49-1.73h-.55l-.65,2.31c-.02.06-.07.27-.15.63-.04-.23-.09-.47-.15-.7l-.52-2.24h-.46l.91,3.42h.46l.72-2.61c.03-.11.06-.24.1-.4.01.05.05.18.11.4l.72,2.61h.44l.94-3.42h-.45l-.54,2.2Z"/>
            <path class="st6" d="M424.01,104.83c-.08-.03-.21-.07-.42-.12-.2-.05-.33-.09-.38-.13-.05-.04-.07-.1-.07-.17,0-.08.03-.14.1-.2.07-.06.18-.08.33-.08s.25.03.33.09c.07.06.12.15.13.27l.24-.02c0-.11-.03-.21-.09-.3-.06-.09-.14-.15-.25-.2-.11-.05-.23-.07-.37-.07-.13,0-.24.02-.35.06-.1.04-.18.11-.24.19-.05.08-.08.17-.08.27,0,.09.02.16.06.23.04.07.11.13.2.18.07.04.19.08.36.12.17.04.28.07.34.09.08.03.14.07.17.11.03.04.05.1.05.16s-.02.11-.05.16c-.04.05-.09.09-.16.12-.07.03-.16.04-.25.04-.11,0-.2-.02-.29-.06-.08-.04-.15-.09-.19-.15-.04-.06-.07-.14-.08-.23l-.23.02c0,.13.04.24.1.34.06.1.16.17.27.22.12.05.26.07.43.07.13,0,.25-.02.36-.07.11-.05.19-.12.25-.21.06-.09.09-.18.09-.28s-.03-.19-.08-.27c-.05-.08-.13-.14-.24-.19Z"/>
            <path class="st6" d="M348.86,110.19c-.12-.05-.34-.12-.66-.19-.32-.07-.51-.14-.59-.21-.08-.07-.11-.16-.11-.26,0-.12.05-.23.16-.31.11-.09.28-.13.52-.13s.4.05.52.14c.12.1.18.24.2.43l.38-.03c0-.17-.05-.33-.15-.47-.09-.14-.22-.24-.39-.31-.17-.07-.36-.11-.58-.11-.2,0-.38.03-.54.1-.16.07-.29.17-.37.3-.09.13-.13.27-.13.42,0,.14.03.26.1.37.07.11.17.2.31.28.11.06.3.12.57.18.27.06.45.11.53.14.13.05.21.11.27.17.05.07.08.15.08.24s-.03.18-.08.25c-.06.08-.14.14-.26.18-.11.04-.25.07-.4.07-.17,0-.32-.03-.45-.09-.14-.06-.23-.13-.3-.23-.06-.09-.1-.22-.12-.36l-.37.03c0,.2.06.38.16.53.1.16.24.27.43.35.18.08.41.12.67.12.21,0,.4-.04.57-.12.17-.08.3-.19.39-.32.09-.14.13-.29.13-.45s-.04-.3-.12-.42c-.08-.12-.21-.22-.38-.3Z"/>
            <path class="st7" d="M386.87,108.66c-.12-.08-.27-.14-.45-.17-.13-.02-.31-.03-.55-.03h-1.36v3.61h.48v-1.47h.93c.51,0,.86-.11,1.06-.32.2-.21.29-.47.29-.78,0-.18-.04-.34-.11-.49-.07-.15-.17-.27-.29-.35ZM386.58,110c-.13.11-.35.17-.66.17h-.93v-1.29h.92c.22,0,.37.01.45.03.12.03.22.11.3.21.08.11.12.24.12.39,0,.21-.07.37-.2.49Z"/>
            <path class="st6" d="M391.66,110.5s-.11-.08-.2-.12c.23-.03.41-.11.52-.23.11-.12.17-.27.17-.44,0-.13-.04-.26-.1-.37-.07-.11-.16-.19-.28-.24-.11-.05-.28-.07-.5-.07h-1.09v2.47h.33v-1.1h.38c.08,0,.14,0,.18.01.05.01.1.03.15.07.05.03.1.09.17.17.06.08.14.19.23.34l.33.51h.41l-.43-.67c-.09-.13-.18-.24-.27-.33ZM391.22,110.12h-.7v-.82h.78c.18,0,.32.04.4.11.08.08.13.17.13.29,0,.08-.02.15-.07.22-.04.07-.11.12-.19.15-.08.03-.2.05-.35.05Z"/>
            <path class="st6" d="M397.99,110.95c.08-.2.12-.43.12-.68,0-.31-.06-.58-.18-.82-.12-.24-.29-.43-.52-.57-.23-.14-.48-.2-.77-.2s-.54.06-.77.2c-.23.13-.4.32-.53.57-.12.25-.18.53-.18.83s.06.58.18.82c.12.24.3.43.52.57.23.13.48.2.76.2s.53-.06.76-.19c.22.17.44.3.66.38l.12-.28c-.16-.06-.33-.16-.52-.29.16-.15.27-.33.35-.53ZM397.32,111.25c-.15-.13-.35-.23-.58-.3l-.1.3c.14.04.28.09.4.18-.13.05-.27.08-.41.08-.31,0-.56-.11-.76-.32-.2-.21-.3-.52-.3-.92s.1-.73.3-.93c.2-.21.45-.31.76-.31.2,0,.39.05.55.15.16.1.29.25.37.43.09.19.13.4.13.65,0,.44-.12.77-.36.99Z"/>
            <rect class="st6" x="401.84" y="108.72" width=".41" height="3.08"/>
            <polygon class="st6" points="407.81 110.67 407.06 109.54 406.86 109.54 406.86 110.98 407.05 110.98 407.05 109.85 407.8 110.98 407.99 110.98 407.99 109.54 407.81 109.54 407.81 110.67"/>
            <path class="st6" d="M427.38,136.83c-.03.08-.06.16-.08.24-.02-.07-.05-.15-.08-.24l-.37-1.04h-.21l.55,1.44h.2l.56-1.44h-.19l-.39,1.04Z"/>
            <polygon class="st6" points="417.85 110.32 418.65 110.32 418.65 110.15 417.85 110.15 417.85 109.71 418.7 109.71 418.7 109.54 417.66 109.54 417.66 110.98 418.73 110.98 418.73 110.81 417.85 110.81 417.85 110.32"/>
            <path class="st6" d="M386.93,116.07c-.06.24-.11.46-.15.64-.05-.33-.13-.68-.23-1.05l-.42-1.5h-.47l-.56,2s-.06.23-.13.54c-.03-.2-.08-.4-.13-.6l-.45-1.94h-.4l.79,2.96h.4l.62-2.25c.03-.1.05-.21.09-.35.01.04.04.16.1.35l.62,2.25h.38l.81-2.96h-.39l-.46,1.9Z"/>
            <polygon class="st6" points="392.02 114.71 391.68 114.71 390.75 115.64 390.75 114.71 390.5 114.71 390.5 116.59 390.75 116.59 390.75 115.94 391.05 115.64 391.72 116.59 392.05 116.59 391.23 115.47 392.02 114.71"/>
            <polygon class="st6" points="402.43 116.06 401.67 114.93 401.48 114.93 401.48 116.37 401.66 116.37 401.66 115.24 402.41 116.37 402.61 116.37 402.61 114.93 402.43 114.93 402.43 116.06"/>
            <rect class="st6" x="407.33" y="114.93" width=".19" height="1.44"/>
            <path class="st6" d="M413.08,115.6c.07-.03.12-.08.15-.13.03-.05.05-.11.05-.17,0-.07-.02-.13-.06-.19-.04-.06-.09-.11-.15-.14-.07-.03-.15-.04-.26-.04h-.54v1.44h.55c.09,0,.17,0,.23-.02.06-.02.12-.04.16-.07.04-.03.08-.08.1-.13.03-.06.04-.12.04-.19,0-.08-.02-.16-.07-.22-.05-.06-.11-.11-.2-.13ZM412.46,115.1h.29c.1,0,.18,0,.22.02.04.01.07.04.1.08.02.04.03.08.03.13s-.01.09-.04.12c-.02.03-.06.06-.11.07-.04.01-.1.02-.18.02h-.31v-.43ZM413.13,116.07s-.04.06-.07.08c-.03.02-.06.03-.11.04-.02,0-.07,0-.13,0h-.36v-.49h.33c.09,0,.16,0,.21.02.05.02.09.04.11.08.03.04.04.09.04.14,0,.05,0,.09-.03.12Z"/>
            <path class="st6" d="M418.82,114.93h-.21l-.29.38c-.04.06-.08.11-.11.16-.02-.04-.06-.1-.12-.18l-.26-.37h-.23l.49.69-.56.74h.23l.36-.5s.04-.05.07-.1c.02.03.04.06.06.09l.36.51h.23l-.54-.75.5-.68Z"/>
            <path class="st6" d="M384.91,164.61c-.07.06-.16.09-.27.09-.09,0-.17-.02-.24-.07-.07-.05-.13-.11-.16-.2-.04-.09-.05-.2-.05-.32,0-.09.02-.19.05-.28.03-.09.08-.16.16-.21.07-.05.17-.08.28-.08.1,0,.17.02.24.07.06.05.11.12.14.23l.19-.04c-.04-.13-.11-.24-.2-.31-.1-.07-.22-.11-.36-.11-.13,0-.24.03-.35.09-.11.06-.19.14-.24.25-.06.11-.09.24-.09.39,0,.14.03.26.08.38.05.12.13.21.22.28.1.06.22.1.38.1s.28-.04.38-.12c.1-.08.17-.2.21-.36l-.19-.05c-.03.12-.08.21-.15.27Z"/>
            <path class="st7" d="M386.07,121.81c-.07.19-.13.37-.18.56-.05-.17-.11-.36-.18-.56l-.89-2.49h-.49l1.32,3.42h.47l1.34-3.42h-.46l-.92,2.49Z"/>
            <polygon class="st6" points="390.53 120.32 391.15 120.32 391.15 121.97 391.4 121.97 391.4 120.32 392.02 120.32 392.02 120.09 390.53 120.09 390.53 120.32"/>
            <rect class="st6" x="396.53" y="120.09" width=".25" height="1.88"/>
            <path class="st6" d="M402.35,121.44c0,.12,0,.21-.03.27-.02.06-.06.1-.11.13-.05.03-.11.05-.18.05-.1,0-.17-.03-.22-.09-.06-.06-.09-.17-.09-.33l-.25.04c0,.21.04.37.14.48.1.11.24.16.43.16.13,0,.24-.03.33-.08.09-.05.16-.13.21-.22.04-.1.06-.24.06-.41v-1.45h-.28v1.47Z"/>
            <polygon class="st6" points="408 120.32 407.74 120.32 407.02 121.03 407.02 120.32 406.83 120.32 406.83 121.75 407.02 121.75 407.02 121.25 407.26 121.03 407.77 121.75 408.02 121.75 407.39 120.9 408 120.32"/>
            <polygon class="st6" points="412.56 120.32 412.37 120.32 412.37 121.75 413.26 121.75 413.26 121.58 412.56 121.58 412.56 120.32"/>
            <path class="st4" d="M386.46,126.76c-.06-.06-.16-.12-.29-.18.35-.05.6-.16.77-.34.17-.18.25-.39.25-.65,0-.2-.05-.38-.15-.54-.1-.16-.23-.28-.4-.34-.17-.07-.41-.1-.73-.1h-1.6v3.61h.48v-1.6h.55c.12,0,.21,0,.26.02.07.02.15.05.22.1.07.05.15.13.24.24.09.11.2.28.34.5l.48.75h.6l-.62-.98c-.13-.19-.26-.35-.4-.48ZM385.81,126.21h-1.02v-1.2h1.14c.27,0,.46.05.58.16.12.11.19.25.19.42,0,.12-.03.23-.1.33-.06.1-.16.17-.28.21-.12.05-.29.07-.51.07Z"/>
            <polygon class="st7" points="392.4 127.62 390.19 124.31 389.61 124.31 389.61 128.53 390.15 128.53 390.15 125.22 392.36 128.53 392.94 128.53 392.94 124.31 392.4 124.31 392.4 127.62"/>
            <path class="st4" d="M426.84,156.05c.2-.1.34-.23.44-.39.1-.16.15-.33.15-.51,0-.19-.06-.38-.17-.56-.11-.18-.26-.31-.46-.4-.19-.09-.45-.13-.78-.13h-1.58v4.22h1.61c.27,0,.5-.02.68-.07.18-.05.34-.12.46-.21.12-.09.23-.22.31-.39.08-.17.13-.35.13-.55,0-.25-.07-.46-.21-.64-.14-.18-.33-.31-.59-.38ZM425,154.57h.84c.3,0,.52.02.64.06.12.04.22.11.29.22.07.11.1.23.1.37,0,.15-.04.27-.11.37-.07.1-.18.17-.32.21-.11.03-.29.05-.53.05h-.91v-1.28ZM426.97,157.43c-.05.1-.13.18-.21.23-.09.05-.19.09-.32.12-.07.01-.2.02-.38.02h-1.05v-1.45h.98c.27,0,.47.02.62.07.14.05.25.13.34.25.08.11.12.25.12.41,0,.13-.03.25-.08.36Z"/>
            <path class="st6" d="M402.51,125.57c-.14-.08-.29-.13-.47-.13-.27,0-.48.09-.65.27-.17.18-.25.42-.25.73,0,.17.04.32.11.47.07.15.18.26.32.35.14.08.3.13.47.13.16,0,.31-.04.46-.12.14-.08.25-.19.33-.34.08-.15.12-.32.12-.51s-.04-.36-.11-.51c-.07-.15-.18-.26-.32-.34ZM402.5,126.98c-.12.13-.27.2-.46.2s-.34-.07-.46-.2c-.12-.13-.18-.31-.18-.53,0-.28.06-.49.19-.61.13-.12.28-.18.46-.18.12,0,.24.03.34.09.1.06.17.15.23.26.05.11.08.25.08.4,0,.24-.06.43-.18.56Z"/>
            <path class="st6" d="M407.93,126.62c-.03.12-.05.22-.07.31-.02-.16-.06-.33-.11-.51l-.21-.73h-.23l-.27.97s-.03.11-.07.26c-.02-.1-.04-.2-.06-.29l-.22-.94h-.19l.38,1.44h.2l.3-1.09s.03-.1.04-.17c0,.02.02.08.05.17l.3,1.09h.18l.39-1.44h-.19l-.23.92Z"/>
            <path class="st6" d="M431.84,129.62h-.21l-.29.38c-.04.06-.08.11-.11.16-.02-.04-.06-.1-.12-.18l-.26-.37h-.22l.49.69-.55.74h.23l.36-.5s.04-.05.07-.1c.02.03.04.06.06.09l.36.51h.24l-.54-.75.5-.68Z"/>
            <path class="st7" d="M360.52,132.6c.09-.24.14-.5.14-.8,0-.36-.07-.68-.21-.97-.14-.28-.35-.51-.61-.66-.27-.16-.57-.24-.9-.24s-.63.08-.9.23c-.27.15-.47.37-.62.67-.14.29-.22.62-.22.97s.07.68.21.97c.14.29.35.51.62.66.27.16.56.24.89.24s.62-.07.89-.23c.26.2.52.35.78.44l.14-.33c-.19-.07-.39-.18-.61-.34.18-.17.32-.38.41-.62ZM359.74,132.95c-.18-.15-.41-.27-.68-.34l-.12.35c.17.04.32.11.47.21-.15.07-.31.1-.48.1-.36,0-.66-.12-.89-.38-.23-.25-.35-.61-.35-1.08s.12-.85.35-1.09c.23-.24.53-.37.89-.37.24,0,.45.06.65.18.19.12.34.29.44.51.1.22.15.47.15.77,0,.51-.14.9-.42,1.15Z"/>
            <polygon class="st6" points="375.69 131.08 375.43 131.08 374.72 131.8 374.72 131.08 374.53 131.08 374.53 132.52 374.72 132.52 374.72 132.02 374.95 131.8 375.46 132.52 375.71 132.52 375.08 131.67 375.69 131.08"/>
            <polygon class="st6" points="379.6 133.14 379.96 133.14 379.96 131.92 381.21 131.92 381.21 131.61 379.96 131.61 379.96 130.78 381.41 130.78 381.41 130.46 379.6 130.46 379.6 133.14"/>
            <polygon class="st7" points="384.88 131.98 387.2 131.98 387.2 131.48 384.88 131.48 384.88 130.19 387.36 130.19 387.36 129.69 384.31 129.69 384.31 133.91 387.46 133.91 387.46 133.42 384.88 133.42 384.88 131.98"/>
            <polygon class="st7" points="389.76 134.05 390.36 134.05 390.36 132.01 392.46 132.01 392.46 131.47 390.36 131.47 390.36 130.09 392.79 130.09 392.79 129.55 389.76 129.55 389.76 134.05"/>
            <path class="st6" d="M418.17,147.63c0,.27-.05.45-.13.54-.09.1-.24.14-.44.14-.12,0-.22-.02-.31-.07-.08-.05-.14-.12-.18-.2-.03-.09-.05-.22-.05-.41v-1.23h-.28v1.23c0,.23.03.41.08.54.05.13.14.23.27.3.13.07.29.1.49.1s.37-.04.5-.12c.13-.08.21-.18.26-.31.05-.13.07-.3.07-.51v-1.23h-.28v1.23Z"/>
            <path class="st4" d="M364.59,150.47c-.15-.11-.33-.17-.55-.21-.16-.03-.39-.04-.68-.04h-1.69v4.5h.6v-1.83h1.15c.64,0,1.07-.13,1.32-.4.24-.26.36-.59.36-.97,0-.22-.04-.43-.14-.61-.09-.19-.21-.33-.36-.43ZM364.23,152.14c-.16.14-.43.22-.82.22h-1.16v-1.61h1.15c.27,0,.45.01.55.04.16.04.28.13.38.26.1.14.14.3.14.48,0,.26-.08.46-.24.6Z"/>
            <path class="st4" d="M359.95,135.6c-.16-.13-.34-.22-.56-.28-.16-.04-.39-.06-.68-.06h-1.32v3.84h1.38c.23,0,.44-.02.62-.06.18-.04.33-.11.46-.19.13-.08.24-.2.35-.35.11-.15.19-.33.26-.56.07-.23.1-.48.1-.78,0-.34-.05-.65-.15-.91-.1-.27-.25-.49-.45-.66ZM359.93,137.9c-.07.2-.16.36-.28.48-.09.09-.2.15-.34.2-.14.05-.34.07-.59.07h-.82v-2.94h.8c.3,0,.52.03.66.08.19.07.35.22.48.43.13.22.2.53.2.93,0,.29-.03.54-.1.74Z"/>
            <path class="st7" d="M364.73,136.49c-.15.22-.27.43-.38.61-.11-.2-.23-.39-.35-.58l-.68-1.04h-.54l1.32,1.97v1.45h.45v-1.45l1.37-1.97h-.53l-.66,1.01Z"/>
            <polygon class="st6" points="380.99 137.02 380.02 137.02 380.02 136.25 379.77 136.25 379.77 138.13 380.02 138.13 380.02 137.24 380.99 137.24 380.99 138.13 381.24 138.13 381.24 136.25 380.99 136.25 380.99 137.02"/>
            <polygon class="st7" points="384.52 139.21 385.06 139.21 385.06 137.37 386.96 137.37 386.96 136.89 385.06 136.89 385.06 135.64 387.25 135.64 387.25 135.16 384.52 135.16 384.52 139.21"/>
            <path class="st4" d="M402.57,162.4c-.18-.15-.39-.26-.64-.31-.18-.04-.44-.06-.78-.06h-1.5v4.37h1.57c.26,0,.5-.03.7-.07.2-.05.38-.12.52-.22.15-.1.28-.23.4-.4.12-.17.22-.38.3-.64.08-.26.12-.55.12-.88,0-.39-.06-.74-.17-1.04-.11-.3-.29-.55-.52-.75ZM402.55,165.02c-.08.23-.18.42-.32.55-.1.1-.23.17-.39.23-.16.05-.39.08-.68.08h-.93v-3.34h.92c.34,0,.59.03.75.09.21.08.4.25.55.49.15.25.22.6.22,1.05,0,.33-.04.61-.12.84Z"/>
            <path class="st4" d="M397.47,144.4l-1.68,4.37h.61l.48-1.32h1.83l.51,1.32h.66l-1.79-4.37h-.62ZM397.05,146.98l.48-1.28c.1-.28.18-.55.24-.83.07.24.17.54.31.91l.45,1.21h-1.48Z"/>
            <polygon class="st6" points="402.68 136.97 401.4 136.97 401.4 135.95 401.08 135.95 401.08 138.42 401.4 138.42 401.4 137.26 402.68 137.26 402.68 138.42 403.01 138.42 403.01 135.95 402.68 135.95 402.68 136.97"/>
            <path class="st7" d="M414.79,131.22c.08-.04.15-.1.19-.17.04-.07.06-.14.06-.22,0-.08-.02-.16-.07-.24-.05-.08-.11-.13-.2-.17-.08-.04-.19-.05-.33-.05h-.68v1.81h.69c.12,0,.21-.01.29-.03.08-.02.15-.05.2-.09.05-.04.1-.1.13-.17.04-.07.05-.15.05-.24,0-.11-.03-.2-.09-.27-.06-.08-.14-.13-.25-.16ZM414,130.58h.36c.13,0,.22,0,.28.03.05.02.1.05.12.09.03.05.04.1.04.16,0,.06-.02.12-.05.16-.03.04-.08.07-.14.09-.05.01-.12.02-.23.02h-.39v-.55ZM414.85,131.8s-.05.08-.09.1c-.04.02-.08.04-.14.05-.03,0-.09,0-.16,0h-.45v-.62h.42c.12,0,.2.01.26.03.06.02.11.06.14.1.03.05.05.11.05.18,0,.06-.01.11-.04.15Z"/>
            <path class="st7" d="M421.22,125.1c-.15-.09-.31-.13-.49-.13-.28,0-.51.09-.68.28-.18.19-.26.44-.26.77,0,.17.04.34.11.49.08.16.19.28.33.37.15.09.31.13.5.13.17,0,.33-.04.48-.12.15-.08.26-.2.34-.36.08-.16.12-.34.12-.54s-.04-.37-.12-.53c-.08-.16-.19-.28-.33-.36ZM421.2,126.58c-.13.14-.29.21-.48.21s-.35-.07-.48-.2c-.13-.14-.19-.32-.19-.56,0-.3.07-.51.2-.64.13-.13.29-.19.48-.19.13,0,.25.03.35.1.1.07.18.16.24.28.05.12.08.26.08.42,0,.25-.06.45-.19.59Z"/>
            <polygon class="st7" points="445.04 98.17 443.85 98.17 443.85 97.23 443.54 97.23 443.54 99.53 443.85 99.53 443.85 98.45 445.04 98.45 445.04 99.53 445.35 99.53 445.35 97.23 445.04 97.23 445.04 98.17"/>
            <path class="st6" d="M412.95,161.86c-.12-.07-.26-.11-.42-.11-.24,0-.43.08-.58.24-.15.16-.22.38-.22.66,0,.15.03.29.1.42.06.13.16.24.28.31.13.08.27.12.43.12.15,0,.28-.03.41-.11.13-.07.22-.17.29-.31.07-.13.1-.29.1-.46s-.03-.32-.1-.45c-.07-.13-.16-.24-.29-.31ZM412.94,163.13c-.11.12-.25.18-.41.18s-.3-.06-.41-.18c-.11-.12-.16-.28-.16-.48,0-.25.06-.43.17-.54.11-.11.25-.16.41-.16.11,0,.21.03.3.08.09.06.16.14.2.24.05.1.07.22.07.36,0,.22-.05.38-.16.5Z"/>
            <path class="st7" d="M431.65,144.1c-.13.11-.29.16-.47.16-.15,0-.29-.04-.43-.12-.13-.08-.23-.2-.29-.36-.06-.16-.09-.35-.09-.56,0-.17.02-.33.08-.48.05-.16.14-.28.27-.37.13-.09.29-.14.48-.14.17,0,.31.04.42.13.11.08.2.22.25.4l.33-.08c-.07-.23-.19-.41-.36-.54-.17-.13-.38-.19-.63-.19-.22,0-.42.05-.61.15-.19.1-.33.25-.43.45-.1.19-.15.42-.15.69,0,.24.04.46.13.67.09.21.22.37.39.48.17.11.39.16.66.16s.48-.07.66-.21c.18-.14.31-.35.38-.63l-.33-.08c-.05.21-.13.37-.26.48Z"/>
            <path class="st6" d="M408.39,146.42s-.06-.02-.11-.03c-.05-.01-.09-.02-.1-.04-.01-.01-.02-.03-.02-.04,0-.02,0-.04.03-.05.02-.02.05-.02.09-.02s.07,0,.09.02c.02.02.03.04.03.07h.06s0-.06-.02-.08c-.02-.02-.04-.04-.06-.05-.03-.01-.06-.02-.1-.02-.03,0-.06,0-.09.02-.03.01-.05.03-.06.05-.01.02-.02.05-.02.07,0,.02,0,.04.02.06.01.02.03.03.05.05.02,0,.05.02.1.03.05.01.08.02.09.02.02,0,.04.02.05.03,0,.01.01.02.01.04,0,.02,0,.03-.01.04,0,.01-.02.02-.04.03-.02,0-.04,0-.07,0-.03,0-.05,0-.08-.01-.02-.01-.04-.02-.05-.04-.01-.02-.02-.04-.02-.06h-.06s.01.07.03.1c.02.03.04.05.07.06.03.01.07.02.11.02.04,0,.07,0,.1-.02.03-.01.05-.03.07-.06.02-.02.02-.05.02-.07s0-.05-.02-.07c-.01-.02-.04-.04-.06-.05Z"/>
            <path class="st6" d="M419.78,137.71c-.16-.08-.46-.16-.91-.26-.44-.1-.71-.2-.82-.29-.11-.09-.16-.21-.16-.36,0-.17.07-.32.22-.43.15-.12.39-.18.72-.18s.55.07.71.2c.16.13.25.33.28.59l.52-.04c0-.24-.08-.45-.2-.64-.12-.19-.3-.33-.53-.43-.23-.1-.5-.15-.8-.15-.27,0-.52.05-.75.14-.23.09-.4.23-.51.41-.12.18-.18.37-.18.58,0,.19.05.36.14.51.1.15.24.28.43.38.15.08.41.16.79.26.38.09.62.15.73.2.17.07.3.15.37.24.08.1.11.21.11.34s-.04.24-.12.35c-.08.11-.19.19-.35.25-.16.06-.34.09-.55.09-.23,0-.44-.04-.63-.12-.19-.08-.32-.19-.41-.32-.09-.13-.14-.3-.17-.5l-.51.04c0,.27.08.52.22.73.14.22.34.38.59.49.25.11.56.16.93.16.29,0,.55-.05.79-.16.23-.11.41-.26.54-.45.12-.19.19-.4.19-.61s-.06-.41-.17-.58c-.11-.17-.29-.31-.53-.42Z"/>
          </g>
          <g>
            <path class="st0" d="M460.51,103.46c-.28,0-.49.11-.65.34-.16.23-.24.56-.24.98s.08.72.23.96c.15.24.37.36.66.36s.49-.11.65-.35c.16-.23.24-.56.24-.98s-.08-.73-.23-.97c-.15-.24-.37-.36-.66-.36ZM460.89,105.56c-.09.16-.22.24-.38.24s-.29-.08-.38-.24c-.09-.16-.13-.42-.13-.79,0-.33.04-.58.12-.76.08-.18.21-.27.4-.27.16,0,.29.08.38.23.09.16.13.42.13.79s-.04.63-.13.78Z"/>
            <path class="st4" d="M458.62,103.46c-.28,0-.49.11-.65.34-.16.23-.24.56-.24.98s.08.72.23.96c.15.24.37.36.66.36s.49-.12.65-.35c.16-.23.24-.56.24-.98s-.08-.73-.23-.97c-.15-.24-.37-.36-.66-.36ZM459,105.56c-.09.16-.22.24-.38.24s-.29-.08-.38-.24c-.09-.16-.13-.42-.13-.79,0-.33.04-.58.12-.76.08-.18.21-.27.4-.27.16,0,.29.08.38.23.09.16.13.42.13.79s-.04.63-.13.78Z"/>
            <polygon class="st15" points="456.98 103.46 456.28 103.46 456.28 103.76 456.63 103.76 456.63 105.7 456.28 105.7 456.28 106.01 457.32 106.01 457.32 105.7 456.98 105.7 456.98 103.46"/>
            <path class="st0" d="M462.39,103.46c-.28,0-.49.11-.65.34-.16.23-.24.56-.24.98s.08.72.23.96c.15.24.37.36.66.36s.49-.12.65-.35c.16-.23.24-.56.24-.98s-.08-.73-.23-.97c-.15-.24-.37-.36-.66-.36ZM462.78,105.56c-.09.16-.22.24-.38.24s-.29-.08-.38-.24c-.09-.16-.13-.42-.13-.79,0-.33.04-.58.12-.76.08-.18.21-.27.4-.27.16,0,.29.08.38.23.09.16.13.42.13.79s-.04.63-.13.78Z"/>
            <g>
              <path class="st4" d="M452.03,103.46c-.28,0-.49.11-.65.34-.16.23-.24.56-.24.98s.08.72.23.96c.15.24.37.36.66.36s.49-.12.65-.35c.16-.23.24-.56.24-.98s-.08-.73-.23-.97c-.15-.24-.37-.36-.66-.36ZM452.42,105.56c-.09.16-.22.24-.38.24s-.29-.08-.38-.24c-.09-.16-.13-.42-.13-.79,0-.33.04-.58.12-.76.08-.18.21-.27.4-.27.16,0,.29.08.38.23.09.16.13.42.13.79s-.04.63-.13.78Z"/>
              <polygon class="st4" points="454.12 103.5 453.42 103.5 453.42 103.81 453.76 103.81 453.76 105.75 453.42 105.75 453.42 106.06 454.45 106.06 454.45 105.75 454.12 105.75 454.12 103.5"/>
            </g>
          </g>
          <g>
            <path class="st0" d="M451.6,183.18c-.28,0-.49.11-.65.34-.16.23-.24.56-.24.98s.08.72.23.96c.15.24.37.36.66.36s.49-.12.65-.35c.16-.23.24-.56.24-.98s-.08-.73-.23-.97c-.15-.24-.37-.36-.66-.36ZM451.98,185.29c-.09.16-.22.24-.38.24s-.29-.08-.38-.24c-.09-.16-.13-.42-.13-.79,0-.33.04-.58.12-.76.08-.18.21-.27.4-.27.16,0,.29.08.38.23.09.16.13.42.13.79s-.04.63-.13.78Z"/>
            <path class="st4" d="M457.22,183.18c-.28,0-.49.11-.65.34-.16.23-.24.56-.24.98s.08.72.23.96c.15.24.37.36.66.36s.49-.12.65-.35c.16-.23.24-.56.24-.98s-.08-.73-.23-.97c-.15-.24-.37-.36-.66-.36ZM457.6,185.29c-.09.16-.22.24-.38.24s-.29-.08-.38-.24c-.09-.16-.13-.42-.13-.79,0-.33.04-.58.12-.76.08-.18.21-.27.4-.27.16,0,.29.08.38.23.09.16.13.42.13.79s-.04.63-.13.78Z"/>
            <path class="st4" d="M449.71,183.18c-.28,0-.49.11-.65.34-.16.23-.24.56-.24.98s.08.72.23.96c.15.24.37.36.66.36s.49-.12.65-.35c.16-.23.24-.56.24-.98s-.08-.73-.23-.97c-.15-.24-.37-.36-.66-.36ZM450.09,185.29c-.09.16-.22.24-.38.24s-.29-.08-.38-.24c-.09-.16-.13-.42-.13-.79,0-.33.04-.58.12-.76.08-.18.21-.27.4-.27.16,0,.29.08.38.23.09.16.13.42.13.79s-.04.63-.13.78Z"/>
            <polygon class="st15" points="448.07 183.18 447.37 183.18 447.37 183.49 447.72 183.49 447.72 185.43 447.37 185.43 447.37 185.74 448.41 185.74 448.41 185.43 448.07 185.43 448.07 183.18"/>
            <path class="st0" d="M453.49,183.18c-.28,0-.49.11-.65.34-.16.23-.24.56-.24.98s.08.72.23.96c.15.24.37.36.66.36s.49-.12.65-.35c.16-.23.24-.56.24-.98s-.08-.73-.23-.97c-.15-.24-.37-.36-.66-.36ZM453.87,185.29c-.09.16-.22.24-.38.24s-.29-.08-.38-.24c-.09-.16-.13-.42-.13-.79,0-.33.04-.58.12-.76.08-.18.21-.27.4-.27.16,0,.29.08.38.23.09.16.13.42.13.79s-.04.63-.13.78Z"/>
            <path class="st15" d="M459.12,183.18c-.28,0-.49.11-.65.34-.16.23-.24.56-.24.98s.08.72.23.96c.15.24.37.36.66.36s.49-.12.65-.35c.16-.23.24-.56.24-.98s-.08-.73-.23-.97c-.15-.24-.37-.36-.66-.36ZM459.5,185.29c-.09.16-.22.24-.38.24s-.29-.08-.38-.24c-.09-.16-.13-.42-.13-.79,0-.33.04-.58.12-.76.08-.18.21-.27.4-.27.16,0,.29.08.38.23.09.16.13.42.13.79s-.04.63-.13.78Z"/>
            <polygon class="st4" points="461.2 183.18 460.5 183.18 460.5 183.49 460.85 183.49 460.85 185.43 460.5 185.43 460.5 185.74 461.53 185.74 461.53 185.43 461.2 185.43 461.2 183.18"/>
            <g>
              <path class="st4" d="M443.13,183.18c-.28,0-.49.11-.65.34-.16.23-.24.56-.24.98s.08.72.23.96c.15.24.37.36.66.36s.49-.12.65-.35c.16-.23.24-.56.24-.98s-.08-.73-.23-.97c-.15-.24-.37-.36-.66-.36ZM443.51,185.29c-.09.16-.22.24-.38.24s-.29-.08-.38-.24c-.09-.16-.13-.42-.13-.79,0-.33.04-.58.12-.76.08-.18.21-.27.4-.27.16,0,.29.08.38.23.09.16.13.42.13.79s-.04.63-.13.78Z"/>
              <polygon class="st4" points="445.21 183.23 444.51 183.23 444.51 183.53 444.86 183.53 444.86 185.47 444.51 185.47 444.51 185.78 445.54 185.78 445.54 185.47 445.21 185.47 445.21 183.23"/>
              <path class="st4" d="M444.99,187.71c-.28,0-.49.11-.65.34s-.24.56-.24.98.08.72.23.96c.15.24.37.36.66.36s.49-.12.65-.35c.16-.23.24-.56.24-.98s-.08-.73-.23-.97c-.15-.24-.37-.36-.66-.36ZM445.37,189.82c-.09.16-.22.24-.38.24s-.29-.08-.38-.24c-.09-.16-.13-.42-.13-.79,0-.33.04-.58.12-.76.08-.18.21-.27.4-.27.16,0,.29.08.38.23.09.16.13.42.13.79s-.04.63-.13.78Z"/>
            </g>
            <g>
              <path class="st3" d="M464.91,183.23c-.28,0-.49.11-.65.34-.16.23-.24.56-.24.98s.08.72.23.96c.15.24.37.36.66.36s.49-.12.65-.35c.16-.23.24-.56.24-.98s-.08-.73-.23-.97c-.15-.24-.37-.36-.66-.36ZM465.29,185.33c-.09.16-.22.24-.38.24s-.29-.08-.38-.24c-.09-.16-.13-.42-.13-.78,0-.33.04-.58.12-.76.08-.18.21-.27.4-.27.16,0,.29.08.38.23.09.16.13.42.13.79s-.04.63-.13.78Z"/>
              <path class="st4" d="M463.05,183.18c-.28,0-.49.11-.65.34-.16.23-.24.56-.24.98s.08.72.23.96c.15.24.37.36.66.36s.49-.12.65-.35c.16-.23.24-.56.24-.97s-.08-.73-.23-.97c-.15-.24-.37-.36-.66-.36ZM463.44,185.29c-.09.16-.22.24-.38.24s-.29-.08-.38-.24c-.09-.16-.13-.42-.13-.79,0-.33.04-.58.12-.76.08-.18.21-.27.4-.27.16,0,.29.08.38.23.09.16.13.42.13.79s-.04.63-.13.78Z"/>
              <polygon class="st3" points="463.27 187.75 462.58 187.75 462.58 188.06 462.92 188.06 462.92 190 462.58 190 462.58 190.31 463.61 190.31 463.61 190 463.27 190 463.27 187.75"/>
              <path class="st15" d="M466.75,183.18c-.28,0-.49.11-.65.34-.16.23-.24.56-.24.98s.08.72.23.96c.15.24.37.36.66.36s.49-.12.65-.35c.16-.23.24-.56.24-.97s-.08-.73-.23-.97c-.15-.24-.37-.36-.66-.36ZM467.14,185.29c-.09.16-.22.24-.38.24s-.29-.08-.38-.24c-.09-.16-.13-.42-.13-.79,0-.33.04-.58.12-.76.08-.18.21-.27.4-.27.16,0,.29.08.38.23.09.16.13.42.13.79s-.04.63-.13.78Z"/>
              <polygon class="st3" points="466.97 187.75 466.27 187.75 466.27 188.06 466.62 188.06 466.62 190 466.27 190 466.27 190.31 467.31 190.31 467.31 190 466.97 190 466.97 187.75"/>
              <polygon class="st15" points="465.13 187.8 464.43 187.8 464.43 188.1 464.78 188.1 464.78 190.05 464.43 190.05 464.43 190.36 465.47 190.36 465.47 190.05 465.13 190.05 465.13 187.8"/>
              <polygon class="st4" points="468.85 187.8 468.15 187.8 468.15 188.1 468.5 188.1 468.5 190.05 468.15 190.05 468.15 190.36 469.18 190.36 469.18 190.05 468.85 190.05 468.85 187.8"/>
              <path class="st4" d="M468.62,183.23c-.28,0-.49.11-.65.34-.16.23-.24.56-.24.98s.08.72.23.96c.15.24.37.36.66.36s.49-.12.65-.35c.16-.23.24-.56.24-.98s-.08-.73-.23-.97c-.15-.24-.37-.36-.66-.36ZM469.01,185.33c-.09.16-.22.24-.38.24s-.29-.08-.38-.24c-.09-.16-.13-.42-.13-.78,0-.33.04-.58.12-.76.08-.18.21-.27.4-.27.16,0,.29.08.38.23.09.16.13.42.13.79s-.04.63-.13.78Z"/>
            </g>
          </g>
          <g>
            <path class="st0" d="M376.48,234.42c-.2-.2-.43-.27-.7-.22-.27.05-.56.22-.86.52-.28.28-.46.56-.52.84-.06.28,0,.52.21.72.19.19.43.27.7.22.27-.05.56-.23.86-.52.29-.29.46-.57.52-.85.06-.28-.01-.52-.21-.72ZM375.26,236.18c-.17.05-.32.02-.44-.1-.12-.12-.15-.26-.1-.44.05-.17.2-.39.46-.65.23-.23.44-.38.62-.45.18-.07.34-.04.47.09.12.12.15.26.1.43-.05.17-.2.39-.46.65s-.47.41-.65.46Z"/>
            <path class="st4" d="M380.45,238.39c-.2-.2-.43-.27-.7-.22-.28.05-.56.22-.86.52s-.46.56-.52.84c-.06.28,0,.52.21.72s.43.27.7.21c.27-.05.56-.22.86-.52.29-.29.46-.57.52-.85.06-.28-.01-.52-.21-.72ZM379.23,240.15c-.17.05-.32.02-.44-.1-.12-.12-.15-.26-.1-.44.05-.17.2-.39.46-.65.23-.23.44-.38.62-.45.18-.07.34-.04.47.09.12.12.15.26.1.43-.05.17-.2.39-.46.65-.26.26-.47.41-.65.46Z"/>
            <path class="st4" d="M375.14,233.08c-.2-.2-.43-.27-.7-.22-.28.05-.56.22-.86.52s-.46.56-.52.84c-.06.28,0,.52.21.72.19.19.43.27.7.22.27-.05.56-.22.86-.52s.46-.57.52-.85c.06-.28-.01-.52-.21-.72ZM373.92,234.84c-.17.05-.32.02-.44-.1s-.15-.26-.1-.44c.05-.17.2-.39.46-.65.23-.23.44-.38.62-.45.18-.07.34-.04.47.09.12.12.15.26.1.43-.05.17-.2.39-.46.65-.26.26-.47.41-.65.46Z"/>
            <polygon class="st15" points="373.98 231.93 373.49 231.43 373.27 231.65 373.52 231.9 372.15 233.27 371.9 233.02 371.68 233.24 372.41 233.97 372.63 233.75 372.39 233.51 373.98 231.93"/>
            <path class="st0" d="M377.81,235.75c-.2-.2-.43-.27-.7-.22-.28.05-.56.22-.86.52s-.46.56-.52.84c-.06.28,0,.52.21.72.19.19.43.27.7.21.27-.05.56-.22.86-.52.29-.29.46-.57.52-.85.06-.28-.01-.52-.21-.72ZM376.59,237.51c-.17.05-.32.02-.44-.1s-.15-.26-.1-.44c.05-.17.2-.39.46-.65.23-.23.44-.38.62-.45.18-.07.34-.04.47.09.12.12.15.26.1.43-.05.17-.2.39-.46.65s-.47.41-.65.46Z"/>
            <path class="st15" d="M381.79,239.73c-.2-.2-.43-.27-.7-.22-.28.05-.56.22-.86.52-.28.28-.46.56-.52.84-.06.28,0,.52.21.72s.43.27.7.22c.27-.05.56-.23.86-.52s.46-.57.52-.85c.06-.28-.01-.52-.21-.72ZM380.57,241.49c-.17.05-.32.02-.44-.1s-.15-.26-.1-.44c.05-.17.2-.39.46-.65.23-.23.44-.38.62-.45.18-.07.34-.04.47.09.12.12.15.26.1.43-.05.17-.2.39-.46.65-.26.26-.47.41-.65.46Z"/>
            <polygon class="st4" points="383.26 241.21 382.77 240.71 382.55 240.93 382.8 241.18 381.43 242.55 381.18 242.3 380.96 242.52 381.69 243.25 381.91 243.03 381.67 242.79 383.26 241.21"/>
            <g>
              <path class="st4" d="M370.48,228.43c-.2-.2-.43-.27-.7-.22-.28.05-.56.22-.86.52-.28.28-.46.56-.52.84-.06.28,0,.52.21.72s.43.27.7.22c.27-.05.56-.22.86-.52.29-.29.46-.57.52-.85.06-.28-.01-.52-.21-.72ZM369.26,230.19c-.17.05-.32.02-.44-.1s-.15-.26-.1-.44c.05-.17.2-.39.46-.65.23-.23.44-.38.62-.45.18-.07.34-.04.47.09.12.12.15.26.1.43-.05.17-.2.39-.46.65s-.47.41-.65.46Z"/>
              <polygon class="st4" points="371.92 229.93 371.43 229.43 371.21 229.65 371.46 229.9 370.09 231.27 369.84 231.02 369.62 231.24 370.35 231.97 370.57 231.75 370.33 231.52 371.92 229.93"/>
              <path class="st4" d="M368.6,232.94c-.2-.2-.43-.27-.7-.22-.28.05-.56.22-.86.52s-.46.56-.52.84c-.06.28,0,.52.21.72.19.19.43.27.7.22.27-.05.56-.23.86-.52s.46-.57.52-.85c.06-.28-.01-.52-.21-.72ZM367.38,234.7c-.17.05-.32.02-.44-.1s-.15-.26-.1-.44c.05-.17.2-.39.46-.65.23-.23.44-.38.62-.45.18-.07.34-.04.47.09.12.12.15.26.1.43-.05.17-.2.39-.46.65s-.47.41-.65.46Z"/>
            </g>
            <g>
              <path class="st3" d="M385.86,243.86c-.2-.2-.43-.27-.7-.22-.28.05-.56.22-.86.52-.28.28-.46.56-.52.84-.06.28,0,.52.21.72.19.19.43.27.7.22.27-.05.56-.23.86-.52.29-.29.46-.57.52-.85.06-.28-.01-.52-.21-.72ZM384.64,245.62c-.17.05-.32.01-.44-.1-.12-.12-.15-.26-.1-.44.05-.17.2-.39.46-.65.23-.23.44-.38.62-.45.18-.07.34-.04.47.09.12.12.15.26.1.43-.05.17-.2.39-.46.65-.26.26-.47.41-.65.46Z"/>
              <path class="st4" d="M384.57,242.52c-.2-.2-.43-.27-.7-.22-.28.05-.56.22-.86.52-.28.28-.46.56-.52.84-.06.28,0,.52.21.72.19.19.43.27.7.21.27-.05.56-.22.86-.52s.46-.57.52-.85c.06-.28-.01-.52-.21-.72ZM383.35,244.28c-.17.05-.32.02-.44-.1-.12-.12-.15-.26-.1-.44.05-.17.2-.39.46-.65.23-.23.44-.38.62-.45.18-.07.34-.04.47.09.12.12.15.26.1.43-.05.17-.2.39-.46.65s-.47.41-.65.46Z"/>
              <polygon class="st3" points="381.5 245.91 381 245.41 380.79 245.63 381.03 245.88 379.66 247.25 379.41 247 379.19 247.22 379.92 247.95 380.14 247.73 379.91 247.5 381.5 245.91"/>
              <path class="st15" d="M387.19,245.13c-.2-.2-.43-.27-.7-.22-.27.05-.56.22-.86.52s-.46.56-.52.84c-.06.28,0,.52.21.72.19.19.43.27.7.21.27-.05.56-.22.86-.52s.46-.57.52-.85c.06-.28-.01-.52-.21-.72ZM385.97,246.89c-.17.05-.32.02-.44-.1s-.15-.26-.1-.44c.05-.17.2-.39.46-.65.23-.23.44-.38.62-.45.18-.07.34-.04.47.09.12.12.15.26.1.43-.05.17-.2.39-.46.65-.26.26-.47.41-.65.46Z"/>
              <polygon class="st3" points="384.11 248.52 383.62 248.03 383.4 248.25 383.65 248.49 382.28 249.86 382.03 249.62 381.81 249.84 382.54 250.57 382.76 250.35 382.52 250.11 384.11 248.52"/>
              <polygon class="st15" points="382.78 247.25 382.28 246.76 382.07 246.97 382.31 247.22 380.94 248.59 380.7 248.35 380.48 248.57 381.21 249.3 381.43 249.08 381.19 248.84 382.78 247.25"/>
              <polygon class="st4" points="385.41 249.88 384.91 249.38 384.69 249.6 384.94 249.85 383.57 251.22 383.32 250.97 383.1 251.19 383.83 251.92 384.05 251.7 383.82 251.47 385.41 249.88"/>
              <path class="st4" d="M388.48,246.49c-.2-.2-.43-.27-.7-.22-.28.05-.56.22-.86.52-.28.28-.46.57-.52.84-.06.28,0,.52.21.72.19.19.43.27.7.22.27-.05.56-.22.86-.52.29-.29.46-.57.52-.85.06-.28-.01-.52-.21-.72ZM387.26,248.25c-.17.05-.32.02-.44-.1-.12-.12-.15-.26-.1-.44.05-.17.2-.39.46-.65.23-.23.44-.38.62-.45.18-.07.34-.04.47.09.12.12.15.26.1.43-.05.17-.2.39-.46.65-.26.26-.47.41-.65.46Z"/>
            </g>
          </g>
          <g>
            <polygon class="st4" points="392.41 177.22 391.71 177.22 391.71 177.53 392.06 177.53 392.06 179.47 391.71 179.47 391.71 179.78 392.75 179.78 392.75 179.47 392.41 179.47 392.41 177.22"/>
            <g>
              <path class="st3" d="M396.13,177.27c-.28,0-.49.11-.65.34-.16.23-.24.56-.24.98s.08.72.23.96c.15.24.37.36.66.36s.49-.12.65-.35c.16-.23.24-.56.24-.98s-.08-.73-.23-.97c-.15-.24-.37-.36-.66-.36ZM396.51,179.37c-.09.16-.22.24-.38.24s-.29-.08-.38-.24c-.09-.16-.13-.42-.13-.79,0-.33.04-.58.12-.76.08-.18.21-.27.4-.27.16,0,.29.08.38.23.09.16.13.42.13.79s-.04.63-.13.78Z"/>
              <path class="st4" d="M394.27,177.22c-.28,0-.49.11-.65.34-.16.23-.24.56-.24.98s.08.72.23.96c.15.24.37.36.66.36s.49-.12.65-.35c.16-.23.24-.56.24-.97s-.08-.73-.23-.97c-.15-.24-.37-.36-.66-.36ZM394.65,179.33c-.09.16-.22.24-.38.24s-.29-.08-.38-.24c-.09-.16-.13-.42-.13-.79,0-.33.04-.58.12-.76.08-.18.21-.27.4-.27.16,0,.29.08.38.23.09.16.13.42.13.79s-.04.63-.13.78Z"/>
              <path class="st15" d="M397.97,177.22c-.28,0-.49.11-.65.34-.16.23-.24.56-.24.98s.08.72.23.96c.15.24.37.36.66.36s.49-.12.65-.35c.16-.23.24-.56.24-.97s-.08-.73-.23-.97c-.15-.24-.37-.36-.66-.36ZM398.35,179.33c-.09.16-.22.24-.38.24s-.29-.08-.38-.24c-.09-.16-.13-.42-.13-.79,0-.33.04-.58.12-.76.08-.18.21-.27.4-.27.16,0,.29.08.38.23.09.16.13.42.13.79s-.04.63-.13.78Z"/>
              <path class="st4" d="M399.84,177.27c-.28,0-.49.11-.65.34-.16.23-.24.56-.24.98s.08.72.23.96c.15.24.37.36.66.36s.49-.12.65-.35c.16-.23.24-.56.24-.98s-.08-.73-.23-.97c-.15-.24-.37-.36-.66-.36ZM400.22,179.37c-.09.16-.22.24-.38.24s-.29-.08-.38-.24c-.09-.16-.13-.42-.13-.79,0-.33.04-.58.12-.76.08-.18.21-.27.4-.27.16,0,.29.08.38.23.09.16.13.42.13.79s-.04.63-.13.78Z"/>
            </g>
          </g>
        </g>
        <g class="st2">
          <g>
            <g>
              <g>
                <g class="st11">
                  <polygon class="st8" points="141.81 207.52 141.88 207.44 141.83 207.35 141.71 207.42 141.81 207.52"/>
                  <polygon class="st8" points="141.58 207.49 141.79 207.86 141.84 207.44 141.71 207.42 141.58 207.49"/>
                </g>
                <path class="st16" d="M140.84,206.57c-.53.57-.5,1.47.07,2,.57.53,1.47.5,2-.07.53-.57.5-1.47-.07-2-.57-.53-1.47-.5-2,.07Z"/>
              </g>
              <g>
                <g>
                  <g>
                    <polygon class="st8" points="208.76 107.94 208.64 108.01 208.81 108.33 208.89 107.97 208.76 107.94"/>
                    <polygon class="st8" points="208.71 107.55 208.62 107.91 208.76 107.94 208.89 107.97 208.81 108.33 218.49 125.96 203.1 133.1 208.81 108.33 208.64 108.01 208.76 107.94 208.62 107.91 202.7 133.6 218.88 126.09 208.71 107.55"/>
                    <polygon class="st8" points="203.03 133.31 202.9 133.35 202.96 133.48 203.07 133.43 203.03 133.31"/>
                    <polygon class="st8" points="202.9 133.35 202.77 133.38 202.97 134.14 203.04 133.37 202.9 133.35"/>
                    <polygon class="st8" points="218.82 126.03 218.68 126.03 218.62 126.15 218.82 126.25 218.82 126.03"/>
                    <polygon class="st8" points="176.2 94.99 176.09 95.07 176.04 95.2 176.47 95.37 176.2 94.99"/>
                    <polygon class="st8" points="175.7 94.77 175.97 95.15 176.09 95.07 176.2 94.99 176.47 95.37 208.59 108.03 202.83 133.01 176.47 95.37 176.04 95.2 176.09 95.07 175.97 95.15 202.96 133.69 208.92 107.85 175.7 94.77"/>
                    <polygon class="st8" points="202.9 133.35 202.76 133.33 202.66 134.35 203.03 133.4 202.9 133.35"/>
                    <polygon class="st8" points="166.75 200.94 166.61 200.91 166.65 201.06 166.74 201.03 166.75 200.94"/>
                    <polygon class="st8" points="152.8 196.71 152.66 196.71 152.62 196.85 152.81 196.9 152.8 196.71"/>
                    <polygon class="st8" points="152.51 196.52 152.52 196.72 152.66 196.71 152.8 196.71 152.81 196.9 166.3 200.97 153.36 210.2 152.81 196.9 152.62 196.85 152.66 196.71 152.52 196.72 153.09 210.73 166.93 200.86 152.51 196.52"/>
                    <polygon class="st8" points="153.35 210.41 153.22 210.47 153.31 210.58 153.4 210.52 153.35 210.41"/>
                    <polygon class="st8" points="152.66 196.71 152.52 196.72 152.53 196.9 152.7 196.85 152.66 196.71"/>
                    <polygon class="st8" points="196.64 202.3 196.52 202.38 196.58 202.51 196.74 202.45 196.64 202.3"/>
                    <polygon class="st8" points="196.52 202.38 196.41 202.47 196.5 202.59 196.62 202.49 196.52 202.38"/>
                    <polygon class="st8" points="208.88 107.87 208.76 107.94 208.81 108.07 208.96 108.02 208.88 107.87"/>
                    <polygon class="st8" points="176.09 95.07 175.97 95.15 176.08 95.3 176.19 95.16 176.09 95.07"/>
                    <polygon class="st8" points="143.39 134.93 143.26 135 143.27 135.14 143.5 135.13 143.39 134.93"/>
                    <polygon class="st8" points="143.26 135 143.14 135.06 143.52 135.75 143.4 134.98 143.26 135"/>
                    <polygon class="st8" points="143.26 135 143.12 135.02 143.16 135.25 143.35 135.11 143.26 135"/>
                    <polygon class="st8" points="223.71 77.6 223.6 77.69 223.67 77.81 223.82 77.74 223.71 77.6"/>
                    <polygon class="st8" points="223.72 77.62 223.71 77.6 223.49 77.76 223.6 77.69 223.72 77.62"/>
                    <polygon class="st8" points="223.49 77.76 223.49 77.77 223.6 77.69 223.49 77.76"/>
                    <polygon class="st8" points="223.72 77.62 223.6 77.69 223.49 77.77 223.5 77.79 224.81 79.4 223.74 77.63 223.72 77.62"/>
                    <polygon class="st8" points="223.6 77.69 223.49 77.76 223.62 77.98 223.73 77.75 223.6 77.69"/>
                    <polygon class="st8" points="223.6 77.69 223.47 77.62 223.32 77.94 223.65 77.82 223.6 77.69"/>
                    <polygon class="st8" points="223.89 77.44 223.55 77.56 223.6 77.69 223.65 77.82 223.32 77.94 208.69 107.76 176.48 95.07 223.32 77.94 223.47 77.62 223.6 77.69 223.55 77.56 175.69 95.06 208.83 108.12 223.89 77.44"/>
                    <polygon class="st8" points="153.22 210.47 153.09 210.52 153.15 210.65 153.28 210.59 153.22 210.47"/>
                  </g>
                  <g class="st11">
                    <polygon class="st8" points="218.57 78.3 218.48 78.13 218.34 78.29 218.45 78.37 218.57 78.3"/>
                    <polygon class="st8" points="218.36 78.26 218.23 78.36 218.36 78.48 218.45 78.37 218.36 78.26"/>
                    <polygon class="st8" points="205.13 145.18 205.1 145.31 205.2 145.4 205.36 145.23 205.13 145.18"/>
                    <polygon class="st8" points="203.28 152.1 203.08 152.11 203.08 152.25 203.22 152.29 203.28 152.1"/>
                    <polygon class="st8" points="141.46 160.7 141.35 160.67 141.3 160.78 141.43 160.84 141.46 160.7"/>
                    <polygon class="st8" points="166.8 162.3 152.8 158.08 141.4 160.7 141.42 160.98 141.43 160.84 141.44 160.7 142.43 160.76 152.8 158.38 165.54 162.22 142.43 160.76 141.46 160.98 141.43 160.84 141.42 160.98 166.75 162.58 166.8 162.3"/>
                    <polygon class="st8" points="141.44 160.7 141.43 160.84 141.46 160.98 142.43 160.76 141.44 160.7"/>
                    <polygon class="st8" points="152.94 158.25 152.8 158.23 152.67 158.21 152.68 158.11 141.67 160.64 155.85 126.94 152.68 158.11 152.77 158.09 152.8 158.23 152.94 158.25 156.23 126.02 155.96 125.95 141.19 161.04 152.93 158.34 152.94 158.25"/>
                    <polygon class="st8" points="152.77 158.09 152.68 158.11 152.67 158.21 152.8 158.23 152.77 158.09"/>
                    <polygon class="st8" points="232.44 82.45 232.34 82.42 232.29 82.5 232.4 82.58 232.44 82.45"/>
                    <polygon class="st8" points="166.8 162.3 166.61 162.24 166.62 162.44 166.76 162.44 166.8 162.3"/>
                    <polygon class="st8" points="166.89 162.43 166.76 162.44 166.62 162.44 166.61 162.24 153.12 158.18 166.06 148.95 166.61 162.24 166.8 162.3 166.76 162.44 166.89 162.43 166.33 148.41 152.49 158.28 166.9 162.63 166.89 162.43"/>
                    <polygon class="st8" points="166.11 148.56 166.02 148.63 166.07 148.74 166.2 148.68 166.11 148.56"/>
                    <polygon class="st8" points="166.33 148.62 166.2 148.68 166.07 148.74 166.02 148.63 152.98 157.93 156.18 126.55 166.02 148.63 166.11 148.56 166.2 148.68 166.33 148.62 156 125.46 152.63 158.53 166.37 148.73 166.33 148.62"/>
                    <polygon class="st8" points="166.89 162.25 166.72 162.3 166.76 162.44 166.89 162.43 166.89 162.25"/>
                    <polygon class="st8" points="166.76 162.44 166.72 162.3 166.89 162.25 166.35 148.84 202.31 152.32 166.89 162.25 166.89 162.43 166.76 162.44 166.8 162.57 203.12 152.39 203.1 152.11 166.05 148.52 166.62 162.62 166.8 162.57 166.76 162.44"/>
                    <polygon class="st8" points="203.1 152.11 202.98 152.1 202.95 152.21 203.08 152.25 203.1 152.11"/>
                    <polygon class="st8" points="203.22 152.29 203.08 152.25 202.95 152.21 202.98 152.1 167.74 148.69 204.9 145.47 202.98 152.1 203.1 152.11 203.08 152.25 203.22 152.29 205.29 145.15 166.18 148.54 166.18 148.82 203.19 152.4 203.22 152.29"/>
                    <polygon class="st8" points="156.17 125.89 155.83 125.66 155.95 126.04 156.09 126.01 156.17 125.89"/>
                    <polygon class="st8" points="155.95 125.97 155.95 125.97 155.95 125.97 155.95 125.97"/>
                    <polygon class="st8" points="156.09 126.01 155.95 125.97 155.95 125.99 156.23 126.04 156.09 126.01"/>
                    <polygon class="st8" points="100.46 166.5 100.32 166.21 100.2 166.51 100.33 166.56 100.46 166.5"/>
                    <polygon class="st8" points="100.29 166.43 100.13 166.47 100.21 166.62 100.33 166.56 100.29 166.43"/>
                    <polygon class="st8" points="166.27 148.49 166.14 148.55 166.2 148.68 166.33 148.62 166.27 148.49"/>
                    <polygon class="st8" points="205.24 145.31 205.1 145.31 204.96 145.31 204.95 145.18 167.02 148.47 204.41 131.77 204.95 145.18 205.09 145.17 205.1 145.31 205.24 145.31 204.67 131.34 166.14 148.55 166.21 148.82 205.24 145.43 205.24 145.31"/>
                    <polygon class="st8" points="205.09 145.17 204.95 145.18 204.96 145.31 205.1 145.31 205.09 145.17"/>
                    <polygon class="st8" points="204.55 131.41 204.43 131.4 204.4 131.52 204.54 131.55 204.55 131.41"/>
                    <polygon class="st8" points="209.63 140.53 209.5 140.59 209.38 140.66 209.33 140.58 205.23 144.96 204.7 132.15 209.33 140.58 209.4 140.5 209.5 140.59 209.63 140.53 204.66 131.49 204.4 131.56 204.97 145.65 209.67 140.62 209.63 140.53"/>
                    <polygon class="st8" points="209.4 140.5 209.33 140.58 209.38 140.66 209.5 140.59 209.4 140.5"/>
                    <polygon class="st8" points="209.57 140.42 209.45 140.46 209.5 140.59 209.63 140.53 209.57 140.42"/>
                    <polygon class="st8" points="209.5 140.59 209.45 140.46 209.57 140.42 204.77 131.69 235.79 130.83 209.57 140.42 209.63 140.53 209.5 140.59 209.55 140.73 236.7 130.8 236.65 130.52 204.31 131.42 209.44 140.77 209.55 140.73 209.5 140.59"/>
                    <rect class="st8" x="236.51" y="130.52" width=".14" height=".15" transform="translate(-3.21 6) rotate(-1.44)"/>
                    <polygon class="st8" points="204.68 131.59 204.95 130.54 204.42 131.48 204.54 131.55 204.68 131.59"/>
                    <polygon class="st8" points="236.77 130.42 236.58 130.54 236.65 130.66 236.79 130.66 236.77 130.42"/>
                  </g>
                </g>
                <g>
                  <path class="st16" d="M219.26,126.45c.34-.36.32-.94-.04-1.28-.36-.34-.94-.32-1.28.04-.34.36-.32.94.04,1.28.36.34.94.32,1.28-.04Z"/>
                  <path class="st16" d="M166.56,149.2c.34-.37.32-.94-.04-1.28-.36-.34-.94-.32-1.28.04-.34.36-.32.94.04,1.28.36.34.94.32,1.28-.04Z"/>
                  <path class="st16" d="M101.15,167.52c.61-.65.57-1.66-.08-2.27-.65-.6-1.66-.57-2.27.08-.6.65-.57,1.66.08,2.27.65.61,1.66.57,2.27-.08Z"/>
                  <path class="st16" d="M144.41,163.74c1.58-1.69,1.49-4.33-.2-5.91-1.69-1.58-4.33-1.49-5.91.2-1.57,1.69-1.49,4.33.2,5.91s4.33,1.48,5.91-.2Z"/>
                  <path class="st16" d="M144.19,135.92c.47-.5.44-1.29-.06-1.75-.5-.47-1.29-.44-1.75.06-.47.5-.44,1.29.06,1.75.5.47,1.29.44,1.75-.06Z"/>
                  <path class="st16" d="M203.71,134.22c.34-.36.32-.94-.04-1.28-.36-.34-.94-.32-1.28.04-.34.36-.32.94.04,1.28.36.34.94.32,1.28-.04Z"/>
                  <path class="st16" d="M168.01,163.97c.72-.77.68-1.98-.09-2.7-.77-.72-1.98-.68-2.7.09-.72.77-.68,1.98.09,2.7.77.72,1.98.68,2.7-.09Z"/>
                  <path class="st16" d="M199.67,147.25c.72-.77.68-1.98-.09-2.7-.77-.72-1.98-.68-2.7.09-.72.77-.68,1.98.09,2.7.77.72,1.98.68,2.7-.09Z"/>
                  <path class="st16" d="M177.87,96.78c.72-.77.68-1.98-.09-2.7-.77-.72-1.98-.68-2.7.09-.72.77-.68,1.98.09,2.7.77.72,1.98.68,2.7-.09Z"/>
                  <path class="st16" d="M233.32,83.41c.44-.47.41-1.2-.06-1.64-.47-.44-1.2-.41-1.64.06-.44.47-.41,1.2.06,1.64.47.44,1.2.41,1.64-.06Z"/>
                  <path class="st16" d="M224.83,77.84c.34-.36.32-.94-.04-1.28-.36-.34-.94-.32-1.28.04-.34.36-.32.94.04,1.28.36.34.94.32,1.28-.04Z"/>
                  <path class="st16" d="M210.77,141.14c.39-.41.36-1.06-.05-1.45-.41-.39-1.06-.36-1.45.05-.39.41-.36,1.06.05,1.45.41.39,1.06.36,1.45-.05Z"/>
                  <path class="st16" d="M204.07,153.13c.4-.43.38-1.11-.05-1.51-.43-.4-1.11-.38-1.51.05-.4.43-.38,1.11.05,1.51.43.4,1.11.38,1.51-.05Z"/>
                  <path class="st16" d="M237.6,131.08c.4-.43.38-1.11-.05-1.51-.43-.4-1.11-.38-1.51.05-.4.43-.38,1.11.05,1.51.43.4,1.11.38,1.51-.05Z"/>
                  <path class="st16" d="M219.3,152.01c.21-.22.2-.57-.03-.78-.22-.21-.57-.2-.78.03-.21.22-.2.57.03.78.22.21.57.2.78-.03Z"/>
                  <path class="st16" d="M219.91,146.29c.51-.55.48-1.4-.07-1.91-.55-.51-1.4-.48-1.91.07-.51.55-.48,1.4.06,1.91.55.51,1.4.48,1.91-.07Z"/>
                  <path class="st16" d="M155.22,212.58c1.17-1.25,1.1-3.22-.15-4.39-1.25-1.17-3.22-1.1-4.39.15-1.17,1.25-1.1,3.22.15,4.39,1.25,1.17,3.22,1.1,4.39-.15Z"/>
                  <path class="st16" d="M209.43,108.59c.4-.43.37-1.09-.05-1.49-.43-.4-1.09-.37-1.49.05-.4.43-.37,1.09.05,1.49.43.4,1.09.37,1.49-.05Z"/>
                  <path class="st16" d="M148.71,144.85c.21-.22.2-.57-.03-.78-.22-.21-.57-.2-.78.03-.21.22-.2.57.03.78.22.21.57.2.78-.03Z"/>
                  <path class="st16" d="M156.58,126.49c.21-.22.2-.57-.03-.78-.22-.21-.57-.2-.78.03-.21.22-.2.57.03.78.22.21.57.2.78-.03Z"/>
                  <path class="st16" d="M155.76,135.26c.21-.22.2-.57-.03-.78-.22-.21-.57-.2-.78.03-.21.22-.2.57.03.78.22.21.57.2.78-.03Z"/>
                  <path class="st16" d="M226.27,80.72c.21-.22.2-.57-.03-.78-.22-.21-.57-.2-.78.03-.21.22-.2.57.03.78.22.21.57.2.78-.03Z"/>
                  <path class="st16" d="M195.11,154.91c.21-.22.2-.57-.03-.78-.22-.21-.57-.2-.78.03-.21.22-.2.57.03.78.22.21.57.2.78-.03Z"/>
                  <path class="st16" d="M219.2,137.49c.21-.22.2-.57-.03-.78-.22-.21-.57-.2-.78.03-.21.22-.2.57.03.78.22.21.57.2.78-.03Z"/>
                  <path class="st16" d="M208.61,152.46c.13-.14.12-.35-.02-.48-.14-.13-.35-.12-.48.02-.13.14-.12.35.02.48.14.13.35.12.48-.02Z"/>
                  <path class="st16" d="M219.28,176.85c.13-.14.12-.35-.02-.48-.14-.13-.35-.12-.48.02-.13.14-.12.35.02.48.14.13.35.12.48-.02Z"/>
                  <path class="st16" d="M197.41,203.09c.29-.31.27-.8-.04-1.09-.31-.29-.8-.27-1.09.04-.29.31-.27.8.04,1.09.31.29.8.27,1.09-.04Z"/>
                  <path class="st16" d="M205.4,132.89c.13-.14.12-.35-.02-.48-.14-.13-.35-.12-.48.02-.13.14-.12.35.02.48.14.13.35.12.48-.02Z"/>
                  <path class="st16" d="M204.87,131.32c.13-.14.12-.35-.02-.48-.14-.13-.35-.12-.48.02-.13.14-.12.35.02.48.14.13.35.12.48-.02Z"/>
                  <path class="st16" d="M223.14,74.88c.13-.14.12-.35-.02-.48-.14-.13-.35-.12-.48.02-.13.14-.12.35.02.48.14.13.35.12.48-.02Z"/>
                  <path class="st16" d="M222.39,73.71c.13-.14.12-.35-.02-.48-.14-.13-.35-.12-.48.02-.13.14-.12.35.02.48.14.13.35.12.48-.02Z"/>
                  <path class="st16" d="M198.31,146.07c.13-.14.12-.35-.02-.48-.14-.13-.35-.12-.48.02-.13.14-.12.35.02.48.14.13.35.12.48-.02Z"/>
                  <path class="st16" d="M205.09,139.96c.13-.14.12-.35-.02-.48-.14-.13-.35-.12-.48.02-.13.14-.12.35.02.48.14.13.35.12.48-.02Z"/>
                  <path class="st16" d="M205.36,145.59c.13-.14.12-.35-.02-.48-.14-.13-.35-.12-.48.02-.13.14-.12.35.02.48.14.13.35.12.48-.02Z"/>
                  <path class="st16" d="M183.6,105.63c.13-.14.12-.35-.02-.48-.14-.13-.35-.12-.48.02-.13.14-.12.35.02.48.14.13.35.12.48-.02Z"/>
                  <path class="st16" d="M206.44,144.6c.13-.14.12-.35-.02-.48-.14-.13-.35-.12-.48.02-.13.14-.12.35.02.48.14.13.35.12.48-.02Z"/>
                  <path class="st16" d="M218.96,148.77c.13-.14.12-.35-.02-.48-.14-.13-.35-.12-.48.02-.13.14-.12.35.02.48.14.13.35.12.48-.02Z"/>
                  <path class="st16" d="M201.95,131.66c.21-.23.2-.58-.03-.79-.23-.21-.58-.2-.79.03-.21.23-.2.58.03.79.23.21.58.2.79-.03Z"/>
                  <path class="st16" d="M196.28,151.69c.13-.14.12-.35-.02-.48-.14-.13-.35-.12-.48.02-.13.14-.12.35.02.48.14.13.35.12.48-.02Z"/>
                  <path class="st16" d="M155.72,156.92c.13-.14.12-.35-.02-.48-.14-.13-.35-.12-.48.02-.13.14-.12.35.02.48.14.13.35.12.48-.02Z"/>
                  <path class="st16" d="M149.15,128.46c.13-.14.12-.35-.02-.48-.14-.13-.35-.12-.48.02-.13.14-.12.35.02.48.14.13.35.12.48-.02Z"/>
                  <path class="st16" d="M147.02,160.08c.13-.14.12-.35-.02-.48-.14-.13-.35-.12-.48.02-.13.14-.12.35.02.48.14.13.35.12.48-.02Z"/>
                  <path class="st16" d="M147.66,161.6c.13-.14.12-.35-.02-.48-.14-.13-.35-.12-.48.02-.13.14-.12.35.02.48.14.13.35.12.48-.02Z"/>
                  <path class="st16" d="M157.23,159.49c.13-.14.12-.35-.02-.48-.14-.13-.35-.12-.48.02s-.12.35.02.48c.14.13.35.12.48-.02Z"/>
                  <path class="st16" d="M153.01,197.44c.33-.36.31-.92-.04-1.25-.36-.33-.92-.31-1.25.04-.33.36-.31.92.04,1.25.36.33.92.31,1.25-.04Z"/>
                  <path class="st16" d="M187.52,129.85c.13-.14.12-.35-.02-.48-.14-.13-.35-.12-.48.02-.13.14-.12.35.02.48.14.13.35.12.48-.02Z"/>
                  <path class="st16" d="M227.18,71.29c.13-.14.12-.35-.02-.48-.14-.13-.35-.12-.48.02-.13.14-.12.35.02.48.14.13.35.12.48-.02Z"/>
                </g>
              </g>
            </g>
            <g class="st14">
              <g>
                <g>
                  <g>
                    <polygon class="st8" points="81.15 150.2 81 150.36 80.96 150.58 81.67 150.68 81.15 150.2"/>
                    <polygon class="st8" points="81 150.36 80.84 150.52 81.27 150.92 81.22 150.34 81 150.36"/>
                    <polygon class="st8" points="127.47 194.18 127.24 194.16 127.23 194.47 127.53 194.39 127.47 194.18"/>
                    <polygon class="st8" points="202.79 166.26 202.57 166.27 202.68 166.48 202.81 166.41 202.79 166.26"/>
                    <polygon class="st8" points="179.76 164.95 179.55 165 179.54 165.23 179.85 165.24 179.76 164.95"/>
                    <polygon class="st8" points="179.25 164.76 179.34 165.06 179.55 165 179.76 164.95 179.85 165.24 202.11 166.48 185.63 185.48 179.85 165.24 179.54 165.23 179.55 165 179.34 165.06 185.42 186.4 203.04 166.08 179.25 164.76"/>
                    <polygon class="st8" points="185.7 185.81 185.53 185.95 185.7 186.1 185.82 185.96 185.7 185.81"/>
                    <polygon class="st8" points="179.55 165 179.34 165.06 179.41 165.34 179.66 165.2 179.55 165"/>
                    <polygon class="st8" points="127.7 194.19 127.47 194.18 127.5 194.39 127.69 194.37 127.7 194.19"/>
                    <polygon class="st8" points="142.31 73.44 142.15 73.59 142.21 73.8 142.56 73.71 142.31 73.44"/>
                    <polygon class="st8" points="142.15 73.59 141.98 73.73 142.82 74.66 142.35 73.51 142.15 73.59"/>
                    <polygon class="st8" points="142.15 73.59 141.94 73.67 142.09 74.02 142.32 73.73 142.15 73.59"/>
                    <polygon class="st8" points="185.53 185.95 185.35 186.08 185.49 186.26 185.66 186.12 185.53 185.95"/>
                  </g>
                  <g class="st11">
                    <polygon class="st8" points="148.94 113.79 148.75 113.79 148.72 113.98 148.94 114.01 148.94 113.79"/>
                    <polygon class="st8" points="188.49 106.82 165.41 105.54 148.84 113.81 148.98 114.23 148.94 114.01 148.89 113.79 150.44 113.51 165.51 106 186.54 107.16 150.44 113.51 149.04 114.21 148.94 114.01 148.98 114.23 188.52 107.27 188.49 106.82"/>
                    <polygon class="st8" points="148.89 113.79 148.94 114.01 149.04 114.21 150.44 113.51 148.89 113.79"/>
                    <polygon class="st8" points="165.68 105.74 165.46 105.78 165.24 105.79 165.22 105.64 149.23 113.62 158.51 56.51 165.22 105.64 165.35 105.57 165.46 105.78 165.68 105.74 158.76 54.96 158.31 54.95 148.65 114.41 165.7 105.9 165.68 105.74"/>
                    <polygon class="st8" points="165.35 105.57 165.22 105.64 165.24 105.79 165.46 105.78 165.35 105.57"/>
                    <polygon class="st8" points="188.49 106.82 188.18 106.81 188.27 107.1 188.49 107.05 188.49 106.82"/>
                    <polygon class="st8" points="188.69 106.99 188.49 107.05 188.27 107.1 188.18 106.81 165.92 105.57 182.4 86.57 188.18 106.81 188.49 106.82 188.49 107.05 188.69 106.99 182.61 85.64 164.99 105.97 188.78 107.29 188.69 106.99"/>
                    <polygon class="st8" points="182.33 85.95 182.21 86.09 182.33 86.23 182.5 86.1 182.33 85.95"/>
                    <polygon class="st8" points="182.68 85.97 182.5 86.1 182.33 86.23 182.21 86.09 165.62 105.25 158.87 55.79 182.21 86.09 182.33 85.95 182.5 86.1 182.68 85.97 158.19 54.19 165.3 106.29 182.79 86.11 182.68 85.97"/>
                    <polygon class="st8" points="188.62 106.71 188.37 106.85 188.49 107.05 188.69 106.99 188.62 106.71"/>
                    <polygon class="st8" points="158.61 54.78 158 54.55 158.34 55.1 158.53 54.99 158.61 54.78"/>
                    <polygon class="st8" points="158.3 54.99 158.3 54.99 158.3 54.99 158.3 54.99"/>
                    <polygon class="st8" points="158.53 54.99 158.3 54.99 158.31 55.03 158.76 54.99 158.53 54.99"/>
                    <polygon class="st8" points="88.03 137.96 87.71 137.56 87.64 138.06 87.86 138.09 88.03 137.96"/>
                    <polygon class="st8" points="87.74 137.91 87.52 138.03 87.69 138.23 87.86 138.09 87.74 137.91"/>
                    <polygon class="st8" points="182.54 85.79 182.37 85.93 182.5 86.1 182.68 85.97 182.54 85.79"/>
                  </g>
                </g>
                <g>
                  <path class="st16" d="M183.26,86.77c.39-.69.15-1.56-.54-1.95-.69-.39-1.56-.15-1.95.54-.39.69-.15,1.56.54,1.95.69.39,1.56.15,1.95-.54Z"/>
                  <path class="st16" d="M89.47,139.27c.69-1.22.26-2.77-.96-3.46-1.22-.69-2.77-.26-3.46.96-.69,1.22-.26,2.77.96,3.46,1.22.69,2.77.26,3.46-.96Z"/>
                  <path class="st16" d="M143.92,74.67c.53-.94.2-2.14-.74-2.68-.94-.53-2.14-.2-2.68.74-.53.94-.2,2.14.74,2.68.94.53,2.14.2,2.68-.74Z"/>
                  <path class="st16" d="M82,150.86c.39-.69.15-1.56-.54-1.95-.69-.39-1.56-.15-1.95.54-.39.69-.15,1.56.54,1.95.69.39,1.56.15,1.95-.54Z"/>
                  <path class="st16" d="M190.98,108.94c.82-1.45.31-3.29-1.14-4.11-1.45-.82-3.29-.31-4.11,1.14-.82,1.45-.31,3.29,1.14,4.11,1.45.82,3.29.31,4.11-1.14Z"/>
                  <path class="st16" d="M111.47,178.02c.82-1.45.31-3.29-1.14-4.11-1.45-.82-3.29-.31-4.11,1.14s-.31,3.29,1.14,4.11c1.45.82,3.29.31,4.11-1.14Z"/>
                  <path class="st16" d="M215.55,186.53c.39-.68.15-1.55-.54-1.94-.69-.39-1.55-.15-1.94.54-.39.68-.15,1.55.54,1.94.68.39,1.55.14,1.94-.54Z"/>
                  <path class="st16" d="M189.38,188.45c1.33-2.36.5-5.36-1.86-6.69-2.36-1.33-5.36-.5-6.69,1.86-1.33,2.36-.5,5.36,1.86,6.69,2.36,1.33,5.36.5,6.69-1.86Z"/>
                  <path class="st16" d="M154.19,86.72c.24-.42.09-.96-.33-1.19-.42-.24-.96-.09-1.19.33-.24.42-.09.96.33,1.19.42.24.96.09,1.19-.33Z"/>
                  <path class="st16" d="M159.47,55.56c.24-.42.09-.96-.33-1.19-.42-.24-.96-.09-1.19.33-.24.42-.09.96.33,1.19.42.24.96.09,1.19-.33Z"/>
                  <path class="st16" d="M169.98,40.29c.07.12.18.22.3.29.13.07.27.11.41.11l-.71-.4Z"/>
                  <path class="st16" d="M161.47,69.35c.24-.42.09-.96-.33-1.19-.42-.24-.96-.09-1.19.33-.24.42-.09.96.33,1.19.42.24.96.09,1.19-.33Z"/>
                  <path class="st16" d="M169.45,102.68c.14-.26.05-.58-.2-.73-.26-.14-.58-.05-.73.2-.14.26-.05.58.2.73.26.14.58.05.73-.2Z"/>
                  <path class="st16" d="M148.77,61.35c.14-.26.05-.58-.2-.73-.26-.14-.58-.05-.73.2-.14.26-.05.58.2.73.26.14.58.05.73-.2Z"/>
                  <path class="st16" d="M128.49,194.17c.14-.26.05-.58-.2-.73-.26-.14-.58-.05-.73.2-.14.26-.05.58.2.73.26.14.58.05.73-.2Z"/>
                  <path class="st16" d="M157.25,110.76c.14-.26.05-.58-.2-.73-.26-.14-.58-.05-.73.2-.14.26-.05.58.2.73.26.14.58.05.73-.2Z"/>
                  <path class="st16" d="M158.81,112.87c.14-.26.05-.58-.2-.73-.26-.14-.58-.05-.73.2-.14.26-.05.58.2.73.26.14.58.05.73-.2Z"/>
                  <path class="st16" d="M172.74,106.06c.14-.26.05-.58-.2-.73-.26-.14-.58-.05-.73.2-.14.26-.05.58.2.73.26.14.58.05.73-.2Z"/>
                  <path class="st16" d="M94.42,163.02c.14-.26.05-.58-.2-.73-.26-.14-.58-.05-.73.2-.14.26-.05.58.2.73.26.14.58.05.73-.2Z"/>
                  <path class="st16" d="M96.72,153c.14-.26.05-.58-.2-.73-.26-.14-.58-.05-.73.2-.14.26-.05.58.2.73.26.14.58.05.73-.2Z"/>
                  <path class="st16" d="M180.36,165.99c.38-.67.14-1.52-.53-1.9-.67-.38-1.52-.14-1.9.53-.38.67-.14,1.52.53,1.9.67.38,1.52.14,1.9-.53Z"/>
                </g>
              </g>
            </g>
          </g>
        </g>
      </g>
    </g>
  </g>
</svg>