<?xml version="1.0" encoding="UTF-8"?>
<svg xmlns="http://www.w3.org/2000/svg" version="1.1" viewBox="0 0 595.28 595.28">
  <!-- Generator: Adobe Illustrator 29.7.1, SVG Export Plug-In . SVG Version: 2.1.1 Build 8)  -->
  <defs>
    <style>
      .st0 {
        fill: #fff000;
      }

      .st0, .st1 {
        fill-opacity: .6;
      }

      .st2 {
        fill: none;
        stroke: #231815;
        stroke-miterlimit: 10;
        stroke-width: .5px;
      }

      .st3 {
        fill: #231815;
      }

      .st4 {
        fill: #ff0;
      }

      .st5 {
        fill: #e00a4c;
      }

      .st6 {
        opacity: .48;
      }

      .st1 {
        fill: #c9569a;
      }
    </style>
  </defs>
  <g id="_レイヤー_1">
    <g class="st6">
      <g>
        <path class="st3" d="M388.68,85.86l-.21.07-.3-.91-.91.3.3.91-.21.07-.64-1.9.21-.07.27.81.91-.3-.27-.81.21-.07.64,1.9Z"/>
        <path class="st3" d="M389.87,85.1c.04.11.08.23.13.32l-.19.06-.08-.17h0c-.04.13-.14.28-.33.34-.26.09-.46-.06-.53-.25-.11-.33.12-.6.62-.77-.04-.11-.13-.37-.44-.27-.12.04-.23.11-.3.21l-.1-.13c.08-.11.22-.2.38-.25.39-.13.58.11.67.38l.18.53h-.01ZM389.54,84.78c-.26.09-.57.23-.47.52.06.18.19.22.32.17.2-.07.29-.27.24-.44l-.09-.26h0Z"/>
        <path class="st3" d="M390.21,84.08c.03-.19.16-.33.37-.4.32-.11.64.09.78.51.17.5-.06.83-.34.92-.2.07-.37.03-.53-.11h0l.06.23-.18.06c-.03-.09-.07-.23-.1-.34l-.56-1.66.21-.07.29.86h0ZM390.41,84.69c.07.2.28.34.51.27.27-.09.34-.37.23-.69-.1-.28-.32-.49-.58-.4-.24.08-.32.35-.25.55l.09.27h0Z"/>
        <path class="st3" d="M391.47,83.14c-.08.03-.15-.02-.18-.1s0-.16.09-.19.16.02.18.1c.03.09-.01.16-.09.19ZM392.11,84.71l-.21.07-.46-1.36.21-.07.46,1.36Z"/>
        <path class="st3" d="M392.04,82.94l.18-.14.11.32.35-.12.05.16-.35.12.26.79c.06.17.14.25.27.21.06-.02.1-.04.13-.07l.07.16s-.1.07-.19.1c-.33.11-.44-.19-.49-.33l-.26-.78-.21.07-.05-.16.21-.07-.08-.25h0Z"/>
        <path class="st3" d="M393.01,83.48l.68-.23.05.16-.68.23-.05-.16Z"/>
        <path class="st3" d="M393.64,82.11c.13-.07.29-.14.47-.2.77-.26,1.14.12,1.29.59.1.3.11.59-.01.84-.11.23-.35.42-.7.53-.16.05-.29.09-.42.12l-.63-1.88h0ZM394.42,83.76c.07-.01.16-.04.25-.07.52-.17.7-.56.52-1.1-.17-.5-.52-.67-1.02-.51-.12.04-.21.08-.27.12l.52,1.56Z"/>
        <path class="st3" d="M396.26,82.01s-.05.01-.08.02c-.22.07-.27.34-.19.57l.25.74-.21.07-.32-.96c-.05-.15-.09-.28-.15-.4l.18-.06.1.26h0c0-.19.11-.36.27-.42.02,0,.04,0,.07-.01l.07.2h0Z"/>
        <path class="st3" d="M396.47,81.48c-.08.03-.15-.02-.18-.1s0-.16.09-.19.16.02.18.1c.03.09-.01.16-.09.19ZM397.11,83.05l-.21.07-.46-1.36.21-.07.46,1.36Z"/>
        <path class="st3" d="M398.11,81.19l-.06,1.54-.2.07-.96-1.2.22-.07.54.7c.08.11.16.21.23.31h0v-1.27l.23-.07h0Z"/>
        <path class="st3" d="M399.74,82.1c-.06.06-.19.16-.4.23-.4.13-.73-.07-.87-.48-.14-.43,0-.82.36-.94.42-.14.66.21.74.45.02.05.03.08.03.12l-.93.31c.13.38.39.45.64.37.17-.06.26-.13.33-.19l.09.14h.01ZM399.36,81.39c-.06-.19-.22-.4-.49-.31-.25.08-.28.36-.24.55l.72-.24h0Z"/>
        <path class="st3" d="M401.23,81.67l-.21.07-.27-.81c-.07-.22-.22-.39-.46-.31-.18.06-.31.27-.23.51l.28.84-.21.07-.34-1.01c-.05-.14-.09-.24-.13-.35l.18-.06.09.22h0c.02-.16.14-.33.35-.4.17-.06.49-.05.65.41l.28.83h.02Z"/>
        <path class="st3" d="M403.45,80.86c-.07.07-.23.17-.45.24-.49.16-.99-.02-1.21-.67s.05-1.13.61-1.31c.23-.08.38-.07.45-.06v.19c-.1-.01-.23,0-.38.04-.43.14-.63.53-.46,1.06s.54.71.98.56c.15-.05.28-.13.36-.21l.1.15h0Z"/>
        <path class="st3" d="M404.69,79.74c.17.51-.09.84-.4.94-.35.12-.71-.06-.86-.5-.16-.47.05-.82.4-.94.37-.12.72.08.86.5ZM403.88,79.41c-.3.1-.32.43-.23.69.1.3.35.49.6.41s.34-.39.23-.69c-.08-.24-.3-.51-.6-.41Z"/>
        <path class="st3" d="M407.09,79.71l-.2.07-.26-.79c-.09-.27-.24-.4-.45-.33-.17.06-.27.26-.2.47l.29.86-.21.07-.28-.84c-.07-.22-.22-.35-.41-.29-.18.06-.28.29-.21.5l.28.84-.21.07-.34-1.01c-.05-.14-.09-.24-.13-.35l.18-.06.09.22h0c.03-.16.12-.32.33-.39.18-.06.35,0,.46.15h0c.04-.19.14-.35.35-.42.17-.06.47-.04.62.43l.27.82.03-.02Z"/>
        <path class="st3" d="M409.35,78.96l-.2.07-.26-.79c-.09-.27-.24-.4-.45-.33-.17.06-.27.26-.2.47l.29.86-.21.07-.28-.84c-.07-.22-.22-.35-.41-.29-.18.06-.28.29-.21.5l.28.84-.21.07-.34-1.01c-.05-.14-.09-.24-.13-.35l.18-.06.09.22h0c.03-.16.12-.32.33-.39.18-.06.35,0,.46.15h0c.04-.19.14-.35.35-.42.17-.06.47-.04.62.43l.27.82.03-.02Z"/>
        <path class="st3" d="M410.69,78.11c.05.14.09.26.13.36l-.19.06-.08-.21h0c-.03.13-.12.32-.35.39-.2.07-.49.03-.64-.44l-.27-.81.21-.07.26.77c.09.27.23.42.45.35.16-.05.31-.25.23-.49l-.28-.85.21-.07.33,1h-.01Z"/>
        <path class="st3" d="M412.31,77.97l-.21.07-.27-.81c-.07-.22-.22-.39-.46-.31-.18.06-.31.27-.23.51l.28.84-.21.07-.34-1.01c-.05-.14-.09-.24-.13-.35l.18-.06.09.22h0c.02-.16.14-.33.35-.4.17-.06.49-.05.65.41l.28.83h.02Z"/>
        <path class="st3" d="M412.27,76.2c-.08.03-.15-.02-.18-.1s0-.16.09-.19.16.02.18.1c.03.09-.01.16-.09.19ZM412.91,77.77l-.21.07-.46-1.36.21-.07.46,1.36Z"/>
        <path class="st3" d="M412.84,76l.18-.14.11.32.35-.12.05.16-.35.12.26.79c.06.17.14.25.27.21.06-.02.1-.04.13-.07l.07.16s-.1.07-.19.1c-.33.11-.44-.19-.49-.33l-.26-.78-.21.07-.05-.16.21-.07-.08-.25h0Z"/>
        <path class="st3" d="M414.78,75.63l-.04,1.09c-.01.5-.04.79-.16,1.01-.08.14-.18.22-.22.25l-.12-.16c.28-.22.29-.61.28-.64,0-.01-.02-.03-.03-.05l-.91-1.1.23-.08.57.73c.07.08.13.18.18.26h0v-1.24l.22-.07Z"/>
        <path class="st3" d="M417.42,76.26l-.22.07-.41-.55-.66.22v.69l-.21.07v-2.12l.24-.08,1.27,1.7h0ZM416.69,75.64l-.38-.5c-.08-.12-.16-.23-.22-.33h0c.01.13.02.26.02.39v.64l.58-.19h0Z"/>
        <path class="st3" d="M417.06,74.27l.21-.07.64,1.91-.21.07-.64-1.91Z"/>
        <path class="st3" d="M420.67,74.9l-.07.15-.92-.46-.46.92-.15-.08.46-.92-.92-.46.07-.15.92.46.46-.93.15.07-.46.92.92.46v.02Z"/>
        <path class="st3" d="M421.36,72.86c.13-.07.29-.14.47-.2.77-.26,1.14.12,1.29.59.1.3.11.59-.01.84-.11.23-.35.42-.7.53-.16.05-.29.09-.42.12l-.63-1.88h0ZM422.14,74.5c.07-.01.16-.04.25-.07.52-.17.7-.56.52-1.1-.17-.5-.52-.67-1.02-.51-.12.04-.21.08-.27.12l.52,1.56Z"/>
        <path class="st3" d="M425,73.73l-.24.08-.4-.36c-.15-.13-.24-.21-.34-.31h0c-.02.13-.04.25-.08.45l-.09.52-.24.08.24-1.15-.86-.76.24-.08.41.38c.11.1.19.18.28.27h0c.02-.14.04-.24.06-.38l.11-.55.24-.08-.25,1.12.9.79.02-.02Z"/>
        <path class="st3" d="M425.47,72.69l2.66-.89.05.15-2.66.89-.05-.15Z"/>
        <path class="st3" d="M430.21,71.59c.05.14.09.26.13.36l-.19.06-.08-.21h0c-.03.13-.12.32-.35.39-.2.07-.49.03-.64-.44l-.27-.81.21-.07.26.77c.09.27.23.42.45.35.16-.05.31-.25.23-.49l-.28-.85.21-.07.33,1h-.01Z"/>
        <path class="st3" d="M430.99,70.45c-.06-.02-.17-.03-.29,0-.15.05-.2.17-.16.28.04.12.14.15.34.16.25.02.42.09.48.29.08.24-.05.46-.35.56-.14.05-.28.05-.39.03v-.18c.09.02.23.03.34-.01.18-.06.24-.19.2-.31s-.14-.17-.34-.19c-.26-.02-.42-.1-.48-.27-.07-.21.04-.44.32-.54.13-.04.25-.04.34-.02v.2Z"/>
        <path class="st3" d="M432.88,71.1l-.21.07-.27-.81c-.07-.22-.22-.39-.45-.31-.16.05-.32.25-.23.5l.28.84-.21.07-.67-2,.21-.07.28.85h0c.04-.18.17-.33.34-.39s.49-.05.64.41l.28.83h.01Z"/>
        <path class="st3" d="M434.23,70.59c-.06.06-.19.16-.4.23-.4.13-.73-.07-.87-.48-.14-.43,0-.82.36-.94.42-.14.66.21.74.45.02.05.03.08.03.12l-.93.31c.13.38.39.45.64.37.17-.06.26-.13.33-.19l.09.14h.01ZM433.84,69.88c-.06-.19-.22-.4-.49-.31-.25.08-.28.36-.24.55l.72-.24h0Z"/>
        <path class="st3" d="M434.85,69.12s-.05.01-.08.02c-.22.07-.27.34-.19.57l.25.74-.21.07-.32-.96c-.05-.15-.09-.28-.15-.4l.18-.06.1.26h0c0-.19.11-.36.27-.42.02,0,.04,0,.07-.01l.07.2h0Z"/>
        <path class="st3" d="M435.06,68.59c-.08.03-.15-.02-.18-.1s0-.16.09-.19.16.02.18.1c.03.09-.01.16-.09.19ZM435.7,70.16l-.21.07-.46-1.36.21-.07.46,1.36Z"/>
        <path class="st3" d="M437.2,69.66l-.21.07-.27-.81c-.07-.22-.22-.39-.46-.31-.18.06-.31.27-.23.51l.28.84-.21.07-.34-1.01c-.05-.14-.09-.24-.13-.35l.18-.06.09.22h0c.02-.16.14-.33.35-.4.17-.06.49-.05.65.41l.28.83h.02Z"/>
        <path class="st3" d="M438.25,67.79c.02.1.06.21.11.38l.27.8c.08.24.26.78-.39,1-.16.05-.34.07-.46.04v-.18c.11.02.26.03.42-.03.25-.08.39-.28.27-.64l-.05-.16h0c-.03.15-.14.31-.35.38-.33.11-.65-.1-.78-.48-.16-.47.05-.82.35-.92.23-.08.4,0,.49.1h0l-.06-.21.19-.06v-.02ZM438.21,68.39c-.08-.24-.3-.33-.49-.27-.24.08-.34.35-.23.68.1.29.31.47.58.38.15-.05.33-.24.23-.52,0,0-.09-.27-.09-.27Z"/>
        <path class="st3" d="M439.25,67.19c-.08.03-.15-.02-.18-.1s0-.16.09-.19.16.02.18.1c.03.09-.01.16-.09.19ZM439.89,68.76l-.21.07-.46-1.36.21-.07.46,1.36Z"/>
        <path class="st3" d="M441.39,68.26l-.21.07-.27-.81c-.07-.22-.22-.39-.46-.31-.18.06-.31.27-.23.51l.28.84-.21.07-.34-1.01c-.05-.14-.09-.24-.13-.35l.18-.06.09.22h0c.02-.16.14-.33.35-.4.17-.06.49-.05.65.41l.28.83h.02Z"/>
        <path class="st3" d="M442.95,66.23l-.04,1.09c-.01.5-.04.79-.16,1.01-.08.14-.18.22-.22.25l-.12-.16c.28-.22.29-.61.28-.64,0-.01-.02-.03-.03-.05l-.91-1.1.23-.08.57.73c.07.08.13.18.18.26h0v-1.24l.22-.07Z"/>
        <path class="st3" d="M444.56,66.43c.17.51-.09.84-.4.94-.35.12-.71-.06-.86-.5-.16-.47.05-.82.4-.94.37-.12.72.08.86.5ZM443.75,66.1c-.3.1-.32.43-.23.69.1.3.35.49.6.41s.34-.39.23-.69c-.08-.24-.3-.51-.6-.41Z"/>
        <path class="st3" d="M446.05,66.3c.05.14.09.26.13.36l-.19.06-.08-.21h0c-.03.13-.12.32-.35.39-.2.07-.49.03-.64-.44l-.27-.81.21-.07.26.77c.09.27.23.42.45.35.16-.05.31-.25.23-.49l-.28-.85.21-.07.33,1h-.01Z"/>
        <path class="st3" d="M446.8,65.13s-.05.01-.08.02c-.22.07-.27.34-.19.57l.25.74-.21.07-.32-.96c-.05-.15-.09-.28-.15-.4l.18-.06.1.26h0c0-.19.11-.36.27-.42.02,0,.04,0,.07-.01l.07.2h0Z"/>
        <path class="st3" d="M449.11,65.68l-.21.07-.27-.81c-.07-.22-.22-.39-.46-.31-.18.06-.31.27-.23.51l.28.84-.21.07-.34-1.01c-.05-.14-.09-.24-.13-.35l.18-.06.09.22h0c.02-.16.14-.33.35-.4.17-.06.49-.05.65.41l.28.83h.02Z"/>
        <path class="st3" d="M450.45,65.17c-.06.06-.19.16-.4.23-.4.13-.73-.07-.87-.48-.14-.43,0-.82.36-.94.42-.14.66.21.74.45.02.05.03.08.03.12l-.93.31c.13.38.39.45.64.37.17-.06.26-.13.33-.19l.09.14h.01ZM450.07,64.46c-.06-.19-.22-.4-.49-.31-.25.08-.28.36-.24.55l.72-.24h0Z"/>
        <path class="st3" d="M452.15,63.15l.02,1.51-.18.06-.44-.61c-.1-.14-.19-.26-.27-.41h0c.02.18.03.33.03.5v.76l-.19.06-.86-1.23.21-.07.43.65c.09.14.17.27.25.4h0c-.02-.15-.02-.31-.02-.47v-.79l.17-.06.45.63c.1.14.19.28.27.4h0c-.02-.15-.03-.3-.04-.48l-.04-.78s.21-.07.21-.07Z"/>
        <path class="st3" d="M454.38,63.86c-.06.06-.19.16-.4.23-.4.13-.73-.07-.87-.48-.14-.43,0-.82.36-.94.42-.14.66.21.74.45.02.05.03.08.03.12l-.93.31c.13.38.39.45.64.37.17-.06.26-.13.33-.19l.09.14h.01ZM453.99,63.15c-.06-.19-.22-.4-.49-.31-.25.08-.28.36-.24.55l.72-.24h0Z"/>
        <path class="st3" d="M455,62.39s-.05,0-.08.02c-.22.07-.27.34-.19.57l.25.74-.21.07-.32-.96c-.05-.15-.09-.28-.15-.4l.18-.06.1.26h0c0-.19.11-.36.27-.42.02,0,.04,0,.07,0l.07.2h0Z"/>
        <path class="st3" d="M456.43,62.88c.04.11.08.23.13.32l-.19.06-.08-.17h0c-.04.13-.14.28-.33.34-.26.09-.46-.06-.53-.25-.11-.33.12-.6.62-.77-.04-.11-.13-.37-.44-.27-.12.04-.23.11-.3.21l-.1-.13c.08-.11.22-.2.38-.25.39-.13.58.11.67.38l.18.53h-.01ZM456.09,62.57c-.26.09-.57.23-.47.52.06.18.19.22.32.17.2-.07.29-.27.24-.44l-.09-.26h0Z"/>
        <path class="st3" d="M456.83,62.96c-.03-.09,0-.18.1-.21s.17.02.2.11,0,.18-.1.21-.17-.03-.2-.11Z"/>
      </g>
      <polygon class="st3" points="380.84 120.11 380.41 120 388.24 88.65 459.61 64.82 459.76 65.25 388.61 89 380.84 120.11"/>
      <circle class="st3" cx="380.63" cy="120.05" r="2.34"/>
    </g>
    <g class="st6">
      <path class="st3" d="M114.53,236.75l-.18.06-.34-.46-.55.18v.57l-.17.06v-1.77l.2-.07,1.06,1.42h-.02ZM113.92,236.23l-.31-.42c-.07-.1-.13-.19-.18-.28h0c0,.1.02.22.02.33v.53l.48-.16h-.01Z"/>
      <path class="st3" d="M115.11,235.5c.03-.15.13-.28.31-.34.27-.09.54.08.65.43.14.41-.05.69-.29.77-.17.06-.31.03-.44-.09h0l.05.19-.15.05c-.02-.08-.05-.19-.09-.29l-.46-1.39.17-.06.24.72h0ZM115.27,236.01c.06.17.24.29.43.22.22-.07.28-.31.19-.58-.08-.24-.27-.41-.49-.33-.2.07-.26.29-.21.46l.08.23h0Z"/>
      <path class="st3" d="M116.72,234.92s-.04,0-.06.02c-.19.06-.22.28-.16.47l.21.62-.17.06-.27-.8c-.04-.12-.08-.23-.12-.34l.15-.05.08.22h0c0-.16.09-.3.23-.35.02,0,.03,0,.05-.01l.06.17h0Z"/>
      <path class="st3" d="M117.91,235.32c.03.09.07.19.11.27l-.16.05-.07-.14h0c-.03.11-.12.23-.28.29-.22.07-.39-.05-.44-.21-.09-.27.1-.5.52-.64-.03-.1-.1-.31-.36-.23-.1.03-.19.09-.25.17l-.08-.1c.07-.09.19-.17.31-.21.32-.11.48.09.56.32l.15.44h0ZM117.63,235.06c-.22.07-.48.19-.39.43.05.15.16.18.27.14.17-.06.25-.23.2-.36l-.07-.21h0Z"/>
      <path class="st3" d="M119.25,235.18l-.17.06-.22-.67c-.06-.19-.18-.33-.38-.26-.15.05-.26.23-.19.42l.23.7-.17.06-.28-.85c-.04-.12-.07-.2-.11-.29l.16-.05.07.18h0c.02-.13.12-.27.3-.33.14-.05.41-.04.54.34l.23.69h0Z"/>
      <path class="st3" d="M120.41,234.48c.03.09.07.2.1.28l-.15.05-.07-.19h0c-.02.14-.11.28-.3.35-.26.09-.54-.07-.66-.42-.13-.38.02-.69.29-.77.17-.06.31-.01.39.07h0l-.23-.69.17-.06.46,1.39h0ZM120.1,234.13c-.08-.23-.27-.29-.42-.24-.22.07-.28.32-.19.58.08.24.26.41.49.33.19-.06.26-.27.2-.45l-.07-.22h0Z"/>
      <path class="st3" d="M120.51,233.97l.57-.19.04.13-.57.19-.04-.13Z"/>
      <path class="st3" d="M122.48,234.1l-.17.06-.22-.67c-.06-.19-.18-.33-.38-.26-.15.05-.26.23-.19.42l.23.7-.17.06-.28-.85c-.04-.12-.07-.2-.11-.29l.16-.05.07.18h0c.02-.13.12-.27.3-.33.14-.05.41-.04.54.34l.23.69h0Z"/>
      <path class="st3" d="M123.61,233.67c-.05.05-.16.13-.33.19-.33.11-.61-.06-.72-.4-.12-.36,0-.68.3-.78.35-.12.55.17.61.37,0,.04.02.07.03.1l-.78.26c.11.31.33.37.53.31.14-.05.22-.11.28-.16l.08.11ZM123.28,233.08c-.05-.16-.18-.33-.4-.26-.21.07-.23.3-.2.46l.6-.2h0Z"/>
      <path class="st3" d="M125.02,231.98l.02,1.26-.16.05-.37-.51c-.09-.11-.16-.22-.23-.34h0c.02.15.02.28.02.42v.63l-.16.05-.72-1.03.18-.06.36.54c.07.12.14.22.21.33h0c0-.12-.02-.26-.02-.4v-.66l.14-.05.38.53c.08.12.16.23.22.34h0c-.02-.12-.03-.25-.03-.4l-.03-.65.17-.06h.02Z"/>
      <path class="st3" d="M126.28,232.83l-.17.06-.56-1.67.17-.06.56,1.67Z"/>
      <path class="st3" d="M127.42,232.4c-.05.05-.16.13-.33.19-.33.11-.61-.06-.72-.4-.12-.36,0-.68.3-.78.35-.12.55.17.61.37,0,.04.02.07.03.1l-.78.26c.11.31.33.37.53.31.14-.05.22-.11.28-.16l.08.11ZM127.09,231.8c-.05-.16-.18-.33-.4-.26-.21.07-.23.3-.2.46l.6-.2h0Z"/>
      <path class="st3" d="M128.41,231.82c.03.09.07.19.11.27l-.16.05-.07-.14h0c-.03.11-.12.23-.28.29-.22.07-.39-.05-.44-.21-.09-.27.1-.5.52-.64-.03-.1-.1-.31-.36-.23-.1.03-.19.09-.25.17l-.08-.1c.07-.09.19-.17.31-.21.32-.11.48.09.56.32l.15.44h0ZM128.13,231.56c-.22.07-.48.19-.39.43.05.15.16.18.27.14.17-.06.25-.23.2-.36l-.07-.21h0Z"/>
      <path class="st3" d="M129.03,230.81s-.04,0-.06.02c-.19.06-.22.28-.16.47l.21.62-.17.06-.27-.8c-.04-.12-.08-.23-.12-.34l.15-.05.08.22h0c0-.16.09-.3.23-.35.02,0,.03,0,.05-.01l.06.17h0Z"/>
      <path class="st3" d="M130.47,231.43l-.17.06-.22-.67c-.06-.19-.18-.33-.38-.26-.15.05-.26.23-.19.42l.23.7-.17.06-.28-.85c-.04-.12-.07-.2-.11-.29l.16-.05.07.18h0c.02-.13.12-.27.3-.33.14-.05.41-.04.54.34l.23.69h0Z"/>
      <path class="st3" d="M130.45,229.95c-.07.02-.13-.01-.15-.08s0-.13.08-.16.13.02.15.08c.02.07,0,.14-.08.16ZM130.98,231.26l-.17.06-.38-1.14.17-.06.38,1.14Z"/>
      <path class="st3" d="M132.24,230.84l-.17.06-.22-.67c-.06-.19-.18-.33-.38-.26-.15.05-.26.23-.19.42l.23.7-.17.06-.28-.85c-.04-.12-.07-.2-.11-.29l.16-.05.07.18h0c.02-.13.12-.27.3-.33.14-.05.41-.04.54.34l.23.69h0Z"/>
      <path class="st3" d="M133.13,229.28c.02.08.05.18.09.32l.22.66c.07.2.21.66-.32.84-.13.04-.28.06-.39.03v-.15c.09.02.21.02.35-.02.21-.07.32-.23.22-.53l-.05-.14h0c-.02.13-.12.26-.29.31-.27.09-.55-.08-.65-.4-.13-.39.05-.69.29-.77.19-.07.33,0,.41.08h0l-.05-.18.16-.05h0ZM133.09,229.78c-.07-.2-.25-.28-.41-.22-.2.07-.28.29-.19.57.08.24.26.39.48.32.13-.04.27-.2.19-.44l-.08-.23h.01Z"/>
      <path class="st3" d="M135.12,229.83c-.05.05-.16.13-.33.19-.33.11-.61-.06-.72-.4-.12-.36,0-.68.3-.78.35-.12.55.17.61.37,0,.04.02.07.03.1l-.78.26c.11.31.33.37.53.31.14-.05.22-.11.28-.16l.08.11ZM134.8,229.23c-.05-.16-.18-.33-.4-.26-.21.07-.23.3-.2.46l.6-.2h0Z"/>
      <path class="st3" d="M135.89,228.35l-.19.68.58.46-.2.07-.26-.21c-.07-.06-.12-.11-.19-.17h0c0,.09-.03.16-.05.25l-.08.32-.19.06.2-.71-.56-.43.19-.06.25.2c.06.05.12.1.18.15h0c0-.08.03-.16.05-.23l.08-.31.19-.06h0Z"/>
      <path class="st3" d="M136.34,228.42c.03-.17.14-.29.32-.35.27-.09.54.08.66.43.14.42-.04.69-.29.78-.15.05-.3.02-.4-.07h0l.21.62-.17.06-.41-1.24c-.05-.15-.09-.26-.13-.36l.16-.05.08.19h-.03ZM136.51,228.91c.07.22.28.28.43.23.22-.07.28-.31.19-.58-.08-.24-.27-.41-.49-.33-.19.07-.26.3-.21.46l.07.22h.01Z"/>
      <path class="st3" d="M138.56,228.68c-.05.05-.16.13-.33.19-.33.11-.61-.06-.72-.4-.12-.36,0-.68.3-.78.35-.12.55.17.61.37,0,.04.02.07.03.1l-.78.26c.11.31.33.37.53.31.14-.05.22-.11.28-.16l.08.11ZM138.24,228.08c-.05-.16-.18-.33-.4-.26-.21.07-.23.3-.2.46l.6-.2h0Z"/>
      <path class="st3" d="M139.09,227.45s-.04,0-.06.02c-.19.06-.22.28-.16.47l.21.62-.17.06-.27-.8c-.04-.12-.08-.23-.12-.34l.15-.05.08.22h0c0-.16.09-.3.23-.35.02,0,.03,0,.05-.01l.06.17h0Z"/>
      <path class="st3" d="M139.26,227.01c-.07.02-.13-.01-.15-.08s0-.13.08-.16.13.02.15.08c.02.07,0,.14-.08.16ZM139.79,228.32l-.17.06-.38-1.14.17-.06.38,1.14Z"/>
      <path class="st3" d="M140.93,227.89c-.05.05-.16.13-.33.19-.33.11-.61-.06-.72-.4-.12-.36,0-.68.3-.78.35-.12.55.17.61.37,0,.04.02.07.03.1l-.78.26c.11.31.33.37.53.31.14-.05.22-.11.28-.16l.08.11ZM140.61,227.29c-.05-.16-.18-.33-.4-.26-.21.07-.23.3-.2.46l.6-.2h0Z"/>
      <path class="st3" d="M142.18,227.52l-.17.06-.22-.67c-.06-.19-.18-.33-.38-.26-.15.05-.26.23-.19.42l.23.7-.17.06-.28-.85c-.04-.12-.07-.2-.11-.29l.16-.05.07.18h0c.02-.13.12-.27.3-.33.14-.05.41-.04.54.34l.23.69h0Z"/>
      <path class="st3" d="M143.27,227.11s-.14.12-.29.17c-.33.11-.62-.05-.73-.4s.03-.69.38-.8c.13-.04.24-.04.29-.03v.16c-.05-.01-.14-.02-.25.02-.26.09-.33.34-.25.59.09.28.32.39.54.32.11-.04.18-.1.23-.14l.08.12h0Z"/>
      <path class="st3" d="M144.32,226.75c-.05.05-.16.13-.33.19-.33.11-.61-.06-.72-.4-.12-.36,0-.68.3-.78.35-.12.55.17.61.37,0,.04.02.07.03.1l-.78.26c.11.31.33.37.53.31.14-.05.22-.11.28-.16l.08.11ZM144,226.16c-.05-.16-.18-.33-.4-.26-.21.07-.23.3-.2.46l.6-.2h0Z"/>
      <path class="st3" d="M145.01,225.52c.03-.15.13-.28.31-.34.27-.09.54.08.65.43.14.41-.05.69-.29.77-.17.06-.31.03-.44-.09h0l.05.19-.15.05c-.02-.08-.05-.19-.09-.29l-.46-1.39.17-.06.24.72h0ZM145.17,226.03c.06.17.24.29.43.22.22-.07.28-.31.19-.58-.08-.24-.27-.41-.49-.33-.2.07-.26.29-.21.46l.08.23h0Z"/>
      <path class="st3" d="M147.22,225.79c-.05.05-.16.13-.33.19-.33.11-.61-.06-.72-.4-.12-.36,0-.68.3-.78.35-.12.55.17.61.37,0,.04.02.07.03.1l-.78.26c.11.31.33.37.53.31.14-.05.22-.11.28-.16l.08.11ZM146.9,225.19c-.05-.16-.18-.33-.4-.26-.21.07-.23.3-.2.46l.6-.2h0Z"/>
      <path class="st3" d="M148.1,224.28c.02.08.05.18.09.32l.22.66c.07.2.21.66-.32.84-.13.04-.28.06-.39.03v-.15c.09.02.21.02.35-.02.21-.07.32-.23.22-.53l-.05-.14h0c-.02.13-.12.26-.29.31-.27.09-.55-.08-.65-.4-.13-.39.05-.69.29-.77.19-.07.33,0,.41.08h0l-.05-.18.16-.05h0ZM148.06,224.78c-.07-.2-.25-.28-.41-.22-.2.07-.28.29-.19.57.08.24.26.39.48.32.13-.04.27-.2.19-.44l-.08-.23h.01Z"/>
      <path class="st3" d="M148.46,223.94c-.07.02-.13-.01-.15-.08s0-.13.08-.16.13.02.15.08c.02.07,0,.14-.08.16ZM148.99,225.25l-.17.06-.38-1.14.17-.06.38,1.14Z"/>
      <path class="st3" d="M150.25,224.83l-.17.06-.22-.67c-.06-.19-.18-.33-.38-.26-.15.05-.26.23-.19.42l.23.7-.17.06-.28-.85c-.04-.12-.07-.2-.11-.29l.16-.05.07.18h0c.02-.13.12-.27.3-.33.14-.05.41-.04.54.34l.23.69h0Z"/>
      <path class="st3" d="M150.8,223.57c-.05-.01-.14-.03-.24,0-.13.04-.17.14-.14.23.03.1.11.12.28.14.21.01.35.07.41.25.07.2-.04.39-.29.47-.11.04-.23.04-.32.02v-.15c.08.02.19.02.29,0,.15-.05.2-.16.17-.26s-.12-.15-.29-.16c-.22-.01-.35-.09-.4-.22-.06-.18.03-.37.26-.45.11-.04.21-.04.28-.02v.15h0Z"/>
      <path class="st3" d="M152.87,223.95l-.17.06-.22-.67c-.06-.19-.18-.32-.38-.26-.13.04-.26.21-.19.42l.23.7-.17.06-.56-1.67.17-.06.24.71h0c.03-.15.15-.27.29-.32s.41-.04.54.35l.23.69h0Z"/>
      <path class="st3" d="M154,223.52c-.05.05-.16.13-.33.19-.33.11-.61-.06-.72-.4-.12-.36,0-.68.3-.78.35-.12.55.17.61.37,0,.04.02.07.03.1l-.78.26c.11.31.33.37.53.31.14-.05.22-.11.28-.16l.08.11ZM153.68,222.93c-.05-.16-.18-.33-.4-.26-.21.07-.23.3-.2.46l.6-.2h0Z"/>
      <path class="st3" d="M154.53,222.3s-.04,0-.06.02c-.19.06-.22.28-.16.47l.21.62-.17.06-.27-.8c-.04-.12-.08-.23-.12-.34l.15-.05.08.22h0c0-.16.09-.3.23-.35.02,0,.03,0,.05-.01l.06.17h0Z"/>
      <path class="st3" d="M155.86,222.9c-.05.05-.16.13-.33.19-.33.11-.61-.06-.72-.4-.12-.36,0-.68.3-.78.35-.12.55.17.61.37,0,.04.02.07.03.1l-.78.26c.11.31.33.37.53.31.14-.05.22-.11.28-.16l.08.11ZM155.53,222.31c-.05-.16-.18-.33-.4-.26-.21.07-.23.3-.2.46l.6-.2h0Z"/>
      <g>
        <polygon class="st3" points="175.26 218.66 111.86 239.83 111.72 239.41 174.95 218.3 197.28 176.11 197.67 176.32 175.26 218.66"/>
        <path class="st3" d="M156.36,222.05l2.22-.74.04.12-2.22.74-.04-.12Z"/>
        <path class="st3" d="M160.19,221.21c.03.09.07.19.11.27l-.16.05-.07-.14h0c-.03.11-.12.23-.28.29-.22.07-.39-.05-.44-.21-.09-.27.1-.5.52-.64-.03-.1-.1-.31-.36-.23-.1.03-.19.09-.25.17l-.08-.1c.07-.09.19-.17.31-.21.32-.11.48.09.56.32l.15.44h0ZM159.91,220.94c-.22.07-.48.19-.39.43.05.15.16.18.27.14.17-.06.25-.23.2-.36l-.07-.21h0Z"/>
        <path class="st3" d="M161.53,221.06l-.17.06-.22-.67c-.06-.19-.18-.33-.38-.26-.15.05-.26.23-.19.42l.23.7-.17.06-.28-.85c-.04-.12-.07-.2-.11-.29l.16-.05.07.18h0c.02-.13.12-.27.3-.33.14-.05.41-.04.54.34l.23.69h0Z"/>
        <path class="st3" d="M162.69,220.36c.03.09.07.2.1.28l-.15.05-.07-.19h0c-.02.14-.11.28-.3.35-.26.09-.54-.07-.66-.42-.13-.38.02-.69.29-.77.17-.06.31-.01.39.07h0l-.23-.69.17-.06.46,1.39h0ZM162.39,220.02c-.08-.23-.27-.29-.42-.24-.22.07-.28.32-.19.58.08.24.26.41.49.33.19-.06.26-.27.2-.45l-.07-.22h0Z"/>
        <path class="st3" d="M163.26,219c-.07.02-.13-.01-.15-.08s0-.13.08-.16.13.02.15.08c.02.07,0,.14-.08.16ZM163.8,220.31l-.17.06-.38-1.14.17-.06.38,1.14Z"/>
        <path class="st3" d="M163.74,218.83l.15-.12.09.27.29-.1.05.14-.29.1.22.66c.05.14.12.21.23.17.05-.02.09-.03.11-.06l.06.13s-.09.06-.16.08c-.28.09-.37-.16-.41-.28l-.22-.65-.18.06-.05-.14.18-.06-.07-.21h0Z"/>
        <path class="st3" d="M164.44,218.9c0-.14,0-.41-.04-.58l.18-.09c0,.21,0,.5-.03.61l-.11.05h0Z"/>
        <path class="st3" d="M166.6,218.3c-.05-.01-.14-.03-.24,0-.13.04-.17.14-.14.23.03.1.11.12.28.14.21.01.35.07.4.25.07.2-.04.39-.29.47-.11.04-.23.04-.32.02v-.15c.08.02.19.02.29,0,.15-.05.2-.16.17-.26s-.12-.15-.29-.16c-.22-.01-.35-.09-.4-.22-.06-.18.03-.37.26-.45.11-.04.21-.04.28-.02v.15h0Z"/>
        <path class="st3" d="M167.4,217.84c-.05-.14-.11-.33-.03-.5.05-.1.14-.16.23-.19.07-.02.14-.03.18-.02l.02.15s-.08,0-.14.02c-.18.06-.17.24-.11.43l.02.06.28-.09.05.14-.28.09.33,1-.17.06-.33-1-.16.05-.05-.14.16-.05h0Z"/>
        <path class="st3" d="M168.6,217.6s-.04,0-.06.02c-.19.06-.22.28-.16.47l.21.62-.17.06-.27-.8c-.04-.12-.08-.23-.12-.34l.15-.05.08.22h0c0-.16.09-.3.23-.35.02,0,.03,0,.05-.01l.06.17h0Z"/>
        <path class="st3" d="M169.93,218.21c-.05.05-.16.13-.33.19-.33.11-.61-.06-.72-.4-.12-.36,0-.68.3-.78.35-.12.55.17.61.37,0,.04.02.07.03.1l-.78.26c.11.31.33.37.53.31.14-.05.22-.11.28-.16l.08.11ZM169.61,217.61c-.05-.16-.18-.33-.4-.26-.21.07-.23.3-.2.46l.6-.2h0Z"/>
        <path class="st3" d="M171.06,217.83c-.05.05-.16.13-.33.19-.33.11-.61-.06-.72-.4-.12-.36,0-.68.3-.78.35-.12.55.17.61.37,0,.04.02.07.03.1l-.78.26c.11.31.33.37.53.31.14-.05.22-.11.28-.16l.08.11ZM170.73,217.23c-.05-.16-.18-.33-.4-.26-.21.07-.23.3-.2.46l.6-.2h0Z"/>
        <path class="st3" d="M171.31,217.68c-.03-.08,0-.15.08-.18s.14.02.17.09c.03.08,0,.15-.08.17s-.14-.02-.17-.09h0Z"/>
        <circle class="st3" cx="197.48" cy="176.22" r="2.34"/>
      </g>
    </g>
    <path class="st3" d="M436.44,242.97l-204.82,72.78-72.78-204.82,204.82-72.78,72.78,204.82ZM231.87,315.22l204.04-72.51-72.51-204.04-204.04,72.51,72.51,204.04h0Z"/>
    <line class="st2" x1="159.21" y1="111.15" x2="3.26" y2="7.57"/>
    <line class="st2" x1="592.08" y1="346.31" x2="436.13" y2="242.72"/>
    <line class="st2" x1="380.73" y1="3.75" x2="363.5" y2="38.68"/>
    <line class="st2" x1="231.77" y1="315.41" x2="11.54" y2="581.29"/>
  </g>
  <g id="_レイヤー_2" data-name="レイヤー_2">
    <circle class="st1" cx="168.03" cy="138.77" r="16.38"/>
    <g>
      <g>
        <circle class="st0" cx="196.54" cy="308.64" r="2.18"/>
        <circle class="st0" cx="202.27" cy="312.41" r="2.18"/>
        <circle class="st0" cx="207.99" cy="316.19" r="2.18"/>
        <circle class="st0" cx="213.72" cy="319.96" r="2.18"/>
        <circle class="st0" cx="219.44" cy="323.73" r="2.18"/>
        <circle class="st0" cx="225.17" cy="327.51" r="2.18"/>
        <circle class="st0" cx="230.9" cy="331.28" r="2.18"/>
        <circle class="st0" cx="236.62" cy="335.05" r="2.18"/>
      </g>
      <g>
        <circle class="st0" cx="200.32" cy="302.9" r="2.18"/>
        <circle class="st0" cx="206.05" cy="306.68" r="2.18"/>
        <circle class="st0" cx="211.77" cy="310.45" r="2.18"/>
        <circle class="st0" cx="217.5" cy="314.22" r="2.18"/>
        <circle class="st0" cx="223.22" cy="318" r="2.18"/>
        <circle class="st0" cx="228.95" cy="321.77" r="2.18"/>
        <circle class="st0" cx="234.68" cy="325.54" r="2.18"/>
        <circle class="st0" cx="240.4" cy="329.32" r="2.18"/>
      </g>
      <g>
        <circle class="st0" cx="204.1" cy="297.17" r="2.18"/>
        <circle class="st0" cx="209.83" cy="300.94" r="2.18"/>
        <circle class="st0" cx="215.55" cy="304.71" r="2.18"/>
        <circle class="st0" cx="221.28" cy="308.49" r="2.18"/>
        <circle class="st0" cx="227" cy="312.26" r="2.18"/>
        <circle class="st0" cx="232.73" cy="316.03" r="2.18"/>
        <circle class="st0" cx="238.46" cy="319.81" r="2.18"/>
        <circle class="st0" cx="244.18" cy="323.58" r="2.18"/>
      </g>
      <g>
        <circle class="st0" cx="207.88" cy="291.43" r="2.18"/>
        <circle class="st0" cx="213.61" cy="295.2" r="2.18"/>
        <circle class="st0" cx="219.33" cy="298.98" r="2.18"/>
        <circle class="st0" cx="225.06" cy="302.75" r="2.18"/>
        <circle class="st0" cx="230.79" cy="306.52" r="2.18"/>
        <circle class="st0" cx="236.51" cy="310.3" r="2.18"/>
        <circle class="st0" cx="242.24" cy="314.07" r="2.18"/>
        <circle class="st0" cx="247.96" cy="317.84" r="2.18"/>
      </g>
      <g>
        <circle class="st0" cx="211.66" cy="285.69" r="2.18"/>
        <circle class="st0" cx="217.39" cy="289.47" r="2.18"/>
        <circle class="st0" cx="223.11" cy="293.24" r="2.18"/>
        <circle class="st0" cx="228.84" cy="297.01" r="2.18"/>
        <circle class="st0" cx="234.57" cy="300.79" r="2.18"/>
        <circle class="st0" cx="240.29" cy="304.56" r="2.18"/>
        <circle class="st0" cx="246.02" cy="308.33" r="2.18"/>
        <circle class="st0" cx="251.74" cy="312.11" r="2.18"/>
      </g>
      <g>
        <circle class="st0" cx="215.44" cy="279.96" r="2.18"/>
        <circle class="st0" cx="221.17" cy="283.73" r="2.18"/>
        <circle class="st0" cx="226.89" cy="287.5" r="2.18"/>
        <circle class="st0" cx="232.62" cy="291.28" r="2.18"/>
        <circle class="st0" cx="238.35" cy="295.05" r="2.18"/>
        <circle class="st0" cx="244.07" cy="298.82" r="2.18"/>
        <circle class="st0" cx="249.8" cy="302.6" r="2.18"/>
        <circle class="st0" cx="255.52" cy="306.37" r="2.18"/>
      </g>
      <g>
        <circle class="st0" cx="219.22" cy="274.22" r="2.18"/>
        <circle class="st0" cx="224.95" cy="277.99" r="2.18"/>
        <circle class="st0" cx="230.68" cy="281.77" r="2.18"/>
        <circle class="st0" cx="236.4" cy="285.54" r="2.18"/>
        <circle class="st0" cx="242.13" cy="289.31" r="2.18"/>
        <circle class="st0" cx="247.85" cy="293.09" r="2.18"/>
        <circle class="st0" cx="253.58" cy="296.86" r="2.18"/>
        <circle class="st0" cx="259.3" cy="300.63" r="2.18"/>
      </g>
      <g>
        <circle class="st0" cx="223" cy="268.48" r="2.18"/>
        <circle class="st0" cx="228.73" cy="272.26" r="2.18"/>
        <circle class="st0" cx="234.46" cy="276.03" r="2.18"/>
        <circle class="st0" cx="240.18" cy="279.8" r="2.18"/>
        <circle class="st0" cx="245.91" cy="283.58" r="2.18"/>
        <circle class="st0" cx="251.63" cy="287.35" r="2.18"/>
        <circle class="st0" cx="257.36" cy="291.12" r="2.18"/>
        <circle class="st0" cx="263.08" cy="294.9" r="2.18"/>
      </g>
    </g>
    <rect class="st5" x="352.93" y="47.73" width="28.94" height="28.94" transform="translate(18.12 192.03) rotate(-30)"/>
    <polygon class="st4" points="425.61 160.16 357.4 294.47 461.98 244.07 425.61 160.16"/>
  </g>
  <g id="_レイヤー_3" data-name="レイヤー_3">
    <g>
      <path d="M115.45,502.4l3.78-1.04-.87,1.57,5.8-1.58,2.98-5.51,4.83-1.33-2.91,5.5,4.89-1.34-2.03,3.93-4.94,1.34-6.78,12.82,5.46-1.46-2.3,4.45-18.52,4.93,2.5-4.48,7.74-2.07,6.95-12.85-6.53,1.78c-.56.59-1.42,1.47-2.6,2.65.86,1.42,1.52,2.73,1.98,3.93l-4.91,3.7c-.29-.89-.73-1.91-1.31-3.08l-6.77,12-4.97,1.32,5.39-9.36c-1.49,1.1-3.05,2.14-4.67,3.13l1.85-4.74c4.92-2.99,9.05-6.27,12.4-9.82l-7.03,1.92,2.37-4.06,3.55-.97,2.38-4.13,4.63-1.27-2.33,4.13Z"/>
      <path d="M157.93,495.41l-.91,2.01-17.88,4.85,1-2.02c-1.88,1.26-3.82,2.48-5.82,3.67l.16-3.37c5.74-3.5,11.02-7.21,15.8-11.14l6.27-1.72c1.96,2.08,4.79,3.6,8.51,4.53l-3.52,4.32c-1.34-.28-2.55-.65-3.62-1.12ZM131.28,509.58l2.03-3.99,27.73-7.51-1.74,3.94-4.13,1.11c.21,2.6.36,5.25.43,7.96l-5.38,2.78c0-1.37-.01-2.19-.02-2.47-8.32,2.97-15.85,5.44-22.57,7.4l1.83-4.12c2.07-.63,3.63-1.1,4.69-1.42,1.52-1.64,3.27-3.6,5.24-5.87l-8.12,2.19ZM155.95,494.46c-1.56-.86-2.85-1.89-3.86-3.11-2.64,2.21-5.43,4.36-8.37,6.44l12.24-3.34ZM150.12,508.02c-.02-.25-.04-.66-.05-1.22-.02-.56-.03-.97-.04-1.24l4.1-2.13-9.27,2.5c-1.42,1.71-2.98,3.52-4.69,5.43,4.44-1.45,7.76-2.56,9.95-3.33Z"/>
      <path d="M176.9,483.41c-2.42,3.73-4.51,7.7-6.28,11.95-1.81,4.35-3.01,8.34-3.57,11.95l-5.26,1.89c.61-3.75,1.91-7.93,3.87-12.49,1.91-4.45,4.15-8.6,6.72-12.47l4.51-.82ZM195.26,484.86l-5.11,1.39-2.82,7.65c1.03.72,2.28,1.87,3.74,3.45l-4.51,4.04c-.61-.73-1.18-1.34-1.71-1.84-1.93,2.84-4.77,4.77-8.5,5.76-2.59.69-4.37.65-5.34-.1-.96-.75-1.03-2.12-.23-4.09s2.07-3.57,3.88-5c1.8-1.42,3.95-2.47,6.48-3.16.85-.23,1.56-.35,2.14-.36l1.91-5-8.8,2.4,1.6-3.94,8.71-2.38,1.56-4.08,4.85-1.33-1.5,4.07,5.05-1.38-1.39,3.9ZM181.55,497.13c-.68-.2-1.45-.19-2.31.04-1.9.51-3.09,1.39-3.59,2.64-.53,1.34.16,1.76,2.07,1.25.92-.25,1.65-.61,2.19-1.09s.98-1.15,1.31-2.02l.32-.83Z"/>
      <path d="M200.75,488.25l-3.64-.89c2.34-2.35,4.41-4.89,6.19-7.61l4.27-.27c-1.01,1.69-2.17,3.37-3.5,5.03,1.37-1.13,2.49-2.24,3.35-3.32.85-1.07,1.57-2.29,2.14-3.65l-9.02,2.47,1.2-3.48,11.55-3.17.6-1.93,5.28-1.45-.57,1.93,11.69-3.21-.9,3.43-7.68,2.1-.53,1.85,4.37-2.44c1.26,1.6,2.27,3.33,3,5.22l-5.01,2.9c-.68-1.83-1.54-3.48-2.57-4.97l-.1.34c-.28.99-.53,1.77-.74,2.34-.22.57-.45,1.09-.7,1.54-.25.45-.57.81-.96,1.06s-.79.47-1.21.64c-.42.17-1.01.35-1.77.56-.72.19-1.35.36-1.9.49-.95.83-1.68,1.45-2.2,1.86l11.4-3.08-.91,3.3c-1.77,1.74-3.85,3.45-6.23,5.13,2.72-.21,5.91-.73,9.59-1.54l-2.41,4.44c-5.08,1.06-9.68,1.43-13.77,1.11-4.47,2.42-9.53,4.62-15.17,6.59l.12-3.79c3.99-1.29,7.35-2.52,10.07-3.69-.77-.24-1.48-.55-2.13-.92l2.93-2.76-.14.04c-2.77,1.82-5.51,3.4-8.22,4.74l-.73-3.13c3.82-1.89,7.07-3.7,9.75-5.43l-2.19-1.28c-.87,1.04-1.74,2.01-2.63,2.91ZM210.53,490.98c1.91-1.05,3.69-2.23,5.35-3.53l-9.67,2.6c1.35.49,2.79.8,4.32.93ZM214.51,480.2c.44-.12.72-.24.84-.36s.26-.45.42-.98l.98-3.27-2.36.64c-1.06,2.73-2.62,5.21-4.68,7.42l1.94-.04.6-2.92c1.23-.25,1.99-.41,2.27-.49Z"/>
      <path d="M237.08,480.66c-.56.56-1.42,1.43-2.59,2.61-1.17,1.19-1.9,1.93-2.19,2.21l-2.93-1.97c3.71-3.78,6.75-6.78,9.15-9.04l.51-2.18-6.3,1.72.9-3.57,6.24-1.71.88-3.78,4.77-1.31-1.27,5.79c3.49-2.82,6.55-4.59,9.23-5.33,3.19-.88,5.38-.76,6.57.37,1.2,1.14,1.5,3.56.87,7.32-.55,3.32-1.9,6.16-4.04,8.48-2.17,2.34-4.83,3.94-7.97,4.78-2.11.56-4.03.66-5.76.28l2.52-4.57c1.56.15,2.93.06,4.13-.26,3.03-.81,4.91-3.25,5.64-7.23.45-2.49.46-4.04.03-4.69-.43-.64-1.45-.75-3.05-.31-.99.27-2.2.9-3.63,1.89-1.43.99-3.34,2.58-5.74,4.78l-3,13.71-5.14,1.37,2.18-9.35Z"/>
      <path d="M269.71,464.68c5.88-2.62,10.22-4.31,13.04-5.07,7.17-1.96,10.61-.58,10.28,4.26-.21,3.17-1.94,6.01-5.19,8.48-3.28,2.49-8.24,4.63-14.86,6.4l.15-3.95c5-1.34,8.63-2.76,10.88-4.26,2.24-1.49,3.43-3.14,3.58-4.95.11-1.29-.29-2.1-1.19-2.43s-2.41-.2-4.53.38-6.09,2.15-11.72,4.65l-.44-3.51Z"/>
      <path d="M302.41,454.08l.14-3.67,5.38-1.47c.35-1.42.6-2.48.75-3.19l5.28-1.12c-.12.62-.31,1.56-.6,2.82l12-3.29.14,3.62-13.03,3.55c-1.62,6.49-3.68,13-6.19,19.48l-5.65.49c2.52-6.23,4.6-12.38,6.27-18.45l-4.5,1.23ZM331.57,458.91l.87,3.85c-2.68,1.12-5.31,2.02-7.91,2.71-3.59.96-6.44,1.19-8.56.71-2.1-.48-3.14-1.52-3.13-3.12,0-1.47,1.17-3.24,3.47-5.32l4.36.44c-.89.89-1.48,1.52-1.75,1.9-.28.37-.41.69-.41.96,0,.56.52.89,1.56.98,1.03.1,2.48-.11,4.34-.6,2.09-.56,4.48-1.4,7.17-2.51ZM330.94,451.62c-5.12,1.39-10.04,2.92-14.78,4.62l-.31-3.6c4.78-1.7,9.74-3.25,14.89-4.65l.2,3.63Z"/>
      <path d="M339.48,461.36c-1.3-.63-2-1.62-2.1-2.96s.42-2.62,1.55-3.88c1.13-1.25,2.54-2.1,4.25-2.56s3.23-.4,4.55.2c1.33.6,2.08,1.55,2.23,2.88.16,1.34-.33,2.65-1.48,3.93-1.15,1.29-2.61,2.18-4.38,2.65-1.76.47-3.31.38-4.62-.25ZM341.83,455.87c-.43.49-.63.98-.58,1.49s.31.87.81,1.11c.5.24,1.08.27,1.74.09s1.21-.51,1.66-1c.44-.49.64-.98.59-1.49s-.34-.87-.85-1.11-1.09-.27-1.75-.09-1.19.51-1.62.99Z"/>
      <path d="M116.92,532.35l-2.32,4.49-8.96,2.34-.83,1.55,8.01-2.08-7.66,14.78-5.06,1.29,1.11-2.09-3.7.95c-1.55,2.4-3.1,4.49-4.63,6.24,2.34.53,5.85.27,10.52-.77l-3.56,5.62c-5.42,1.22-9.52,1.26-12.29.13-2.5,1.85-5.9,3.69-10.18,5.52l1.12-4.72c2.92-1.34,4.97-2.36,6.15-3.07-.61-.91-.93-2.07-.94-3.45l4.3-3.06-3.59.92,7.21-12.76,7.83-2.04.85-1.55-8.83,2.3c-1.24,1.55-1.92,2.4-2.04,2.54l-14.62,25.72-5.24,1.32,9.44-16.3c-1.79,1.81-3.27,3.22-4.43,4.22l3.08-7.1c2.53-2.36,4.89-4.81,7.08-7.34,2.17-2.5,4.5-5.45,6.97-8.84l4.28-.35c-.22.31-.52.76-.93,1.35l7.72-2.02,1.32-2.4,5.26-1.38-1.29,2.4,8.87-2.32ZM91.66,551.33l3.12-.8c.98-1.72,1.77-3.13,2.38-4.24l-3.16.82-2.34,4.22ZM92.12,554.95l-2.77.71c.05.98.25,1.75.59,2.29.69-.83,1.42-1.83,2.18-3ZM103.5,548.28l2.23-4.21-3.15.81c-.79,1.48-1.58,2.9-2.36,4.24l3.28-.84Z"/>
      <path d="M116.16,541.82c3.04-1.43,6.18-2.76,9.4-4,3.23-1.24,5.86-2.12,7.9-2.65,3.62-.94,6.03-.93,7.21.04,1.19.98,1.22,2.75.07,5.35-1.72,3.88-4.86,7.5-9.4,10.81-4.59,3.34-10.53,6.19-17.75,8.51l1.89-5.46c10.95-3.79,17.41-7.84,19.35-12.07.52-1.13.43-1.83-.26-2.1-.69-.27-1.99-.16-3.92.34-3.31.85-8.62,2.92-15.96,6.21l1.47-4.96ZM124.31,533.91l3.02-5.1c5.15-.7,10.4-1.76,15.73-3.15l-2.32,5.1c-4.9,1.27-10.39,2.33-16.43,3.16Z"/>
      <path d="M148.62,533.79l8.62-2.23-5.02,12.21c.16.84.56,1.38,1.2,1.6s1.91.19,3.82-.12c1.91-.31,4.95-.99,9.12-2.04l9.94-2.52-2.09,5.13-9.57,2.4c-5.18,1.3-9.01,2.03-11.51,2.2-2.48.17-4.11-.23-4.9-1.18-2.06,1.74-4.31,3.52-6.75,5.34l-.58-4.27c1.99-1.42,3.75-2.74,5.26-3.94l3.66-8.62-3.27.84,2.08-4.82ZM159.09,543.49l-5.6,1.42,7.52-18.49,6.7-1.74c.09-.17.24-.41.44-.72.21-.31.35-.55.44-.72l-7.88,2.05-4.87,4.23c-1.18-1.93-2.31-3.59-3.39-5.01l4.98-4.19c.94,1.22,1.9,2.62,2.87,4.19l1.38-3.35,4.22-1.1c-.12-.85-.22-1.49-.32-1.91l5.35-2.35c.2.76.38,1.69.54,2.8l4-1.05c1.07-1.33,2.02-2.56,2.84-3.7l4.78-.43c-1.12,1.53-1.79,2.41-1.98,2.65l4.14-1.08-1.52,4.3-9.28,2.42c-.09.17-.22.41-.4.71s-.32.54-.43.72l8.09-2.1-6.56,18.37-16.07,4.08ZM164.32,530.22l9.93-2.56.51-1.38-9.89,2.56-.55,1.38ZM163.03,533.5l-.53,1.34,10.04-2.58.5-1.34-10.01,2.57ZM161.22,538.09l-.6,1.53,10.16-2.59.56-1.52-10.12,2.59Z"/>
      <path d="M180.39,537.1l1.66-4.81,34.28-8.76-1.25,4.76-10.85,2.76c3.79.21,7.03.65,9.7,1.33l-4.12,5.44c-2.98-.96-6.73-1.65-11.24-2.06l2.78-3.97-7.62,1.94.89,2.67c-1.77,1.36-3.98,2.83-6.64,4.4-2.67,1.58-5.4,3.02-8.2,4.34l-.57-4.34c4.47-2.11,8.43-4.25,11.86-6.4l-10.69,2.72ZM191.41,528.65l-5.92,1.52,6.38-18.86,26.81-7.04-5.04,18.68-22.24,5.7ZM211.79,509.89l-15.61,4.08-.47,1.46,15.67-4.09.41-1.45ZM194.16,520.18l15.87-4.11.43-1.52-15.81,4.1-.5,1.53ZM192.57,525.1l16.07-4.14.46-1.6-16,4.13-.52,1.61Z"/>
      <path d="M239.46,513.34c.66-3.2,2.05-6.45,4.17-9.75,2.08-3.25,4.59-6.22,7.54-8.95l5.17-1.36c-6.08,6.19-9.74,12.34-10.92,18.52-1.28,6.72.37,12.07,5.1,15.98l-5.67,1.42c-2.43-1.68-4.1-3.93-5.04-6.73-.92-2.75-1.02-5.8-.34-9.14Z"/>
      <path d="M256.44,521.86l13.37-28.68,6.81-1.78,7.2,23.54-7.38,1.86-1.11-5.53-9.25,2.36-2.5,6.42-7.15,1.81ZM268.09,508.52l6.4-1.64-1.91-9.62-.08.02-4.41,11.24Z"/>
      <path d="M288.64,513.72l1.83-25.95,7.19-1.88-1.28,25.88-7.73,1.95Z"/>
      <path d="M319.55,492.74c.05,3.24-.72,6.6-2.34,10.09-1.64,3.54-3.98,6.88-7.01,9.98l-5.93,1.49c6.01-6.72,8.97-13.39,8.99-19.94.02-6.02-2.71-10.63-8.06-13.92l5.38-1.41c2.66,1.3,4.81,3.11,6.42,5.46,1.64,2.39,2.5,5.14,2.55,8.25Z"/>
      <path d="M352.92,469.19l6.44-1.56c.03.78.09,1.91.19,3.4l13.65-3.57.83,4.46-14.21,3.69c.08,1.2.15,2.33.22,3.38l11.47-2.96.82,4.65-11.89,3.05c.21,1.93.36,3.21.44,3.83.27,1.98.82,3.18,1.65,3.56.83.38,2.58.24,5.26-.44,3.12-.79,5.15-1.59,6.08-2.38.93-.79,1.27-1.91,1.01-3.34-.12-.64-.5-1.58-1.13-2.82l6.13-2.81c.88,1.7,1.45,3.17,1.69,4.37.59,2.95-.11,5.43-2.14,7.42-2.04,2-5.65,3.65-10.78,4.94s-8.65,1.4-10.77.4c-2.1-.99-3.36-3.4-3.8-7.16-.07-.62-.2-1.9-.36-3.84l-8.71,2.24-.43-4.7,8.79-2.27c-.04-1.06-.09-2.19-.15-3.39l-7.81,2.03-.43-4.51,8.06-2.11c-.03-.7-.06-1.89-.1-3.54Z"/>
      <path d="M390.32,475.95l-6.12-.96c1.69-2.74,2.82-5.69,3.4-8.84l6.15-.4c-.2,1.95-.64,3.9-1.34,5.83,1.18-1.32,1.99-2.61,2.44-3.87.44-1.25.57-2.65.38-4.21l-11.54,3.01-.87-3.98,14.72-3.86-.59-2.2,6.73-1.77.64,2.19,14.94-3.92,1.35,3.91-9.85,2.57.66,2.12,4.63-2.87c3.15,1.79,6.04,3.75,8.64,5.89l-5.24,3.43c-2.47-2.08-5.07-3.96-7.79-5.64l.12.39c.35,1.13.59,2.03.72,2.69.13.66.18,1.25.16,1.78-.02.53-.22.94-.6,1.24s-.81.55-1.31.75c-.5.2-1.24.43-2.22.68-.92.24-1.75.44-2.47.6-.77.98-1.39,1.71-1.84,2.19l14.72-3.78,1.25,3.82c-1.29,2.05-3.07,4.07-5.34,6.06,3.94-.3,8.37-.95,13.3-1.97l-.08,5.22c-6.87,1.33-13.55,1.84-19.99,1.54-4.84,2.9-10.76,5.55-17.73,7.94l-2.76-4.43c4.99-1.57,9.09-3.06,12.28-4.46-1.36-.27-2.66-.61-3.92-1.03l2.26-3.25-.18.04c-2.74,2.15-5.64,4.04-8.67,5.64l-3.51-3.62c4.27-2.25,7.74-4.4,10.4-6.45l-4.27-1.43c-.5,1.21-1.06,2.34-1.69,3.4ZM407.15,478.92c2.04-1.26,3.81-2.65,5.28-4.19l-12.51,3.19c2.42.54,4.83.87,7.23,1ZM404.67,466.43c.57-.15.89-.29.98-.43s.03-.52-.14-1.13l-1.09-3.75-3.02.79c.54,3.14.14,6.01-1.24,8.58l2.87-.09-1.39-3.36c1.65-.31,2.65-.51,3.02-.61Z"/>
      <path d="M439.04,466.47c-.4.66-1,1.68-1.81,3.06-.82,1.4-1.33,2.26-1.53,2.6l-6.02-2.21c2.58-4.43,4.76-7.94,6.56-10.58l-.98-2.5-8.12,2.11-1.49-4.08,8.01-2.09-1.69-4.3,6.11-1.6,2.74,6.58c2.98-3.29,6.17-5.37,9.61-6.27,4.11-1.07,7.51-1,10.23.24,2.75,1.26,5.2,4,7.37,8.31,1.92,3.82,2.23,7.12.88,9.84-1.37,2.76-4.11,4.67-8.23,5.7-2.76.7-5.63.85-8.57.45l.09-5.34c2.49.14,4.53.01,6.08-.39,3.95-1,4.81-3.85,2.62-8.44-1.36-2.85-2.63-4.63-3.81-5.35-1.18-.72-2.8-.81-4.87-.28-1.28.33-2.6,1.08-3.95,2.24-1.36,1.17-2.96,3.02-4.81,5.59l6.62,15.88-6.73,1.69-4.28-10.87Z"/>
      <path d="M475.48,447.41c6.77-3.13,11.97-5.16,15.61-6.11,9.3-2.41,15.74-.95,19.38,4.55,2.41,3.63,2.2,6.93-.68,9.86-2.91,2.96-8.75,5.55-17.46,7.74l-3.13-4.57c6.55-1.66,10.93-3.39,13.11-5.16,2.17-1.77,2.59-3.69,1.27-5.76-.94-1.48-2.24-2.39-3.9-2.73s-3.86-.16-6.62.56-7.51,2.6-13.99,5.61l-3.61-3.99Z"/>
      <path d="M516.47,434.5l-2.93-4.13,6.97-1.82c-.68-1.6-1.21-2.8-1.59-3.59l7.12-1.42c.36.69.87,1.75,1.53,3.17l15.57-4.07,3.4,4.05-16.97,4.41c3.18,7.39,5.71,14.87,7.53,22.4l-8.36.7c-1.56-7.23-3.72-14.31-6.42-21.22l-5.84,1.52ZM565.92,439.12l4.86,4.39c-3.19,1.36-6.5,2.47-9.94,3.34-4.76,1.2-9.02,1.54-12.75,1.04-3.7-.5-6.25-1.67-7.65-3.5-1.29-1.68-1.06-3.73.67-6.17l7.16.38c-.59,1.04-.94,1.78-1.04,2.21-.1.43-.03.81.22,1.11.51.64,1.61,1,3.3,1.08,1.69.08,3.77-.19,6.23-.81,2.76-.7,5.74-1.73,8.94-3.08ZM558.37,430.84c-6.71,1.73-12.98,3.62-18.83,5.68l-3.64-4.06c5.89-2.07,12.18-3.97,18.91-5.71l3.55,4.09Z"/>
      <path d="M580.55,441.7c-2.63-.69-4.64-1.8-6.02-3.34-1.37-1.52-1.73-3.01-1.11-4.47.63-1.45,2.06-2.47,4.32-3.04s4.69-.55,7.31.08c2.64.64,4.69,1.71,6.16,3.21s1.93,3.04,1.32,4.55c-.61,1.52-2.1,2.58-4.46,3.17-2.35.59-4.86.54-7.51-.16ZM579.22,435.34c-.23.57-.08,1.14.45,1.72s1.3.99,2.3,1.25c1,.26,1.94.27,2.82.05s1.44-.62,1.69-1.19c.25-.57.1-1.14-.45-1.72s-1.33-.98-2.35-1.24-1.96-.27-2.82-.05c-.86.22-1.4.61-1.63,1.18Z"/>
    </g>
  </g>
</svg>