<?xml version="1.0" encoding="UTF-8"?>
<svg id="_レイヤー_1" data-name="レイヤー_1" xmlns="http://www.w3.org/2000/svg" version="1.1" viewBox="0 0 546.08 136.68">
  <!-- Generator: Adobe Illustrator 29.7.1, SVG Export Plug-In . SVG Version: 2.1.1 Build 8)  -->
  <defs>
    <style>
      .st0 {
        fill: #040000;
      }
    </style>
  </defs>
  <path class="st0" d="M31.19,60.22h27.52v33.63H20.18v-11.01h27.52v-11.62h-27.52v-27.52h38.53v11.01h-27.52v5.5Z"/>
  <path class="st0" d="M69.71,43.7h39.75v50.14h-11.01v-16.51h-17.73v16.51h-11.01v-50.14ZM98.45,66.33v-11.62h-17.73v11.62h17.73Z"/>
  <path class="st0" d="M166.33,93.85h-11.01v-39.14h-6.12v39.14h-11.01v-39.14h-6.73v39.14h-11.01v-50.14h45.86v50.14Z"/>
  <path class="st0" d="M215.87,77.34h-27.52v16.51h-11.01v-50.14h38.53v33.63ZM188.35,66.33h16.51v-11.62h-16.51v11.62Z"/>
  <path class="st0" d="M263.5,93.85h-36.63v-50.02h10.95v39.08h25.68v10.95Z"/>
  <path class="st0" d="M285.39,60.28h22.02v11.01h-22.02v11.62h27.52v10.95h-38.46v-50.02h38.46v10.95h-27.52v5.5Z"/>
  <path class="st0" d="M391.07,93.85h-36.63v-50.02h10.95v39.08h25.69v10.95Z"/>
  <path class="st0" d="M440.54,43.7v50.14h-38.53v-50.14h38.53ZM413.02,82.84h16.51v-28.13h-16.51v28.13Z"/>
  <path class="st0" d="M479.06,77.34h-8.56v-11.01h19.57v27.52h-38.53v-50.14h38.53v11.01h-27.52v28.13h16.51v-5.5Z"/>
  <path class="st0" d="M539.6,43.7v50.14h-38.53v-50.14h38.53ZM512.08,82.84h16.51v-28.13h-16.51v28.13Z"/>
</svg>