<?xml version="1.0" encoding="UTF-8"?>
<svg id="_レイヤー_2" xmlns="http://www.w3.org/2000/svg" version="1.1" viewBox="0 0 774 774">
  <!-- Generator: Adobe Illustrator 29.7.1, SVG Export Plug-In . SVG Version: 2.1.1 Build 8)  -->
  <defs>
    <style>
      .st0 {
        fill: none;
      }

      .st0, .st1, .st2 {
        display: none;
      }

      .st3 {
        stroke: #000;
        stroke-miterlimit: 10;
        stroke-width: 2px;
      }

      .st4 {
        fill: #204930;
      }

      .st1, .st5 {
        fill: #fff;
      }

      .st6 {
        fill: #f9f9f9;
      }

      .st7 {
        fill: #0c2d82;
      }
    </style>
  </defs>
  <g id="_タイトル">
    <g>
      <g class="st2">
        <path d="M63.5,69.4c-5.5,8.9-13.2,18-22,25l-7.7-8.2c8.7-7.4,12.7-11.8,18.6-21.5,0,0,11.1,4.7,11.1,4.7ZM97.3,40.4v9.5h50v11.6h-35.6v25.8c0,5.3-4.5,8.8-9.1,8.8h-12.8l-1.8-12.8h8.6c2.8,0,2.9-1.1,2.9-3.5v-18.3h-15.1c-3.3,23.8-15.9,34.7-26.4,41l-8.1-9.3c8.2-4.7,20.2-12.9,22.5-31.7h-38.6v-11.6h50.5v-9.5h13ZM129,102.5v10.8c-3.6,4.8-10.7,13.8-24.2,21.5,13.7,4.4,27.6,5.7,42.4,6.2l-5,12.9c-7.5-.9-33-3.6-53.1-11.9-19.8,7.7-38.6,10.1-49.3,11.3l-4-10.8c14.8-1.6,27.9-3.5,41.2-7.6-4.7-3.5-9.9-8.1-15.2-15.2-9.5,5.7-14.4,7.6-19.5,9.7l-6.8-10.4c21.9-8.2,30.7-15.3,40.5-28l12,5.1c-2.1,3-2.9,4.1-4.8,6.4h45.8ZM71.7,113.3l-1,.7c8.7,8.9,16.1,13.2,20.4,15.5,8.8-4.5,15.4-10.4,21.4-16.2h-40.8ZM139.4,96.1c-10.4-7.7-14.6-13.1-23.7-25.5l9.2-7c7.9,11.6,16.9,19.1,22.4,23.2l-7.9,9.3h0Z"/>
        <path d="M203.7,133.3c5.3,0,24.5.1,35.1-8.6,7.1-5.8,10.5-15.1,10.5-23.6,0-14-7.5-24.4-23.8-24.4s-27,9.2-34.8,17.3v54.6h-13.5l.5-37.5c-4.5,7.7-5.2,9.1-12.3,16.8l-8.2-12.8c3.6-3.4,12.2-11.5,20.8-27.2l.1-12.1h-17.4v-12.5h17.3v-17.6h13l-.2,17.7h4.5v6.2c-1.7,2.8-3.6,6.3-4.5,8.7v1c5-4.1,18.3-15,37.7-15,23.8,0,34.7,18.4,34.7,37.3,0,40.6-37.4,44-56.2,44.6l-3.3-12.9h0Z"/>
        <path d="M353,47.1v11.5c-5.7,5.2-14.6,13.8-20.3,19-1.3,1.3-2.5,2.4-5,4.5,3.5-1.4,6-2.5,13.7-2.5,31.3,0,32.9,25.4,32.9,31.7,0,12.6-5.5,23.3-14.6,30-6.2,4.4-13.9,7.5-29.5,7.5-31.7,0-31.7-19.7-31.6-21.4,0-11.8,11.5-18.1,21.6-18.1,11.7,0,23.6,8.2,22.7,26.3,18.1-5.2,18.1-20.8,18.1-23.6,0-17.4-13.8-20.4-22.2-20.4-11.7,0-22,3.8-31.6,10.6-9.1,8.2-14.9,14.1-21.3,21l-8.3-11.2c2.9-2.5,49.7-46.3,56.4-52.5l-48,.5v-13l67,.1h0ZM331,133.4c0-.9-.4-12.8-11.5-12.8-5.7,0-9.1,3.3-9.1,7.4,0,9.1,13.6,9.1,20.1,9.1.4-1.8.5-2.6.5-3.7h0Z"/>
        <path d="M417.3,150.1c-7-10.3-14-18.8-21.4-26.6l11.1-7.8c8.2,7.4,17.9,18.6,23.1,25.8l-12.8,8.6Z"/>
        <path d="M501.6,144.5c-9.2,2.1-33.2,5.7-45.7,6.9l-1.4-11.9c4-.2,6.8-.5,20.2-2v-33h-20.2v-11.5h20.2v-10.5h-11.2v-7.9c-2.4,2.3-3.6,3.4-6.3,5.4l-4.2-12.3c9.9-7.4,15.7-14.6,21.8-27.1h13.2c5.5,10,8.7,14.8,18.7,22.3l-7.6,10.3c-1.1-1-1.5-1.2-1.8-1.6v10.9h-11.1v10.5h18.1v11.5h-18.1v31.4c1.9-.4,17.4-2.5,18.1-2.6l.5,8c1.2-.1,2.1-.2,4.4-.6l.1-96.9h54.4v54.9h-23.3c.6,3.9,1.3,7.6,4.2,15.1,7.9-4.7,11.8-9.1,15.4-12.8l7.6,9.7c-2.3,2.2-7.6,7.1-18,12.8,6.8,10.3,14.2,16.1,20,20.4l-7.5,11.1c-27.2-18.6-32.1-48.7-33.3-56.4h-7.4v40c9.3-1.7,14.1-2.8,19-4v11.1c-13.9,3.5-27,5.9-37.6,7.6l-1.2-8.8h0ZM466.9,111c1.3,5.2,2.6,14.4,3.1,20.7l-10.3,1.2c0-10-1.8-18-2.5-20.9l9.7-1h0ZM496.7,71.2c-8.1-7.3-13.3-16-15.3-19.2-1.9,3.4-5.8,10.1-14.4,19.2-.1-.1,29.7,0,29.7,0ZM502.1,110.7c-1.6,12.1-2.8,16.4-3.6,19.6l-8.7-1.6c1.7-8.2,2.1-11.1,2.7-19.2l9.6,1.2ZM521.2,76v11.7h30.2v-11.7h-30.2ZM521.2,54.6v11.6h30.2v-11.6h-30.2Z"/>
        <path d="M619.5,69.3c-2.4,4.7-6.2,12.1-12.7,21.3v63.7h-13.3v-47.5c-4.7,4.9-7.6,7.2-10.9,9.9l-5.3-14.5c17.7-12.6,28-32.4,31.1-38.4l11.1,5.5h0ZM616,43.8c-4.5,9.4-15.7,25.1-31.2,34.8l-7.5-12c7.3-4.1,17.4-10.5,27.6-27.4l11.1,4.6ZM693.6,79.4v12.4h-18.6v51.7c0,9.7-4.5,10.8-12.9,10.8h-21.8l-2.3-12.9h20.2c2.7,0,3.9-.3,3.9-3.2v-46.3h-42.5v-12.6l74,.1h0ZM688.9,45.8v12.5h-64.3v-12.6l64.3.1Z"/>
        <path d="M736.2,131.3c0,10.3-8.3,18.6-18.6,18.6s-18.7-8.4-18.7-18.6,8.5-18.7,18.8-18.7c10.1-.1,18.5,8.3,18.5,18.7ZM705.8,131.3c0,6.5,5.3,11.9,11.8,11.9s11.8-5.3,11.9-11.8c0-6.7-5.4-12-11.8-12-6.6-.1-11.9,5.2-11.9,11.9h0Z"/>
      </g>
      <g class="st2">
        <path class="st4" d="M640.7,174.3l2.5,39.2c-6.6.8-11.7,2.6-15.2,5.2-5.6,4.2-8.5,10.3-8.5,18.2,0,5.9,1.4,10.4,4.3,13.6,2.9,3.2,6.2,4.8,10,4.8,3.6,0,6.8-1.5,9.7-4.6,2.8-3,5.5-10.1,8.1-21.1,4.2-18.1,9.9-31,16.9-38.7,7-7.8,16-11.6,26.8-11.6,7.2,0,13.9,2,20.2,6s11.3,10,15,17.9c3.6,8,5.4,18.9,5.4,32.8,0,17.1-3.3,30.1-9.9,39-6.6,9-17.1,14.3-31.5,16l-2.3-38.9c6.3-1,10.8-3.2,13.7-6.5,2.8-3.3,4.3-7.9,4.3-13.7,0-4.8-1-8.4-3.2-10.8s-4.7-3.6-7.7-3.6c-2.2,0-4.2,1-6,3-1.8,1.9-3.5,6.6-5.1,13.8-4.1,18-8.2,30.9-12.3,38.7-4.2,7.8-9.3,13.5-15.4,17s-13,5.3-20.6,5.3c-8.9,0-17.1-2.4-24.7-7.1-7.5-4.7-13.2-11.4-17.1-19.9-3.9-8.5-5.8-19.2-5.8-32.1,0-22.7,4.6-38.4,13.7-47.2s20.6-13.6,34.7-14.7h0Z"/>
        <path class="st4" d="M733.6,304.6v54.2l-84.6,20.9,84.6,20.8v54.2l-139-.1v-33.8l106,.1-106-26.1v-30.6l106.1-25.9-106-.1v-33.8l138.9.2h0Z"/>
        <path class="st4" d="M733.5,470l-.1,77.2c0,12.9-3.3,22.8-10,29.6-6.6,6.9-14.9,10.3-24.7,10.3-8.2,0-15.3-2.5-21.2-7.4-3.9-3.3-7-8.1-9.3-14.4-2.4,9.6-6.5,16.6-12.4,21.2-5.8,4.5-13.2,6.8-22.1,6.8-7.2,0-13.7-1.6-19.4-4.8-5.8-3.2-10.3-7.6-13.7-13.2-2.1-3.5-3.6-8.7-4.5-15.7-1.3-9.3-1.9-15.5-1.9-18.5v-71.2l139.3.1h0ZM624.3,511.5v21c0,7.1,1.3,12.1,3.9,15,2.6,2.9,6.2,4.4,10.6,4.4,4.1,0,7.4-1.4,9.9-4.3,2.5-2.9,3.8-7.9,3.8-15.2v-21l-28.2.1h0ZM678.9,511.6v17.9c0,6.4,1.1,10.9,3.4,13.4s5.6,3.8,10,3.8c4,0,7.2-1.2,9.5-3.8,2.3-2.5,3.4-6.9,3.4-13.2v-18.2l-26.3.1Z"/>
        <path class="st4" d="M651.2,692.6l-11.4,36.1c-10.6-2.4-19.4-6.3-26.5-11.5s-12.4-11.7-16-19.5c-3.6-7.7-5.4-17.6-5.4-29.6,0-14.5,2.2-26.4,6.6-35.6,4.4-9.2,12.1-17.1,23.2-23.8s25.2-10,42.5-10c23,0,40.7,5.9,53,17.7s18.5,28.4,18.5,49.9c0,16.8-3.6,30-10.7,39.7s-18,16.8-32.6,21.4l-8.4-36.4c4.2-1.3,7.3-2.6,9.3-4,3.3-2.3,5.8-5.1,7.6-8.5,1.8-3.3,2.7-7.1,2.7-11.2,0-9.3-3.9-16.5-11.7-21.5-5.8-3.8-14.9-5.7-27.4-5.7-15.4,0-26,2.2-31.7,6.7s-8.6,10.8-8.6,18.9,2.3,13.9,6.9,17.9c4.6,4.2,11.3,7.2,20.1,9h0Z"/>
      </g>
      <g class="st2">
        <path d="M414.6,710.7l-.5-7,40.6-3.8-3-27.4-47.7,4.5-.5-6.9,47.5-4.5-4-37.4,7.4-.3,4,37,47.7-4.4.6,6.9-47.6,4.4,3,27.5,40.2-3.8.6,6.9-40,3.8,2.4,22.2-7.5.6-2.4-22.1-40.8,3.8h0Z"/>
        <path d="M349.9,627.8l6.8-.6,8.6,53.4,24.5-3.8,1,6.2-24.5,3.7,3.3,20.6-6.7.8-3.3-20.3-49.3,7.3c1.8-18.8,10.3-32,25.4-43.2l4.9,5c-11.7,7.2-19.9,17.4-22.5,31l40.6-6.3-8.8-53.8h0Z"/>
        <path d="M223.3,676.4c0-38.7,31.2-45.5,63.1-47.1l1.5,7c-13.7.3-27.8,1.4-40.2,7.6-8.1,4.2-14.2,12.5-16,21.4-.7,3.6-1,7-1,10.7v51.5h-7.5l.1-51.1h0ZM286.1,661.6h7.1v64h-7.1v-64Z"/>
        <path d="M106.1,723.2c1.7-11.3,5.8-21.8,13.5-30.3,6.9-7.7,15.6-12.4,24.8-16.8l4.3,6.4c-16.7,6.3-29,15.7-33.5,33.8l87.8.1v6.9c-.1,0-97-.1-96.9-.1ZM200,636.1c-30.6,14.1-36.9,34.7-37.1,66.2h-7.5c.1-15.3,1.1-30.3,8.6-44.3,6.8-12.5,18.2-21.9,30.9-28.2l5.1,6.3h0Z"/>
      </g>
      <path class="st2" d="M549.2,637.2c-5.7,1.2-10.5,2.5-15.7,6.7-8,6.5-11.4,20.6-11.5,34.5,0,13.7,3.6,27.8,11.2,34.6,4.3,3.8,8.8,4.9,13.6,5,.6-10.8,1.3-21.7,2.6-32.4,1.2-10.1,3.9-23.4,7.3-32.2,2.4-6.3,6.6-13.9,11.6-13.9,2.8,0,5.6,2.6,7.5,5.8,3.8,6.5,5.2,19,5.1,27.7,0,17.1-4.9,33.3-13.9,42.7-6,6.2-13.2,8.8-20.3,8.8-10.6,0-20.9-6.1-26-22-2.4-7.4-3.5-15.8-3.5-24.3,0-13.6,2.9-27.1,9.6-35.9,5.5-7.5,13.6-10.8,20.7-12l1.7,6.9h0ZM569.9,703.4c4.9-8.7,6.9-19.9,7-31.4,0-7.8-1.8-25-8.2-25-4.7,0-8.3,10.1-10,16.2-5,17.2-6.4,35.8-7.1,54.5,7.6-1.7,12.9-4.7,18.3-14.3h0Z"/>
      <path class="st2" d="M39.1,716.5v-6.7h33.6c1.5-7.6,2.8-13.3,5.5-20.1-4.1,5.1-8.3,8.3-13.5,8.3-3.3,0-6.6-1.5-8.5-6.1-1.3-3.1-1.6-5.6-2-9.2-6.3,4.3-12.7,8.3-19.2,12.4l-1.6-7.3c6.9-3.7,13.7-7.2,20.4-11.6-.3-5-.4-10-.4-15,0-3,.1-6.2.4-9h4.4c-.3,4.2-.4,8.5-.4,12.6,0,2.8,0,5.7.1,8.6,5.8-4.3,17.4-13.5,17.4-25.6,0-3.9-1.8-7.5-3.9-8.9-3.8-2.6-9.6-2.6-13.7-2.6-6.7,0-13.3.7-20,1.9l-.4-7.1c6.1-1,12.2-1.4,18.3-1.4,7.9,0,23.9,0,23.9,18.1,0,16.1-13.4,26.6-21.2,32.3.7,7.1,2,12.1,7.1,12.1,5.6,0,11.6-6.7,15.3-13.1,1.7-3.8,9.4-19.7,11.1-22.6l3.2,5.8c-9.2,13.8-13.7,28.7-17.8,47.6h16.3v6.7h-17.5c-.8,5.1-1.3,9.3-1.7,14.5l-4.9-.2c.6-4.9,1.3-9.5,2.1-14.3l-32.4-.1h0Z"/>
      <rect x="32.3" y="466.3" width="138.5" height="138.5"/>
      <rect x="32.5" y="320.9" width="138.5" height="138.5"/>
      <rect x="32.6" y="175.5" width="138.5" height="138.5"/>
      <path class="st1" d="M75,484.2h12.4v42.3c27-6.7,41.2-23.6,51.6-42.9l9.8,10.5c-4.9,8.9-9.2,15.2-20,24.6-10.3,8.8-15.7,11.2-24.3,15.2,28.6,12.3,37.4,27.6,44.3,40.4l-10.2,10c-3.4-7.8-7.7-16.7-18.1-25.8-9.5-8.2-21-14.2-33.1-16.2v41.4h-12.5v-43c-20.5,0-22.7,0-27.8.2l.6-12.6c.1-2.7.2-4.1,1.3-4.1.6,0,2.7,2.1,3.3,2.3,1.3.5,2.3.6,3.7.6,6.3.2,16.6.6,19,.7v-43.6h0Z"/>
      <path class="st1" d="M142.8,413.6c0-.9.4-4.8.4-5.6,0-1.6-.5-5.5-4.9-5.5h-13.1v22.1c8.8,1.3,16.8,3,26.8,8.1l-4.1,9.8c-10.6-5.3-20.3-8.8-46-8.8-8.7,0-14,.3-16.6.6l-5.3,8.4c-10.2-8.3-17.5-12.6-30.2-16l2.9-11.2c.3-1.4.6-2.3,1.5-2.3s1.3,1.3,1.4,2.6c.1.7.5.9,3.6,2.3v-18.8l3.4-3.2,15.8,9.9v-13.1h32.2c-2.1-2.2-7.4-7.8-17.7-9.6l-8,8.5c-5.3-9-11.6-13.2-21.5-14.9v11.9h-10v-48.5c31.5.3,34.5,1,38.2,17.8.2-.8.3-1.6,1.1-1.6.3,0,1.3.9,1.6,1.2.8.7,1.2.8,1.9.8h4.2v-16.1h10.1v16.1h10.3v-18.5h10.4v18.5h22v11h-22v18h-10.4v-18h-10.3v9.8c3.8,2.6,5.1,3.6,7.8,5.9l-6.4,7.7h31c8.5,0,9.6,7.8,9.9,17.1l-10,3.6h0ZM90,369.5l.9-8-10.2,3.3c.1-1,.2-2.2.2-3.5,0-9.9-8.1-10-12.6-10h-4.9v13.3c15.8,2.8,20.8,7.3,28.6,17.3l2.3-7.1c.7-2,.9-2.5,1.5-2.5.5,0,1.3,1.6,1.5,2,.5.4,2.8,1.2,2.9,1.2v-6.1l-10.2.1h0ZM68.1,422.2c6.4,3.5,8.7,5,10.3,6.2v-11.1l-10.3-5.9v10.8h0ZM87.1,416.8v6.8h10.5v-6.8h-10.5ZM97.7,402.4h-10.5v7h10.5v-7ZM105.4,423.6h2.8c4.6,0,6.1,0,8.3.2v-7h-11.1v6.8h0ZM116.5,409.4v-7h-11.1v7h11.1Z"/>
      <path class="st1" d="M50.9,271.6l.9-11.4c.1-1.6.6-3.3,1.6-3.3.3,0,.7.1.9.6.9,2,1.2,2.3,2.5,2.3h5.5v-21.6h9.7v16l2.2-6.7c.7-2,1.2-2.8,2-2.8.5,0,1.5,1.9,2,2.3.9.5,5.6,2.1,6.3,2.3,2,.8,4.3,1.8,6.4,2.7v-16.3h9.7v58.4h-9.6v-15.8c-5.3.9-11,2.3-16.3,4.2l-2.7-9v18h-9.7v-20.1l-11.4.2h0ZM52.2,198.5c0-.8.3-2.6,1.5-2.6.7,0,1.2.8,1.6,1.4.6.8,1.4,1.3,2.1,1.3l75.5.1c14.1,0,16.5,2.1,16.9,19.2l-12.3,5c.1-1.1.4-5.6.4-6.4,0-5-2.1-5.7-5.4-5.7l-81.1-.1.8-12.2h0ZM62.2,232.3l1-12.6c.1-1.2.6-2.1,1.4-2.1.5,0,.8.2,1.1.6,1.1,1.5,1.4,2,2.6,2h56.2v12.2l-62.3-.1h0ZM91,262.1c-10.2-4.1-16-5.6-18.9-6.3v17.3c5.5-2.1,11-3.4,15.8-4.4l3.2,9.1-.1-15.7h0ZM149.9,277v11.7h-41.8v-46.8h41.9v11.7h-4v23.4h3.9ZM136.3,253.6h-18.1v23.4h18.1v-23.4h0Z"/>
      <rect class="st0" width="774" height="774"/>
    </g>
  </g>
  <g>
    <path class="st3" d="M159.6,100.2h-19.5c-.7,9.6-1.5,17.4-2.4,23.6h18.3v7.9h-19.5c-3.6,17.6-9.1,18.5-20.1,18.5-4,0-8.8-.1-13.7-.5-.1-2.1-.9-5.1-2.2-7.3,7.8.8,14.7.9,17.6.9,4.8,0,7.1-1.8,9.4-11.6H61.3c-.7,3-1.2,5.9-1.7,8.4l-8.8-.5c2.2-10.3,4.9-24.7,7.3-39.5h-20.7v-8.1h21.9c1.6-10.6,3.2-21,4.2-30.1h72.1l2.1-.3,4.9.7c-.1.8-.1,1.8-.4,2.8-.5,10.2-1.1,19.1-1.6,26.9h19v8.2ZM152.9,49.1h-84.9c-5.3,8.1-12,16.4-20.2,23.6-1.7-1.8-4.9-4.2-7.3-5.4,14.3-11.7,23.9-27.6,29-40,8.8,1.2,10.2,1.5,11.4,1.6-.1,1.1-1.1,1.6-2.6,1.7-1.5,3.4-3.3,6.8-5.3,10.4h79.9v8.1ZM90.8,123.9c1.1-6.9,2.2-15,3.2-23.6h-27.3c-1.3,8.2-2.6,16.4-4,23.6h28.1ZM95.1,92c.8-7.7,1.6-15.3,2.1-22.2h-25.9c-1.1,7.1-2.3,14.7-3.3,22.2h27.1ZM102.2,100.2c-1.1,8.6-2.1,16.9-3,23.6h29.7c.9-6.1,1.8-13.7,2.5-23.6h-29.2ZM105.6,69.9c-.7,7-1.6,14.5-2.4,22.2h28.8c.4-6.6.9-14,1.3-22.2,0,0-27.7,0-27.7,0Z"/>
    <path class="st3" d="M195.1,80.2v43.6c10.3,15.8,29.8,15.8,52.5,15.8,15.2,0,33.7-.4,44.6-1.1-1.2,2-2.5,5.9-2.9,8.4-9.1.3-23.8.5-37.1.5-29.4,0-47.8,0-60.9-16.4-5.8,5.9-12,11.7-16.9,16.4,0,1.1-.3,1.5-1.2,2l-5-9c5.5-4.4,12.4-10.2,18.3-15.8v-36h-17v-8.4h25.6ZM177.6,30.5c8.1,6.3,17,15.6,20.9,22.3l-7.5,5.2c-3.6-6.9-12.4-16.5-20.3-23l6.9-4.5ZM219,40.3v27.2c0,18.5-1.6,44.6-12.7,62.6-1.6-1.6-5.1-3.8-7.1-4.9,10.6-16.9,11.6-40.4,11.6-57.7v-34.7h71.9v89c0,9.9-5,10.2-23,10.2-.3-2.2-1.5-5.7-2.5-7.7,3.4,0,6.6.1,9.1.1,7.3,0,8.1,0,8.1-2.6V40.3h-55.4ZM224.3,71.2h17.8v-11.5h-16.5v-6.7h16.5v-10.9l10.2.7c-.1.9-.8,1.5-2.5,1.7v8.5h18.1v6.7h-18.1v11.5h19.5v6.7h-45v-6.7h0ZM235.4,115.3v6.9h-7.1v-36.4h35.9v29.4h-28.8v.1ZM256.9,92.4h-21.5v16.2h21.5v-16.2Z"/>
    <path class="st3" d="M305.3,113.6c9.8,7.8,22.7,20.9,29.8,29.2l-7.9,7.3c-6.6-8.4-20.1-22.3-28.9-30.2l7-6.3Z"/>
    <path class="st3" d="M466.8,34.5v102.4c0,6.9-1.8,9.9-6.7,11.5-4.9,1.6-13.7,1.7-28.1,1.6-.7-2.5-2.4-6.7-3.8-9.4,6.3.3,12.4.4,17.2.4,11.5,0,12.3,0,12.3-4.1v-29.4h-65.3c-3.4,15.4-10.3,31-24.3,42.8-1.3-2-4.6-5.3-6.6-6.6,22.7-19.3,24.9-46.6,24.9-68.5v-40.7h80.4ZM395.2,75.1c0,6.7-.3,15-1.5,23.8h63.8v-23.8h-62.3ZM457.5,43.2h-62.3v23.5h62.3v-23.5Z"/>
    <path class="st3" d="M611.2,137.8v7.1h-62.4v5.4h-8.2v-47.3c-2.9,3.7-5.9,7-9,9.9-.9-1.2-2.6-3.2-4.2-4.6v16h-26.1v11h-7.9V36.1h34.1v69.8c9-8.8,17.2-21.5,21.6-32.6h-16v-6.7h25.7v-10.9h-23.1v-6.5h23.1v-10h-25.5v-6.7h33.3v40.8h-10.7l4,1.2c-.3.9-1.2,1.5-2.6,1.3-1.5,3.3-3.3,6.7-5.3,10.4h18.5c2-4.1,4.1-9.1,5.4-12.9h-3.6v-6.7h26.4v-10.9h-23.9v-6.5h23.9v-10h-26.1v-6.7h34.2v40.8h-27.9l7.4,2.1c-.4.8-1.3,1.3-2.8,1.3-1.3,2.6-3,6.2-4.9,9.5h29.2v7.1h-30v10.2h26.4v6.5h-26.4v10.6h26.4v6.5h-26.4v10.8h33.4v-.1ZM519.2,44h-18v31.3h18v-31.3ZM501.2,116.2h18v-33h-18v33ZM569.9,103.5v-10.1h-21.1v10.2h21.1v-.1ZM569.9,120.6v-10.6h-21.1v10.6h21.1ZM548.8,127v10.8h21.1v-10.8h-21.1Z"/>
    <path class="st3" d="M634.4,35.9h85.7v111.1h-9.2v-7.9h-67.3v8.7h-9.1V35.9h-.1ZM710.9,44.9h-67.3v37.9h67.3v-37.9ZM643.5,130.2h67.3v-38.7h-67.3v38.7Z"/>
  </g>
  <g>
    <path class="st7" d="M607.8,269.8l26.5-9.2v-51.1l-26.5-9.1v-31.8l124.7,47.6v38.5l-124.7,47.7v-32.6ZM656.1,217v36.2l4.6-1.6c25.7-8.9,41.8-14.2,48.5-15.7l3.7-.8c-6.8-1.1-24.2-6.6-52.3-16.5l-4.5-1.6Z"/>
    <path class="st7" d="M607.9,314.7h21.8v12.6h81.3v-12.6h21.6v54.5h-21.6v-12.4h-81.3v12.4h-21.8v-54.5Z"/>
    <path class="st7" d="M672.5,395.3c7.8,0,13.8,4,18,11.9,1.9,3.5,2.9,7.4,2.9,11.9,0,8.9-3.5,15.8-10.4,20.6-3.1,2.2-6.5,3.3-10.5,3.3-7.8,0-13.8-4-18-11.9-1.9-3.5-2.9-7.5-2.9-11.9,0-8.9,3.5-15.8,10.4-20.6,3.1-2.3,6.6-3.3,10.5-3.3Z"/>
    <path class="st7" d="M732.6,475.8v48c0,21.3-5.7,38.8-17.2,52.4-11.5,13.6-25.9,20.4-43.2,20.4-19.7,0-35.3-6.6-46.9-19.9-11.6-13.3-17.4-31-17.4-53.2v-47.7h124.7ZM630,507.1v16c0,13.7,3.8,24.2,11.3,31.6,7.5,7.3,17.4,11,29.6,11s21.9-3.8,29-11.3,10.6-18,10.6-31.5v-15.8h-80.5Z"/>
    <path class="st7" d="M648.4,668.6c-10.3-6.5-23.8-15.3-40.4-26.3v-36.7l63.3,45,61.4-43v35.4l-37.9,24.7,37.9,24v37.2l-61.6-43.1-63.1,45.9v-35.9l40.4-27.2Z"/>
  </g>
  <g>
    <path class="st3" d="M588,662l-.7,60.2-27.3-.3v-4.3l23,.3.6-55.9h4.4Z"/>
    <path class="st3" d="M486.9,643.8c2,4.5,6.8,11.6,10.9,16.8l-5.1,1.7c-4.2-5.1-9-12-11.2-16.5l5.4-2ZM544.3,691.4l-.1,11.9c2.7-3,5.6-5.8,8.4-8,1,1.1,2.8,2.7,4.1,3.5-6.8,5-13.8,13.5-18,22.1l-6.5-2.4c.3-.5.8-.8,1.8-.6,1.2-2.3,2.6-4.6,4.1-6.8l-53.3-.6.1-5,8.8.1.2-14.8-12-.1.1-5,12,.1.2-14.9-10.7-.1.1-5,71.7.8-.1,5-10.4-.1-.2,14.9,11.6.1-.1,5-11.8-.1ZM498.9,690.9l-.2,14.8,10.5.1.2-14.8-10.5-.1ZM499.2,670.9l-.2,14.9,10.5.1.2-14.9-10.5-.1ZM510,644.9c.7,3.9,2.8,10.4,5,15.3l-5.2.9c-2.2-4.8-4.5-11.2-5.2-15.1l5.4-1.1ZM514.1,705.8l10.3.1.2-14.8-10.3-.1-.2,14.8ZM514.3,686l10.3.1.2-14.9-10.3-.1-.2,14.9ZM530.4,645.2c0,3.9.6,10.3,1.5,15.2l-5,.4c-1.1-4.9-1.9-11.2-2-14.9l5.5-.7ZM539,706.1l.2-14.8-9.8-.1-.2,14.8,9.8.1ZM539.3,686.3l.2-14.9-9.8-.1-.2,14.9,9.8.1ZM541.2,661.2c2.2-6.1,6.1-12.6,10.8-16.5l5.1,2.3c-4.5,3.4-8.5,9.7-10.7,15.7l-5.2-1.5Z"/>
    <path class="st3" d="M398.8,667.1l11.3-1.8.3-22.1,5.4.1-.2,21.2,23.9-4,.9,5.2-24.9,4.1-.6,49.6-7-.6c.1-.6.5-1,1.7-1.1l.5-47-10.4,1.7-.9-5.3ZM430.6,713.8c-4.7-3.5-10.1-8.6-12.5-12.1l4.1-3.2c2.3,3.6,7.6,8.9,12.3,12.4l-3.9,2.9ZM433,692c-5.1-3.4-11.1-8.6-13.9-12.2,3.3-2.6,3.6-3,4.1-3.4,2.7,3.6,8.6,9,13.7,12.5l-3.9,3.1ZM438,712.1c.3-.5.8-.8,1.6-.8,1.9-5,5.2-12.4,7.8-17,.9.3,3,1.3,3.8,1.6-2.4,4.8-5.6,12.8-7.1,18.4l-6.1-2.2ZM454,685.8v-4c-2.8-2.3-11.4-10.7-13.4-12.8l3.4-4.5c1.7,2.6,6.5,7.9,10,11.7l.4-32.5,5.3.1-.4,33.6c3.8-8.6,8.8-17.3,13.5-22.4.6,1.6,1.9,4,2.9,5.3-5.6,5.7-11.9,16.2-15.4,25.6l14,.2-.1,5.2-15.2-.2-.3,28.8-6.9-.6c.1-.6.5-.9,1.6-1l.3-27.2-14.5-.2.1-5.2,14.7.1ZM469.1,714.2c-2.6-5.6-4.9-12.9-5.6-17.7l4.7-1.3c.7,4.8,2.8,12.2,5.3,17.8l-4.4,1.2Z"/>
    <path class="st3" d="M367.2,702.8l.7-60.2,27.3.3v4.3l-23-.3-.6,55.8-4.4.1Z"/>
    <path class="st3" d="M288.6,697.9c-4-3-8.7-7.8-11-11.4l3.1-2.4c2.2,3.3,6.9,8.4,10.7,11.4l-2.8,2.4ZM350.5,707.5c-6.2.2-56.7,3.2-67.4,3.2v-6.2c1.1.1,2,.1,3,.1,4.8.1,8.8-.7,14.1-4,12.4-7.2,24.4-20.3,24.5-30.9.1-11.5-7.8-18.4-28.1-21.2l2.8-5.7c23.3,3.6,31.8,12.4,31.7,27-.1,11.6-11.7,25.5-26.8,34.7,9-.6,33.2-2.1,43.8-2.9.3-.7,1.2-1.2,1.8-1.3l.6,7.2ZM297.5,690.8c-3.9-3-8.5-7.9-11-11.4l3.1-2.5c2.3,3.6,7.2,8.8,10.7,11.5l-2.8,2.4Z"/>
    <path class="st3" d="M197.8,668.5l.1-5.2,34,.4.2-15.9c.1-6.9,4-6.9,19.2-6.8.4,1.6,1.4,3.9,2.3,5.4-4.2-.2-7.9-.3-10.5-.4-4.8-.1-5.3-.1-5.4,1.7l-.2,15.9,33.6.4-.1,5.2-33.6-.4-.1,7.1-3.9-.3c-4.2,2.1-8.6,4.9-12,7.7l35.7.4-.1,4.9-41.5-.5-1,.3-4.2-2.8c.3-.4.7-.6,1.2-.7,4.9-4.5,12.7-9.8,20.1-13.3v-3l-33.8-.1ZM263.5,698.7l.2-13.2,5.2.1-.2,18.2-12.8-.1c1.5,3.2,4.5,7.6,7.2,10.8l-4.6,2.2c-3.2-3.6-6.7-8.5-8.1-11.8l2.4-1.2-17.4-.2c1.2,3.7,3.8,8.8,6.3,12.6l-4.8,1.8c-2.9-4.1-5.8-9.7-6.8-13.2l2.9-1.2-14.4-.2c-3.2,3.7-7.3,9.4-9.6,13.3-5.1-1.9-5.8-2.4-6.4-2.8.3-.5.9-.7,1.7-.6,2.1-2.9,5.1-6.7,8-10l-13.4-.2.2-18.2,5.4.1-.2,13.2,59.2.6Z"/>
    <path class="st3" d="M190.5,676.5c-3.5,3.2-12,12.1-16.4,16.7-6.4,6.9-9.5,8.4-13.6,8.4-4.9-.1-8.4-3.2-15.6-12-5.7-7.1-19-22.3-30.5-33.1l4.4-5c11.1,10.3,24.3,25.8,29.2,32,6.9,8.6,9.4,11.9,12.7,12,3.3,0,5.9-2.6,10.9-8.2,2.8-3.2,9.6-10.4,13.1-14.3-.1-1.1.3-1.9.9-2.3l4.9,5.8ZM128.7,715.5c-4.6-3.5-8.4-7.5-10.9-11.4l3.1-2.6c2.5,3.9,6.6,8.2,10.7,11.4l-2.9,2.6ZM138.8,708.2c-4.6-3.4-8.6-7.8-11.1-11.6l3.1-2.5c2.3,3.6,6.4,8.3,10.8,11.6l-2.8,2.5Z"/>
    <path class="st3" d="M85.5,679.6c-5.4,2.7-13.9,4.6-20.4,4.5-13-.1-21.2-7.9-21-19.9.2-14.8,13.3-22.9,29.8-22.7,10.7.1,17.9,4.5,17.8,11.7-.1,6.1-6.1,10.9-13.6,10.8-9.3-.1-15.4-7.6-16.6-15-6.6,2.4-11.4,7.6-11.5,15.2-.1,8.9,6.4,14.6,16.7,14.7,12.3.1,24.4-5.2,29.9-10.4,2.5-2.3,5.7-5.7,8-8.2l4.1,4.2c-7.5,7.6-31.2,29.7-42.5,40,4.8-.6,21.2-1.1,30.5-1.3.3-.6,1.1-1.1,1.7-1.2l.6,7c-11.1,0-32.2.5-38.2,1.4l-1.2.6-4.3-5.4c.4-.3,1.2-.6,2-.7,6-4.7,21.8-19.2,28.2-25.3h0ZM74.6,646.7c-2.5,0-5.3.3-7.5.7.8,6.3,5.4,11.7,11.5,11.8,4.3,0,8.1-2.2,8.1-6,.1-5-6.7-6.5-12.1-6.5Z"/>
  </g>
  <path class="st5" d="M88.1,485c5.6,0,7.8.7,9.4,2.7,1.9,2.2,2.5,5.9,2.5,14.7,0,1.4-.1,5.1-.1,7.7-2.6.3-3.4.4-5.6,1,1.8,4.4,2.5,6.3,3.9,10.8.8,2.3,1,2.9,1.6,4.7q1.1.8,2.9,2.2v-23.1c0-7.3,0-8.6-.3-12.3,3.5.4,4.9.6,11.5.6h20.2c6.7,0,9.7-.1,12.6-.6v17.1h-3.8v46.5h3.8v17c-3.1-.4-6.1-.6-12.6-.6h-20.1c-6.6,0-8.5.1-11.7.3.3-3.6.3-5.3.3-12.2v-14.8c-1.1-.9-1.5-1.2-3-2.1.2,1.9.3,3.3.3,6.6,0,2.3,0,4.2-.1,8.1-2.9.3-3.8.4-5.8,1,1.6,4.3,3.4,9.7,4.7,14,.9,3,1.1,3.6,2,5.7l-13.5,4.9c-.7-4.9-1.7-9.3-3.8-16.6-3.4,3.9-5.4,7-8.7,12.9l-5.9-7.4c0,5.3.1,7,.5,9.8h-13.9c.4-4,.6-8,.6-13.5v-23.2c0-6-.1-8.5-.5-11.7,2.2.2,4.3.3,10.6.3h22c2.2,0,3.8.1,5.3.4l.8-5.3-7.3,2.7c-.8-5.4-1.6-9-3.3-14.8-3.9,4.7-5.6,7.2-8.9,13.1l-5.8-6.8c.1,3.9.1,5.1.4,8.2h-13.8c.4-4.2.6-8.5.6-13.8v-23.9c0-5.5-.1-8.5-.4-10.7,2.5.3,5.5.4,10.7.4h21.7ZM82.3,564.8c-1-3.3-1.8-5.3-3.9-10.9l8.8-.1c-.1-2.7-.3-3-1.9-3h-16.6v15.8c2.2-4.1,3.5-6.1,6.5-10.3l7.1,8.5ZM82.5,515.3c-1.1-3.6-1.8-5.3-4.1-11.3h9c-.1-2.9-.3-3.2-2-3.2h-16.6v17.1c2.3-4.2,3.7-6.6,6.6-10.6l7.1,8ZM117.3,556.8v-46.6h-3.9v46.6h3.9ZM131.6,556.8v-46.6h-4v46.6h4Z"/>
  <path class="st5" d="M76.3,335.5c-.3,3.1-.3,4.1-.4,7.3,8.4,1.1,10,1.2,12.1,1.3-.3,2.8-.3,4.6-.3,11.9v41.9c0,4.3,0,6.2.1,8.7l.6-.2,3.3,7.3c-3.7.8-5.3,1.3-11,3.1h57.4c-1.1-10.2-2.6-15.6-5.7-22v4.8c0,3.2.1,5.3.2,9.5-3.4-.2-6.8-.3-10.5-.3h-23.7c-4.5,0-5.5,0-7.9.2.1-2.5.1-3.9.1-9.2v-47.9c0-5.6,0-7.5-.2-9.7,2.3.4,4.2.5,8.9.5h22.8c5,0,7.5-.1,10.6-.5-.2,4.5-.2,6.2-.2,9.5v7c2.9-7.2,4-12.8,4.9-24.5,3.9,3.2,7.1,5,12.8,7.5-1.5,9.2-2.6,13.6-4.9,20.2-1.9,5.2-3.1,7.9-6.3,13.9l-6.5-9.9v21.5l6.2-9.7c6.2,10.4,8.8,17.3,11.8,30.9-4.8,2.8-7.8,5.1-11.1,8.2,4.9-.1,6.7-.1,10-.6v18.3c-3.6-.5-8.7-.7-14.2-.7h-71.2c-5.3,0-7.8.1-11.4.7v-18.3c3.6.5,6,.6,11.4.6h11.3l-1.8-4.8h-8.7c.3-2.6.4-3.9.4-6.7-4.7-.5-6.3-.6-8.5-.6-.4,0-1.1,0-2.4.1.3-3.4.4-6,.4-11.3v-41.6c0-6.1-.1-8.7-.4-11.7,2.4.5,3.7.7,7.6,1.1q1.1.1,3.3.5c0-2.5-.1-4.2-.4-6.1l11.5-.2ZM67.4,358.2q-2-.2-3.4-.4v8q2.2.2,3.4.5v-8.1ZM67.4,382.2c-1.6-.1-2-.2-3.4-.4v7.4c1.6.2,2.3.2,3.4.3v-7.3ZM98.6,447.9c-6.9-1.9-15.3-2.9-22.9-2.9-.6,0-2.3,0-4,.1l1.4-9.6h2.8c9.2,0,17.5.8,26.1,2.7l-3.4,9.7ZM75.9,367.6q1.3.2,3.5.6v-8.1c-1.6-.4-2.2-.4-3.5-.6v8.1ZM79.5,391.7v-7.4q-2.5-.5-3.5-.7v7.4l3.5.7ZM80.5,409.2c1-.4,2.2-.7,3.2-1.2-2.6-.6-3.9-.8-7.6-1.4q.1,2.7.1,4.1l4.3-1.5ZM102.3,392v-32.8h-3v32.8h3ZM112.8,392v-32.8h-3.1v32.8h3.1ZM123.2,392v-32.8h-3v32.8h3Z"/>
  <path class="st6" d="M93.2,217.7h2.7c-.1-.4-.1-.6-.1-.7q0-5.2-2.1-5.2h-32.4c-3.6,0-5.6.1-7.9.6v-18.9c2.1.5,4.9.6,9.2.6h34.4c7,0,10,1.6,11.6,6.2,1,2.6,1.4,6.9,1.4,13.5,0,2,0,3.6-.2,8.7-4.6.6-6.5,1.1-10.5,2.5v10.2c-2-.4-4.4-.5-7.4-.5h-25.9c-3.2,0-5.6.1-7.7.5v-17.8c1.9.2,4,.4,6.8.3h28.1ZM113.2,290.6c-3.8,3.6-6.1,6.2-8.7,10.3-4.1-7.2-7.6-10.2-14.1-12.3,0,4.7.1,7.4.5,10.8h-14.8c.4-3.9.5-6.8.5-12.3h-7.2c0,5.3.1,6.9.4,10h-14.7c.4-4.1.6-8.1.6-13.5v-30.6c0-6.9-.1-10-.6-13.5h14.7c-.3,2.7-.3,3.9-.4,7.5h7.2c-.1-4.6-.1-6.5-.4-9.2h14.6c-.3,2.9-.3,4.8-.4,9.2h6.2c3.8,0,6,0,8.5-.1v-10.1c1.8.4,3,.5,5.5.5h2.8v-22c0-6.5-.2-11.7-.5-14.7h14.9c-.3,3.4-.5,8.2-.5,14.3v22.3h5.5v-31c0-6.1-.2-10.5-.5-14.2h15.2c-.4,4.3-.6,8.9-.6,15.9v75.9c0,6.7.2,11.3.6,15.5h-15.2c.3-3.9.5-8.2.5-14.2v-29.7h-5.5v21.3c0,5.5.2,10.5.5,14.1l-14.6-.2ZM76.5,270v-6.1h-7.2v6.1h7.2ZM90.3,270.8c9.8,1.6,16.7,5.6,22.9,13.5.1-2.1.1-3.1.1-5.5v-23.5h-3.9v9.2c-3.7-.4-8-.6-12.7-.6h-6.4v6.9Z"/>
  <g>
    <path d="M218.7,446.2c0,4.7,0,6.5.3,8.8h-8.2c.3-2.5.4-3.9.4-8.9v-20.6h-17.6v19.9c0,4.7,0,6.7.2,8.8h-8.2c.3-2.5.4-4.1.4-9v-23.6c0-2.8,0-4.2-.1-5.7,1.6.1,2.3.2,4.6.2h23.5c3.8,0,4.8-.1,7.4-.3v9.7h-2.7v20.7Z"/>
    <path d="M183,400c1-11.4,2-17,4.8-29.7l7.6,2.7c-3,11.5-4.3,19-5.1,30.1l-7.3-3.1ZM195.5,400.7c.8-8.3,2.4-17.5,5.2-28.3l7.6,2.6c-1.5,4.5-2.5,8.4-3.7,14.9-.9,4.6-1.3,8.1-1.9,13.9l-7.2-3.1ZM208.3,404.8c1.2-12.7,3.2-23.1,6.7-35.4l7.9,2.9c-2.1,5.9-3.5,11.1-5,19-1.2,6.2-1.8,10.6-2.4,16.8l-7.2-3.3Z"/>
    <path d="M214.5,329.9c0-2.9-.1-4.9-.3-6.7h6.9c-.1,1.7-.2,4.2-.2,6.8v24.1c0,3.3,0,5,.2,6.9h-6.9c.2-2,.3-3.1.3-6.9v-12.7c-6-1.2-7.5-1.5-13.4-2.2v9.9c0,3.4,0,5,.2,6.7h-6.9c.2-2.2.3-3.2.3-6.9v-12.4c0-1.3-.1-2-.5-2.9l2.8-3.9q1.1.7,5.5,1.3c3,.5,7.9,1.3,11.9,2l.1-3.1Z"/>
    <path d="M187.2,311c.3-2.4.3-3.9.3-8v-17.4c0-4.5-.1-6.3-.3-8.5h8.3c-.2,2.9-.2,4.3-.2,8.4v17.6c0,3.8.1,6.1.2,7.9h-8.3ZM209.6,316.2c.3-3.1.4-3.8.4-8.6v-26.6c0-5.1,0-6.7-.4-9.1h8.4c-.2,2.3-.2,3.5-.2,8.9v26.9c0,4.6,0,6.4.2,8.4l-8.4.1Z"/>
    <path d="M183.7,261c.3-2.3.4-3.5.4-8v-18c0-4.8,0-6-.4-8.2h7.6c-.2,2-.2,2.8-.2,8.1v18.3c0,4.5,0,5.9.2,7.8h-7.6ZM202.6,238.3c5.3.4,8.3,1.4,11.6,3.7,4.1,2.8,6.6,6.7,9.2,13.8-3.2,1.9-4.6,2.9-7.1,6-2.4-9.4-6.5-13.5-13.7-13.9v10.5c0,4.3,0,5.7.2,7.8h-7.6c.3-2.2.4-3.6.4-7.9v-28.6c0-4.6,0-5.9-.3-8.2h7.5c-.2,3-.2,3.4-.2,8v8.8Z"/>
    <path d="M193.7,178.8q.5.7,1.6,1.8c2.7,2.8,5.1,5.9,7.4,9.5h13.9c2.9,0,4.6-.1,6.2-.3v9.2c-1.8-.3-2.9-.4-6.2-.4h-9.4c2.3,4.4,2.9,6,5.3,13.4-2.5,1.1-4.2,2.3-6.4,4.4-1.9-7.9-4.7-14.8-8.6-20.8-2.8-4.4-5.8-8-8.1-9.6l4.3-7.2Z"/>
  </g>
</svg>