<?xml version="1.0" encoding="UTF-8"?>
<svg id="_x34_" xmlns="http://www.w3.org/2000/svg" version="1.1" viewBox="0 0 800 569.2">
  <!-- Generator: Adobe Illustrator 29.8.1, SVG Export Plug-In . SVG Version: 2.1.1 Build 2)  -->
  <defs>
    <style>
      .st0 {
        fill: #000001;
      }

      .st1 {
        fill: #fff;
      }
    </style>
  </defs>
  <path class="st0" d="M61.19,109.7c128.49,35.62,223.33-11.35,217.21-100.06C442.07,109.7,588.91,0,588.91,0c-13.77,91.78,99.53,138.36,208.73,99.41-48.02,88.22-80.23,204.99,2.36,284.53-73.42-18.36-257.05,47.6-283.06,185.26-91.78-108.6-295.34-52.75-342.76-16.03C201.72,412.44,70.36,350.29,0,342.64c163.67-84.13,61.19-232.94,61.19-232.94Z"/>
  <path class="st1" d="M94.35,134.06c115.17,31.93,202.12-22.29,196.63-101.8,150.35,105.8,282.5-7.42,282.5-7.42-12.34,82.27,120.15,137.71,199.67,90.92-41.23,55.38-81.68,175.76-5.85,254.35-65.81-16.45-231.91,35.18-257.45,163.85-82.27-97.35-262.29-48.34-317.27-8.82,24.68-126.14-87.91-180.39-150.98-187.24,146.71-75.41,52.75-203.82,52.75-203.82Z"/>
</svg>